<svg width="40" height="39" viewBox="0 0 40 39" fill="none" xmlns="http://www.w3.org/2000/svg">
<circle cx="20.5986" cy="19.0478" r="18.9521" fill="#7171FF"/>
<circle cx="26" cy="13" r="13" fill="#F7941F"/>
<path d="M21.925 9H29.7111L30.5454 12.6364H21.0908L21.925 9Z" fill="white"/>
<path d="M27.0161 13.3633H34.8022L35.6364 16.9996H26.1819L27.0161 13.3633Z" fill="white"/>
<path d="M16.8342 13.3633H24.6203L25.4545 16.9996H16L16.8342 13.3633Z" fill="white"/>
<circle cx="13" cy="26" r="13" fill="white"/>
<path d="M13 19.5V32.5" stroke="#F7941F" stroke-linecap="round" stroke-linejoin="round"/>
<path d="M16.5 23.5C16.5 23.1717 16.4353 22.8466 16.3097 22.5433C16.1841 22.24 15.9999 21.9644 15.7678 21.7322C15.5356 21.5001 15.26 21.3159 14.9567 21.1903C14.6534 21.0647 14.3283 21 14 21H11.75C11.087 21 10.4511 21.2634 9.98223 21.7322C9.51339 22.2011 9.25 22.837 9.25 23.5C9.25 24.163 9.51339 24.7989 9.98223 25.2678C10.4511 25.7366 11.087 26 11.75 26H14.5C15.163 26 15.7989 26.2634 16.2678 26.7322C16.7366 27.2011 17 27.837 17 28.5C17 29.163 16.7366 29.7989 16.2678 30.2678C15.7989 30.7366 15.163 31 14.5 31H11.5C10.837 31 10.2011 30.7366 9.73223 30.2678C9.26339 29.7989 9 29.163 9 28.5" stroke="#F7941F" stroke-linecap="round" stroke-linejoin="round"/>
</svg>
