<svg width="49" height="48" viewBox="0 0 49 48" fill="none" xmlns="http://www.w3.org/2000/svg">
<ellipse cx="29.5" cy="28" rx="19.5" ry="20" fill="#7171FF"/>
<circle cx="32.6745" cy="29.6745" r="9.67454" fill="#F7941F"/>
<path d="M33.6449 24.6358C33.252 24.1231 32.4833 24.1118 32.0756 24.6128L28.3621 29.1756C28.0573 29.5501 28.0637 30.0889 28.3772 30.4561L32.0726 34.7845C32.4856 35.2683 33.2395 35.2485 33.6266 34.7437L37.0439 30.2881C37.3192 29.9292 37.3193 29.4302 37.0441 29.0712L33.6449 24.6358Z" fill="white"/>
<rect width="26" height="16" rx="2" fill="#F7941F"/>
<path d="M6.09982 20C5.43315 25.3333 7.79982 36.3 22.5998 37.5" stroke="white" stroke-width="2" stroke-dasharray="7 2"/>
<path d="M44.4246 20.9983C45.5979 15.7531 44.2903 4.61041 29.6728 2.00132" stroke="white" stroke-width="2" stroke-dasharray="7 2"/>
</svg>
