<svg width="56" height="71" viewBox="0 0 56 71" fill="none" xmlns="http://www.w3.org/2000/svg">
<mask id="path-1-outside-1_6163_36963" maskUnits="userSpaceOnUse" x="0" y="0" width="57" height="71" fill="black">
<rect fill="white" width="57" height="71"/>
<path d="M49.8853 29.9131C50.7995 23.924 46.1403 20.7042 39.7686 18.5564L41.8379 10.4439L36.7906 9.21344L34.7746 17.1126C33.4494 16.7895 32.0873 16.4825 30.7335 16.1819L32.7568 8.23049L27.7146 7L25.6512 15.1094L15.4738 12.6421L14.1311 17.9173C14.1311 17.9173 17.8752 18.7572 17.7961 18.8094C19.8396 19.309 20.2103 20.6322 20.1477 21.6817L14.4851 43.9062C14.235 44.5138 13.6013 45.4247 12.173 45.0764C12.2236 45.1484 8.50526 44.1762 8.50526 44.1762L6 49.8377L16.1627 52.349L14.074 60.5561L19.114 61.7866L21.1833 53.6677C22.5629 54.0332 23.8964 54.3708 25.2033 54.6885L23.1423 62.7695L28.1887 64L30.2773 55.8087C38.8825 57.402 45.3535 56.7593 48.0735 49.1477C50.2679 43.0155 47.9659 39.4779 43.4382 37.17C46.7353 36.4229 49.2185 34.3012 49.8812 29.9162L49.8853 29.9131ZM38.3523 45.7371C36.7888 51.8693 26.2421 48.5554 22.8199 47.7228L25.591 36.8513C29.0113 37.6867 39.9792 39.3411 38.3541 45.7362L38.3523 45.7371ZM39.9176 29.8262C38.4948 35.4071 29.7131 32.5716 26.8629 31.8758L29.3719 22.013C32.2229 22.7097 41.3974 24.0068 39.9139 29.8257"/>
</mask>
<path d="M49.8853 29.9131C50.7995 23.924 46.1403 20.7042 39.7686 18.5564L41.8379 10.4439L36.7906 9.21344L34.7746 17.1126C33.4494 16.7895 32.0873 16.4825 30.7335 16.1819L32.7568 8.23049L27.7146 7L25.6512 15.1094L15.4738 12.6421L14.1311 17.9173C14.1311 17.9173 17.8752 18.7572 17.7961 18.8094C19.8396 19.309 20.2103 20.6322 20.1477 21.6817L14.4851 43.9062C14.235 44.5138 13.6013 45.4247 12.173 45.0764C12.2236 45.1484 8.50526 44.1762 8.50526 44.1762L6 49.8377L16.1627 52.349L14.074 60.5561L19.114 61.7866L21.1833 53.6677C22.5629 54.0332 23.8964 54.3708 25.2033 54.6885L23.1423 62.7695L28.1887 64L30.2773 55.8087C38.8825 57.402 45.3535 56.7593 48.0735 49.1477C50.2679 43.0155 47.9659 39.4779 43.4382 37.17C46.7353 36.4229 49.2185 34.3012 49.8812 29.9162L49.8853 29.9131ZM38.3523 45.7371C36.7888 51.8693 26.2421 48.5554 22.8199 47.7228L25.591 36.8513C29.0113 37.6867 39.9792 39.3411 38.3541 45.7362L38.3523 45.7371ZM39.9176 29.8262C38.4948 35.4071 29.7131 32.5716 26.8629 31.8758L29.3719 22.013C32.2229 22.7097 41.3974 24.0068 39.9139 29.8257" fill="white"/>
<path d="M49.8853 29.9131L53.5194 34.6873C54.758 33.7445 55.5817 32.3572 55.8166 30.8184L49.8853 29.9131ZM39.7686 18.5564L33.9548 17.0735C33.1791 20.1146 34.8781 23.2397 37.8521 24.2421L39.7686 18.5564ZM41.8379 10.4439L47.6518 11.9269C48.0478 10.3743 47.8064 8.72775 46.9812 7.35419C46.1561 5.98063 44.8158 4.99419 43.2591 4.61467L41.8379 10.4439ZM36.7906 9.21344L38.2118 3.38417C35.0168 2.60527 31.7902 4.54331 30.977 7.72972L36.7906 9.21344ZM34.7746 17.1126L33.3533 22.9418C36.5483 23.7209 39.7751 21.7828 40.5883 18.5963L34.7746 17.1126ZM30.7335 16.1819L24.9188 14.7022C24.5185 16.2753 24.7726 17.9434 25.6232 19.3259C26.4737 20.7084 27.8481 21.6873 29.4327 22.0392L30.7335 16.1819ZM32.7568 8.23049L38.5715 9.71012C38.9665 8.15807 38.7245 6.51255 37.8996 5.13985C37.0746 3.76716 35.7351 2.78123 34.1793 2.40155L32.7568 8.23049ZM27.7146 7L29.137 1.17106C25.9401 0.390884 22.7113 2.33133 21.8998 5.5205L27.7146 7ZM25.6512 15.1094L24.2376 20.9405C27.4323 21.7149 30.6554 19.7746 31.466 16.5889L25.6512 15.1094ZM15.4738 12.6421L16.8874 6.81098C13.693 6.03655 10.4701 7.9766 9.65923 11.162L15.4738 12.6421ZM14.1311 17.9173L8.31647 16.4373C7.9166 18.0083 8.1694 19.6742 9.01732 21.0558C9.86524 22.4374 11.2361 23.4171 12.8178 23.7719L14.1311 17.9173ZM17.7961 18.8094L14.4908 13.8019C12.4998 15.1161 11.4765 17.4849 11.8844 19.8353C12.2923 22.1857 14.0539 24.0713 16.3712 24.6378L17.7961 18.8094ZM20.1477 21.6817L25.962 23.1631C26.0559 22.7947 26.1145 22.4182 26.1371 22.0386L20.1477 21.6817ZM14.4851 43.9062L20.0333 46.1905C20.1408 45.9294 20.2297 45.6611 20.2994 45.3876L14.4851 43.9062ZM12.173 45.0764L13.5947 39.2472C11.1667 38.655 8.62581 39.6299 7.21705 41.6943C5.80829 43.7587 5.8267 46.4801 7.26327 48.5252L12.173 45.0764ZM8.50526 44.1762L10.0229 38.3713C7.17592 37.627 4.20928 39.0572 3.01847 41.7482L8.50526 44.1762ZM6 49.8377L0.513207 47.4097C-0.204408 49.0313 -0.167887 50.8874 0.612967 52.4796C1.39382 54.0718 2.83901 55.237 4.56058 55.6624L6 49.8377ZM16.1627 52.349L21.9773 53.8288C22.3716 52.2797 22.1314 50.6373 21.31 49.266C20.4886 47.8946 19.1539 46.9078 17.6021 46.5243L16.1627 52.349ZM14.074 60.5561L8.25939 59.0763C7.86442 60.6282 8.10626 62.2737 8.93108 63.6464C9.75589 65.019 11.0952 66.005 12.651 66.3849L14.074 60.5561ZM19.114 61.7866L17.6909 67.6154C20.8871 68.3957 24.1155 66.4566 24.9281 63.2685L19.114 61.7866ZM21.1833 53.6677L22.7198 47.8678C21.1721 47.4578 19.5248 47.6834 18.1443 48.4943C16.7638 49.3053 15.7646 50.6344 15.3692 52.1858L21.1833 53.6677ZM25.2033 54.6885L31.0172 56.1713C31.4134 54.6181 31.1715 52.9709 30.3456 51.5971C29.5197 50.2233 28.1784 49.2371 26.6208 48.8584L25.2033 54.6885ZM23.1423 62.7695L17.3284 61.2867C16.9324 62.8393 17.1739 64.4857 17.999 65.8592C18.8241 67.2327 20.1643 68.2192 21.7209 68.5987L23.1423 62.7695ZM28.1887 64L26.7673 69.8292C29.9628 70.6084 33.19 68.6696 34.0026 65.4825L28.1887 64ZM30.2773 55.8087L31.3696 49.909C28.2637 49.3339 25.2438 51.2655 24.4633 54.3263L30.2773 55.8087ZM48.0735 49.1477L42.4243 47.1261L42.4234 47.1286L48.0735 49.1477ZM43.4382 37.17L42.1123 31.3183C39.6481 31.8767 37.7977 33.919 37.4845 36.4262C37.1713 38.9333 38.4623 41.3681 40.7133 42.5156L43.4382 37.17ZM49.8812 29.9162L46.2471 25.142C45.006 26.0867 44.1816 27.4775 43.9485 29.0197L49.8812 29.9162ZM38.3523 45.7371L35.711 40.3497C34.1324 41.1236 32.9726 42.5511 32.5383 44.2547L38.3523 45.7371ZM22.8199 47.7228L17.0058 46.2408C16.61 47.7938 16.8519 49.4406 17.6776 50.8142C18.5034 52.1877 19.8443 53.1738 21.4015 53.5527L22.8199 47.7228ZM25.591 36.8513L27.0145 31.0226C23.8182 30.242 20.5896 32.1811 19.7769 35.3694L25.591 36.8513ZM38.3541 45.7362L40.9954 51.1235C42.5755 50.3489 43.7359 48.9195 44.1693 47.2139L38.3541 45.7362ZM26.8629 31.8758L21.0481 30.3966C20.6533 31.9485 20.8953 33.5939 21.7201 34.9664C22.545 36.339 23.8843 37.3249 25.4399 37.7046L26.8629 31.8758ZM29.3719 22.013L30.7962 16.1845C27.5986 15.4031 24.3686 17.3438 23.5571 20.5338L29.3719 22.013ZM55.8166 30.8184C56.5813 25.8088 54.9047 21.6125 51.7729 18.5229C48.95 15.7381 45.1545 14.0402 41.6851 12.8708L37.8521 24.2421C40.7544 25.2204 42.4743 26.2063 43.3455 27.0656C43.7209 27.436 43.8564 27.7036 43.9166 27.8773C43.9729 28.0398 44.0514 28.3699 43.954 29.0077L55.8166 30.8184ZM45.5825 20.0394L47.6518 11.9269L36.0241 8.96095L33.9548 17.0735L45.5825 20.0394ZM43.2591 4.61467L38.2118 3.38417L35.3695 15.0427L40.4168 16.2732L43.2591 4.61467ZM30.977 7.72972L28.961 15.6289L40.5883 18.5963L42.6043 10.6972L30.977 7.72972ZM36.196 11.2834C34.8072 10.9448 33.3946 10.6267 32.0343 10.3246L29.4327 22.0392C30.78 22.3384 32.0915 22.6342 33.3533 22.9418L36.196 11.2834ZM36.5482 17.6615L38.5715 9.71012L26.9421 6.75086L24.9188 14.7022L36.5482 17.6615ZM34.1793 2.40155L29.137 1.17106L26.2921 12.8289L31.3344 14.0594L34.1793 2.40155ZM21.8998 5.5205L19.8365 13.6299L31.466 16.5889L33.5293 8.4795L21.8998 5.5205ZM27.0648 9.27826L16.8874 6.81098L14.0602 18.4732L24.2376 20.9405L27.0648 9.27826ZM9.65923 11.162L8.31647 16.4373L19.9457 19.3974L21.2884 14.1221L9.65923 11.162ZM14.1311 17.9173C12.8178 23.7719 12.8178 23.7719 12.8178 23.7719C12.8178 23.7719 12.8178 23.7719 12.8178 23.7719C12.8179 23.7719 12.818 23.7719 12.8181 23.7719C12.8184 23.772 12.819 23.7721 12.8197 23.7723C12.8213 23.7726 12.8237 23.7732 12.8269 23.7739C12.8334 23.7754 12.8433 23.7776 12.8564 23.7805C12.8826 23.7864 12.9214 23.7952 12.9711 23.8064C13.0706 23.8288 13.2132 23.8611 13.3842 23.9C13.7275 23.9781 14.1804 24.0818 14.6275 24.1863C15.0834 24.2928 15.4998 24.3924 15.7838 24.4644C15.9401 24.5039 15.9864 24.5176 15.9641 24.511C15.9527 24.5077 15.9188 24.4976 15.8699 24.4817C15.8311 24.4691 15.7241 24.4339 15.584 24.3792C15.513 24.3514 15.3936 24.3032 15.2475 24.2351C15.129 24.1798 14.8436 24.0431 14.5054 23.8217C14.3341 23.7095 14.05 23.5115 13.7343 23.2212C13.4575 22.9666 12.8903 22.4018 12.4395 21.5076C11.9455 20.5279 11.4893 18.9066 12.0625 17.0436C12.6071 15.2736 13.7837 14.2686 14.4908 13.8019L21.1014 23.8169C21.8097 23.3493 22.9871 22.3434 23.5319 20.5724C24.1054 18.7084 23.6491 17.086 23.1545 16.1051C22.3805 14.5699 21.1588 13.8346 21.0796 13.7828C20.5108 13.4103 19.9934 13.2186 19.9519 13.2024C19.6741 13.0938 19.4294 13.022 19.3585 13.0011C19.1466 12.9386 18.9134 12.8781 18.7298 12.8316C18.334 12.7314 17.8292 12.6112 17.3589 12.5013C16.8799 12.3893 16.4017 12.2798 16.0455 12.1988C15.8668 12.1581 15.7175 12.1244 15.6125 12.1007C15.5599 12.0888 15.5184 12.0795 15.4898 12.073C15.4755 12.0698 15.4644 12.0673 15.4567 12.0656C15.4529 12.0647 15.4499 12.0641 15.4478 12.0636C15.4468 12.0634 15.446 12.0632 15.4454 12.0631C15.4451 12.063 15.4448 12.0629 15.4447 12.0629C15.4446 12.0629 15.4445 12.0629 15.4444 12.0629C15.4443 12.0628 15.4443 12.0628 14.1311 17.9173ZM16.3712 24.6378C16.2299 24.6032 15.385 24.3172 14.7284 23.3052C14.1452 22.4064 14.1426 21.5899 14.1584 21.3248L26.1371 22.0386C26.2155 20.724 26.0588 18.7211 24.795 16.7734C23.4578 14.7126 21.4058 13.5151 19.2209 12.981L16.3712 24.6378ZM14.3335 20.2003L8.67091 42.4248L20.2994 45.3876L25.962 23.1631L14.3335 20.2003ZM8.93699 41.6219C9.04334 41.3636 9.39329 40.5961 10.3089 39.9493C10.8074 39.5971 11.4106 39.3299 12.0744 39.2145C12.7269 39.1011 13.2585 39.1652 13.5947 39.2472L10.7513 50.9055C13.0133 51.4572 15.3358 51.0905 17.2329 49.7502C18.8849 48.5831 19.6768 47.0564 20.0333 46.1905L8.93699 41.6219ZM7.26327 48.5252C6.85267 47.9406 5.92953 46.3933 6.23198 44.2424C6.5655 41.8705 8.11366 40.5268 9.04816 39.9567C9.91218 39.4297 10.6959 39.2553 11.004 39.1942C11.3859 39.1185 11.6973 39.0959 11.8728 39.0873C12.4479 39.0591 12.9026 39.1268 12.9102 39.1277C13.0338 39.1437 13.1246 39.1598 13.155 39.1653C13.1944 39.1724 13.2199 39.1775 13.2256 39.1787C13.2286 39.1793 13.1657 39.166 13.0063 39.1281C12.7115 39.0582 12.2881 38.9527 11.8324 38.8372C11.384 38.7236 10.9312 38.607 10.5888 38.5184C10.418 38.4742 10.2757 38.4372 10.1765 38.4114C10.1268 38.3985 10.088 38.3883 10.0618 38.3815C10.0487 38.3781 10.0388 38.3755 10.0322 38.3738C10.0289 38.3729 10.0265 38.3723 10.0249 38.3719C10.0242 38.3717 10.0236 38.3715 10.0233 38.3714C10.0231 38.3714 10.023 38.3714 10.0229 38.3713C10.0229 38.3713 10.0229 38.3713 10.0229 38.3713C10.0229 38.3713 10.0229 38.3713 8.50526 44.1762C6.98759 49.9811 6.98765 49.9811 6.98772 49.9811C6.98776 49.9812 6.98784 49.9812 6.98793 49.9812C6.9881 49.9812 6.98832 49.9813 6.98861 49.9814C6.98917 49.9815 6.98996 49.9817 6.99097 49.982C6.99299 49.9825 6.99589 49.9833 6.99964 49.9843C7.00715 49.9862 7.01808 49.9891 7.0322 49.9928C7.06044 50.0001 7.10145 50.0108 7.15341 50.0243C7.25728 50.0514 7.4051 50.0898 7.58216 50.1356C7.93531 50.227 8.40898 50.349 8.88381 50.4693C9.35143 50.5879 9.8481 50.712 10.2363 50.8041C10.4184 50.8473 10.6377 50.898 10.8343 50.938C10.9022 50.9518 11.1179 50.9959 11.3702 51.0285C11.4022 51.0326 11.8749 51.1017 12.4611 51.0729C12.6393 51.0642 12.9531 51.0413 13.3369 50.9653C13.6469 50.9038 14.4321 50.7289 15.2972 50.2012C16.2327 49.6306 17.7814 48.2861 18.1151 45.9133C18.4176 43.7616 17.4942 42.2132 17.0828 41.6276L7.26327 48.5252ZM3.01847 41.7482L0.513207 47.4097L11.4868 52.2656L13.9921 46.6042L3.01847 41.7482ZM4.56058 55.6624L14.7233 58.1738L17.6021 46.5243L7.43942 44.0129L4.56058 55.6624ZM10.348 50.8693L8.25939 59.0763L19.8887 62.0359L21.9773 53.8288L10.348 50.8693ZM12.651 66.3849L17.6909 67.6154L20.5371 55.9578L15.4971 54.7273L12.651 66.3849ZM24.9281 63.2685L26.9974 55.1496L15.3692 52.1858L13.2999 60.3047L24.9281 63.2685ZM19.6469 59.4677C21.0679 59.8441 22.4412 60.1917 23.7858 60.5187L26.6208 48.8584C25.3517 48.5498 24.0578 48.2223 22.7198 47.8678L19.6469 59.4677ZM19.3894 53.2057L17.3284 61.2867L28.9562 64.2523L31.0172 56.1713L19.3894 53.2057ZM21.7209 68.5987L26.7673 69.8292L29.61 58.1708L24.5636 56.9403L21.7209 68.5987ZM34.0026 65.4825L36.0913 57.2912L24.4633 54.3263L22.3747 62.5175L34.0026 65.4825ZM29.185 61.7085C33.6866 62.5419 38.644 63.02 43.1115 61.6754C48.1163 60.1692 51.7758 56.6173 53.7236 51.1668L42.4234 47.1286C41.6512 49.2897 40.7152 49.865 39.6531 50.1846C38.0539 50.6659 35.4732 50.6688 31.3696 49.909L29.185 61.7085ZM53.7227 51.1693C55.1662 47.1354 55.4369 43.0393 53.754 39.2757C52.1157 35.6114 49.0888 33.3158 46.1631 31.8244L40.7133 42.5156C42.3153 43.3322 42.7033 43.9592 42.7992 44.1738C42.8507 44.289 43.1752 45.0278 42.4243 47.1261L53.7227 51.1693ZM44.7642 43.0216C47.2972 42.4477 49.8904 41.2531 51.9931 39.0446C54.109 36.8222 55.3342 33.9866 55.8138 30.8127L43.9485 29.0197C43.7655 30.2309 43.4178 30.6486 43.3021 30.7701C43.1733 30.9054 42.8764 31.1452 42.1123 31.3183L44.7642 43.0216ZM53.5153 34.6904L53.5194 34.6873L46.2512 25.1388L46.2471 25.142L53.5153 34.6904ZM32.5383 44.2547C32.6601 43.7767 33.1351 43.3426 33.3918 43.233C33.408 43.2261 33.2794 43.2815 32.9375 43.3225C32.6016 43.3629 32.1538 43.3783 31.5883 43.3495C29.0635 43.2209 26.3857 42.4153 24.2384 41.8928L21.4015 53.5527C22.6764 53.8629 26.983 55.1305 30.9779 55.334C32.9972 55.4368 35.6253 55.327 38.1022 54.2699C40.883 53.083 43.2627 50.7635 44.1663 47.2194L32.5383 44.2547ZM28.634 49.2048L31.4051 38.3333L19.7769 35.3694L17.0058 46.2408L28.634 49.2048ZM24.1675 42.68C26.4748 43.2435 29.1152 43.6647 31.4293 44.6924C32.5413 45.1863 32.8576 45.5361 32.8395 45.5135C32.5905 45.2019 32.4548 44.5896 32.5389 44.2584L44.1693 47.2139C45.066 43.6852 44.1687 40.4679 42.2134 38.0215C40.489 35.864 38.1543 34.5489 36.2999 33.7253C32.6813 32.1182 28.1275 31.2945 27.0145 31.0226L24.1675 42.68ZM35.7129 40.3488L35.711 40.3497L40.9935 51.1244L40.9954 51.1235L35.7129 40.3488ZM34.1036 28.344C34.1292 28.2433 34.224 27.9802 34.4682 27.6891C34.7075 27.4039 34.9587 27.2482 35.1005 27.1808C35.2764 27.097 35.0624 27.2418 34.1413 27.2086C32.2102 27.1391 30.1925 26.5125 28.2859 26.047L25.4399 37.7046C26.3835 37.935 30.1817 39.0739 33.7098 39.2009C35.5182 39.266 37.9446 39.1166 40.2563 38.0167C42.8548 36.7803 44.9143 34.5144 45.7316 31.3084L34.1036 28.344ZM32.6777 33.355L35.1867 23.4922L23.5571 20.5338L21.0481 30.3966L32.6777 33.355ZM27.9476 27.8415C28.4 27.952 28.9723 28.0734 29.4266 28.1724C29.9314 28.2824 30.4446 28.3971 30.9707 28.5291C32.0555 28.8012 33.0115 29.1032 33.7517 29.4452C34.5627 29.8199 34.616 30.0162 34.4522 29.7923C34.3332 29.6298 34.1829 29.3502 34.1123 28.9837C34.0418 28.6182 34.0913 28.3773 34.0999 28.3435L45.728 31.308C46.54 28.1226 45.8932 25.1058 44.1348 22.7039C42.5789 20.5785 40.4386 19.3159 38.785 18.5518C35.6182 17.0887 31.5621 16.3716 30.7962 16.1845L27.9476 27.8415Z" fill="#556174" mask="url(#path-1-outside-1_6163_36963)"/>
</svg>
