<svg width="65" height="65" viewBox="0 0 65 65" fill="none" xmlns="http://www.w3.org/2000/svg">
<path d="M20.2605 34.4459C21.2148 33.3295 21.2171 31.6786 20.2672 30.5597C20.8071 31.0173 21.4939 31.2711 22.2069 31.2711C23.0025 31.2711 23.7656 30.9551 24.3282 30.3925L32.4995 22.2214L40.6761 30.3978C41.7826 31.5043 43.5384 31.5657 44.717 30.5821C43.7944 31.687 43.7905 33.2993 44.7051 34.4085C43.5265 33.4349 41.7786 33.4997 40.6758 34.6025L32.4995 42.7786L24.3282 34.6075C23.2134 33.4928 21.4393 33.4386 20.2605 34.4459ZM51.0908 24.2085C52.0757 23.0299 52.0146 21.2731 50.9077 20.1661L34.6209 3.87872C34.0582 3.31608 33.2952 3 32.4995 3C31.7038 3 30.9407 3.31609 30.3781 3.87873L14.0968 20.1609C12.984 21.2737 12.9283 23.0434 13.9296 24.222C13.3896 23.764 12.7025 23.51 11.9892 23.51C11.1935 23.51 10.4305 23.8261 9.86784 24.3887L3.87868 30.3779C3.31607 30.9405 3 31.7035 3 32.4992C3 33.2948 3.31608 34.0579 3.87869 34.6205L9.86751 40.6093C10.9667 41.7085 12.7068 41.7764 13.8851 40.8129C13.4504 41.3454 13.2097 42.0141 13.2092 42.7077C13.2086 43.5041 13.5247 44.268 14.0878 44.8311L14.0962 44.8396L14.0964 44.8397L30.3782 61.1213C30.9408 61.6839 31.7039 62 32.4995 62C33.2952 62 34.0582 61.6839 34.6208 61.1213L50.9077 44.8341C50.9382 44.8036 50.9681 44.7724 50.9973 44.7406L51.0002 44.7374C52.0149 43.631 52.0468 41.9611 51.1197 40.8202C51.6519 41.2523 52.3191 41.4913 53.0109 41.4913C53.8065 41.4913 54.5696 41.1752 55.1322 40.6126L61.1213 34.6234C62.2929 33.4518 62.2929 31.5523 61.1213 30.3808L55.1326 24.392C54.57 23.8294 53.8069 23.5133 53.0112 23.5133C52.3067 23.5133 51.6277 23.7611 51.0908 24.2085Z" fill="white" stroke="#556174" stroke-width="6" stroke-linejoin="round"/>
</svg>
