<svg width="64" height="65" viewBox="0 0 64 65" fill="none" xmlns="http://www.w3.org/2000/svg">
<path d="M4.67876 22.339L4.6732 22.3542C1.56691 30.9266 2.8539 40.8716 7.96562 48.3953C12.4832 55.1668 19.95 59.9782 28.1167 61.035C41.6056 63.1324 56.1231 54.4041 59.8402 40.9719C60.1169 39.9722 59.8574 38.9005 59.1542 38.1379C58.4509 37.3754 57.4036 37.0303 56.3848 37.2253C55.8786 37.3222 55.3849 37.4194 54.9017 37.5145C52.0076 38.0842 49.4899 38.5798 46.9117 38.499C46.8638 38.4975 46.8159 38.4972 46.768 38.498C39.0217 38.6265 31.3137 35.203 25.8866 29.5638L25.8817 29.5588C21.4085 24.9324 18.651 18.7232 17.8619 12.2336C17.729 11.1413 17.0089 10.2094 15.9855 9.80532C14.9621 9.40124 13.7995 9.58986 12.9564 10.2968C9.11807 13.5149 6.35083 17.8012 4.67876 22.339Z" fill="white" stroke="#556174" stroke-width="6" stroke-linejoin="round"/>
<path d="M22.2758 4.7107C22.1673 4.7513 22.0612 4.79815 21.9581 4.85102C21.941 4.85977 21.9234 4.86875 21.9054 4.87797C21.327 5.17423 20.2713 5.71485 19.3961 6.50583C18.4295 7.37945 17.3372 8.8832 17.5519 10.995C17.5634 11.1083 17.5814 11.2208 17.6057 11.332C18.0132 13.1969 19.1588 14.4432 20.1736 15.2577C20.9403 15.8731 21.8628 16.4079 22.4871 16.7697C22.6257 16.8501 22.7495 16.9219 22.8538 16.9842C22.9022 17.0131 22.9515 17.0407 23.0016 17.0669C26.4621 18.8782 30.0611 20.2183 33.5835 21.4009C34.9765 21.8686 36.325 22.3019 37.6515 22.7281C39.7738 23.4101 41.8398 24.0739 43.9421 24.8318C43.9833 24.8466 44.0248 24.8606 44.0666 24.8736C48.3396 26.2059 52.3483 27.594 55.9465 29.6796C56.8926 30.2279 58.062 30.2181 58.9986 29.654C59.9353 29.0899 60.4909 28.0609 60.4487 26.9683C60.343 24.2325 59.2878 21.7917 58.4478 19.9295L58.4328 19.8966C55.0187 12.5651 48.496 6.719 40.7071 4.30157L40.6845 4.29466C34.7805 2.51306 28.1991 2.49517 22.2758 4.7107Z" fill="white" stroke="#556174" stroke-width="6" stroke-linejoin="round"/>
</svg>
