<svg width="61" height="56" viewBox="0 0 61 56" fill="none" xmlns="http://www.w3.org/2000/svg">
<path d="M5.11425 45.8315L7.23049 47.9579L5.11425 45.8315C2.70281 48.2314 4.44195 52.2839 7.78265 52.2839H45.8817C47.0995 52.2839 48.2552 51.7994 49.1023 50.9563L56.6285 43.4661C59.0399 41.0662 57.3008 37.0137 53.9601 37.0137H15.861C14.6433 37.0137 13.4876 37.4981 12.6404 38.3412L5.11425 45.8315Z" fill="white" stroke="#556174" stroke-width="6"/>
<path d="M12.6843 4.28483C12.6695 4.29893 12.6549 4.31317 12.6404 4.32757L5.11425 11.8178C2.70281 14.2177 4.44195 18.2702 7.78265 18.2702H45.8817C47.0994 18.2702 48.2552 17.7858 49.1023 16.9427L56.6285 9.45242C59.0399 7.0525 57.3008 3 53.9601 3H15.861C14.6332 3 13.507 3.49873 12.6843 4.28483Z" fill="white" stroke="#556174" stroke-width="6" stroke-linejoin="round"/>
<path d="M49.1023 21.2436C48.2552 20.4005 47.0994 19.916 45.8817 19.916H7.78265C4.44195 19.916 2.70281 23.9685 5.11425 26.3684L12.6404 33.8587C13.4876 34.7018 14.6433 35.1863 15.861 35.1863H53.9601C57.3008 35.1863 59.0399 31.1338 56.6285 28.7338L49.1023 21.2436Z" fill="white" stroke="#556174" stroke-width="6"/>
</svg>
