<svg width="63" height="57" viewBox="0 0 63 57" fill="none" xmlns="http://www.w3.org/2000/svg">
<path d="M50.6542 32.1622L50.6492 32.1532L50.6441 32.1442C49.7524 30.5552 48.1432 29.0112 45.8633 29.0112C43.5833 29.0112 41.9741 30.5552 41.0824 32.1442L33.4867 45.6533L33.4789 45.6671L33.4713 45.681C32.5817 47.303 32.1753 49.4239 33.2484 51.3326C34.3416 53.277 36.4019 54 38.28 54H53.3104C55.1849 54 57.2628 53.2883 58.3624 51.3326C59.4435 49.4097 59.0138 47.281 58.1108 45.666L50.6542 32.1622ZM26.6511 6.13292L26.645 6.14365L26.6391 6.15442L4.88703 45.67C4.88635 45.6712 4.88567 45.6724 4.88499 45.6737C3.99319 47.2857 3.5507 49.4196 4.64078 51.3487C5.74814 53.3085 7.83454 54 9.68964 54H20.6084H20.7039L20.7991 53.9939C23.9998 53.7901 26.8476 52.0358 28.5412 49.3356L28.5812 49.2718L28.618 49.2061L41.7695 25.6949L41.8206 25.6037L41.8651 25.5091C43.1997 22.6768 43.1997 19.3513 41.8651 16.519L41.8243 16.4324L41.7781 16.3485L37.865 9.2561L36.2118 6.18069L36.1989 6.15669L36.1856 6.13292C35.3026 4.55956 33.7041 3 31.4183 3C29.1325 3 27.534 4.55956 26.6511 6.13292Z" fill="white" stroke="#556174" stroke-width="6"/>
</svg>
