<svg width="226" height="116" viewBox="0 0 226 116" fill="none" xmlns="http://www.w3.org/2000/svg">
<path d="M116 59.5C116 29.9528 139.953 6 169.5 6C199.047 6 223 29.9528 223 59.5C223 89.0472 199.047 113 169.5 113H116V59.5Z" fill="#7171FF" stroke="#556174" stroke-width="6"/>
<mask id="path-2-inside-1_6301_33547" fill="white">
<path d="M56.5 6.73756e-07C71.4847 8.52447e-07 85.8557 5.95266 96.4515 16.5485C107.047 27.1443 113 41.5153 113 56.5C113 71.4847 107.047 85.8557 96.4515 96.4515C85.8557 107.047 71.4847 113 56.5 113L56.5 56.5L56.5 6.73756e-07Z"/>
</mask>
<path d="M56.5 6.73756e-07C71.4847 8.52447e-07 85.8557 5.95266 96.4515 16.5485C107.047 27.1443 113 41.5153 113 56.5C113 71.4847 107.047 85.8557 96.4515 96.4515C85.8557 107.047 71.4847 113 56.5 113L56.5 56.5L56.5 6.73756e-07Z" fill="#F7931A" stroke="#556174" stroke-width="12" mask="url(#path-2-inside-1_6301_33547)"/>
</svg>
