<svg width="366" height="368" viewBox="0 0 366 368" fill="none" xmlns="http://www.w3.org/2000/svg">
<circle cx="186" cy="184.639" r="147" fill="#FDC98B" stroke="#556174" stroke-width="6"/>
<rect x="168" y="39.6387" width="29" height="290" fill="#7171FF" stroke="#556174" stroke-width="6"/>
<rect x="52.358" y="119.078" width="29" height="290" transform="rotate(-57.5518 52.358 119.078)" fill="#7171FF" stroke="#556174" stroke-width="6"/>
<rect x="300.824" y="99.5805" width="29" height="290" transform="rotate(60 300.824 99.5805)" fill="#7171FF" stroke="#556174" stroke-width="6"/>
<mask id="path-5-outside-1_6303_33552" maskUnits="userSpaceOnUse" x="0" y="0.638672" width="366" height="367" fill="black">
<rect fill="white" y="0.638672" width="366" height="367"/>
<path d="M362 184.139C362 283.274 281.859 363.639 183 363.639C84.141 363.639 4 283.274 4 184.139C4 85.0036 84.141 4.63867 183 4.63867C281.859 4.63867 362 85.0036 362 184.139ZM36.7456 184.139C36.7456 265.138 102.226 330.802 183 330.802C263.774 330.802 329.254 265.138 329.254 184.139C329.254 103.139 263.774 37.4758 183 37.4758C102.226 37.4758 36.7456 103.139 36.7456 184.139Z"/>
</mask>
<path d="M362 184.139C362 283.274 281.859 363.639 183 363.639C84.141 363.639 4 283.274 4 184.139C4 85.0036 84.141 4.63867 183 4.63867C281.859 4.63867 362 85.0036 362 184.139ZM36.7456 184.139C36.7456 265.138 102.226 330.802 183 330.802C263.774 330.802 329.254 265.138 329.254 184.139C329.254 103.139 263.774 37.4758 183 37.4758C102.226 37.4758 36.7456 103.139 36.7456 184.139Z" fill="#7171FF"/>
<path d="M362 184.139C362 283.274 281.859 363.639 183 363.639C84.141 363.639 4 283.274 4 184.139C4 85.0036 84.141 4.63867 183 4.63867C281.859 4.63867 362 85.0036 362 184.139ZM36.7456 184.139C36.7456 265.138 102.226 330.802 183 330.802C263.774 330.802 329.254 265.138 329.254 184.139C329.254 103.139 263.774 37.4758 183 37.4758C102.226 37.4758 36.7456 103.139 36.7456 184.139Z" stroke="#556174" stroke-width="8" mask="url(#path-5-outside-1_6303_33552)"/>
<rect x="171" y="304" width="23" height="28" fill="#7171FF"/>
<rect x="169" y="30.6387" width="28" height="28" fill="#7171FF"/>
<rect x="171" y="144" width="23" height="85" fill="#7171FF"/>
<rect x="214.611" y="153" width="23" height="85" transform="rotate(60 214.611 153)" fill="#7171FF"/>
<rect x="225.422" y="197.836" width="23" height="85" transform="rotate(123.171 225.422 197.836)" fill="#7171FF"/>
</svg>
