<svg width="113" height="113" viewBox="0 0 113 113" fill="none" xmlns="http://www.w3.org/2000/svg">
<mask id="path-1-inside-1_6163_36933" fill="white">
<path d="M1.03194e-05 56.5C1.12963e-05 67.6747 3.31368 78.5984 9.52198 87.8897C15.7303 97.1811 24.5544 104.423 34.8784 108.699C45.2024 112.976 56.5627 114.094 67.5226 111.914C78.4825 109.734 88.5499 104.353 96.4515 96.4515C104.353 88.5499 109.734 78.4825 111.914 67.5226C114.094 56.5627 112.976 45.2024 108.699 34.8784C104.423 24.5544 97.1811 15.7303 87.8897 9.52197C78.5983 3.31367 67.6746 3.82921e-06 56.5 4.93939e-06L56.5 56.5L1.03194e-05 56.5Z"/>
</mask>
<path d="M1.03194e-05 56.5C1.12963e-05 67.6747 3.31368 78.5984 9.52198 87.8897C15.7303 97.1811 24.5544 104.423 34.8784 108.699C45.2024 112.976 56.5627 114.094 67.5226 111.914C78.4825 109.734 88.5499 104.353 96.4515 96.4515C104.353 88.5499 109.734 78.4825 111.914 67.5226C114.094 56.5627 112.976 45.2024 108.699 34.8784C104.423 24.5544 97.1811 15.7303 87.8897 9.52197C78.5983 3.31367 67.6746 3.82921e-06 56.5 4.93939e-06L56.5 56.5L1.03194e-05 56.5Z" fill="#F7931A" stroke="#556174" stroke-width="12" mask="url(#path-1-inside-1_6163_36933)"/>
</svg>
