<svg width="28" height="28" viewBox="0 0 28 28" fill="none" xmlns="http://www.w3.org/2000/svg">
<path d="M14 0C6.26967 0 0 6.2685 0 14C0 20.1857 4.011 25.4333 9.57483 27.2848C10.2737 27.4143 10.5 26.9803 10.5 26.6117V24.0053C6.60567 24.8523 5.79483 22.3533 5.79483 22.3533C5.15783 20.7352 4.23967 20.3047 4.23967 20.3047C2.96917 19.4355 4.3365 19.4542 4.3365 19.4542C5.74233 19.5522 6.482 20.8973 6.482 20.8973C7.73033 23.037 9.75683 22.4187 10.556 22.0605C10.6808 21.1563 11.0437 20.538 11.445 20.1892C8.33583 19.8333 5.06683 18.6328 5.06683 13.2697C5.06683 11.7402 5.614 10.4918 6.50883 9.51183C6.36417 9.15833 5.88467 7.73383 6.64533 5.8065C6.64533 5.8065 7.82133 5.43083 10.4965 7.2415C11.613 6.93117 12.81 6.776 14 6.77017C15.19 6.776 16.3882 6.93117 17.507 7.2415C20.1798 5.43083 21.3535 5.8065 21.3535 5.8065C22.1153 7.735 21.6358 9.1595 21.4912 9.51183C22.3895 10.4918 22.932 11.7413 22.932 13.2697C22.932 18.6468 19.6572 19.831 16.5398 20.1775C17.0415 20.6115 17.5 21.4632 17.5 22.7698V26.6117C17.5 26.9838 17.724 27.4213 18.4345 27.2837C23.9937 25.4298 28 20.1833 28 14C28 6.2685 21.7315 0 14 0Z" fill="white"/>
</svg>
