<svg width="30" height="30" viewBox="0 0 30 30" fill="none" xmlns="http://www.w3.org/2000/svg">
<path fill-rule="evenodd" clip-rule="evenodd" d="M1.17157 1.17157C0 2.34315 0 4.22876 0 8V22C0 25.7712 0 27.6569 1.17157 28.8284C2.34315 30 4.22876 30 8 30H22C25.7712 30 27.6569 30 28.8284 28.8284C30 27.6569 30 25.7712 30 22V8C30 4.22876 30 2.34315 28.8284 1.17157C27.6569 0 25.7712 0 22 0H8C4.22876 0 2.34315 0 1.17157 1.17157ZM10.2559 6.75H13.1434V9.43125H10.2559V6.75ZM21.807 10.875H18.0945L13.1445 15.825V10.875H8.81328L7.98828 13.7625H10.257V23.25H13.1445V19.5375L14.382 18.3L18.3008 23.25H22.0133L16.2383 16.4438L21.807 10.875Z" fill="white"/>
</svg>
