<svg width="30" height="30" viewBox="0 0 30 30" fill="none" xmlns="http://www.w3.org/2000/svg">
<path d="M0 8C0 4.22876 0 2.34315 1.17157 1.17157C2.34315 0 4.22876 0 8 0H22C25.7712 0 27.6569 0 28.8284 1.17157C30 2.34315 30 4.22876 30 8V22C30 25.7712 30 27.6569 28.8284 28.8284C27.6569 30 25.7712 30 22 30H8C4.22876 30 2.34315 30 1.17157 28.8284C0 27.6569 0 25.7712 0 22V8Z" fill="#7171FF"/>
<path d="M18.0945 10.875H21.807L16.2383 16.4438L22.0133 23.25H18.3008L14.382 18.3L13.1445 19.5375V23.25H10.257V13.7625H7.98828L8.81328 10.875H13.1445V15.825L18.0945 10.875Z" fill="white"/>
<path d="M13.1434 6.75H10.2559V9.43125H13.1434V6.75Z" fill="white"/>
</svg>
