<svg width="48" height="48" viewBox="0 0 48 48" fill="none" xmlns="http://www.w3.org/2000/svg">
<circle cx="24" cy="24" r="24" fill="#4B4848"/>
<path d="M16.1628 36L19.646 29.9894L23.1292 24L26.5911 17.9894L27.1646 17.037L27.4195 17.9894L28.4814 21.9471L27.292 24L23.8088 29.9894L20.3469 36H24.5097L27.9929 29.9894L29.7982 26.8783L30.6478 29.9894L32.2619 36H36L34.3858 29.9894L32.7717 24L32.3469 22.455L34.9381 17.9894H31.1575L31.0301 17.545L29.7133 12.6349L29.5434 12H25.9115L25.8265 12.127L22.4283 17.9894L18.9451 24L15.4832 29.9894L12 36H16.1628Z" fill="white"/>
</svg>
