<svg width="48" height="48" viewBox="0 0 48 48" fill="none" xmlns="http://www.w3.org/2000/svg">
<path d="M24 48C37.2548 48 48 37.2548 48 24C48 10.7452 37.2548 0 24 0C10.7452 0 0 10.7452 0 24C0 37.2548 10.7452 48 24 48Z" fill="#F3BA2F"/>
<path d="M33.1066 18.2247C32.9536 18.4085 32.8324 18.5788 32.6871 18.7251C31.8856 19.5334 31.0542 20.3147 30.2815 21.1509C29.8831 21.582 29.6455 21.5165 29.2673 21.1288C27.7018 19.5247 26.0881 17.9659 24.5293 16.3542C24.0799 15.8894 23.8192 15.8759 23.3611 16.3503C21.8302 17.939 20.2348 19.4651 18.701 21.0508C18.2623 21.505 17.9967 21.5983 17.5329 21.0768C16.8016 20.2531 16.0049 19.4843 15.1976 18.7338C14.7809 18.346 14.8155 18.0968 15.2062 17.71C17.962 14.9801 20.6996 12.231 23.4372 9.48383C23.7403 9.17976 23.9616 8.98251 24.3773 9.403C27.1523 12.2137 29.9544 14.9984 32.7458 17.7937C32.869 17.9168 32.971 18.0612 33.1066 18.2247Z" fill="#FEFDFB"/>
<path d="M33.1079 29.7993C32.9347 30.0033 32.7894 30.2005 32.6182 30.3728C29.9037 33.094 27.1767 35.8026 24.4796 38.5412C24.0341 38.9934 23.7839 38.9135 23.3827 38.5065C20.6797 35.7738 17.9605 33.0574 15.2325 30.3497C14.8746 29.9946 14.7168 29.7454 15.17 29.3259C16.0312 28.5291 16.8645 27.6978 17.6641 26.8394C18.0529 26.4218 18.2732 26.5652 18.5975 26.8943C20.1197 28.4416 21.7007 29.934 23.1796 31.5217C23.8118 32.2 24.1534 32.1067 24.7375 31.488C26.203 29.9359 27.7599 28.4704 29.2417 26.9337C29.6718 26.4882 29.9258 26.4988 30.3338 26.9414C31.0805 27.7526 31.8869 28.508 32.6644 29.2912C32.8116 29.4404 32.9415 29.6078 33.1079 29.7993Z" fill="#FEFDFB"/>
<path d="M27.2586 23.9234C27.2691 24.2255 27.07 24.3439 26.9275 24.4882C26.1048 25.3225 25.2552 26.1307 24.4527 26.9842C24.0678 27.3941 23.8061 27.3759 23.4298 26.9765C22.6254 26.125 21.795 25.2965 20.9453 24.4901C20.571 24.1351 20.5884 23.8926 20.9521 23.5452C21.8258 22.7119 22.6783 21.8575 23.5145 20.9866C23.8388 20.6489 24.063 20.6653 24.3796 20.9934C25.2167 21.8623 26.0827 22.7042 26.9352 23.5596C27.0594 23.6847 27.1691 23.8223 27.2586 23.9234Z" fill="#FEFDFB"/>
<path d="M12.3336 27.3535C12.1585 27.2082 11.9892 27.0889 11.8439 26.9455C11.0125 26.1219 10.2032 25.2751 9.35264 24.4726C8.96197 24.1041 9.03991 23.8645 9.38439 23.5344C10.2042 22.7502 11.0106 21.9506 11.7919 21.1279C12.1518 20.7488 12.4058 20.6564 12.8099 21.0932C13.6047 21.9506 14.4477 22.7656 15.2877 23.5797C15.585 23.8683 15.7034 24.0723 15.3329 24.4216C14.4554 25.2482 13.6211 26.1199 12.7676 26.9706C12.6444 27.0928 12.5068 27.2005 12.3336 27.3535Z" fill="#FEFDFB"/>
<path d="M38.896 24.0173C38.7748 24.1683 38.6766 24.3146 38.5544 24.4378C37.7058 25.2941 36.8407 26.1351 36.0045 27.0031C35.687 27.3322 35.4647 27.3408 35.1424 27.004C34.3081 26.1332 33.4546 25.2807 32.5838 24.4474C32.2576 24.1356 32.2297 23.9326 32.5732 23.6064C33.4469 22.776 34.2966 21.9196 35.1327 21.0507C35.4426 20.7293 35.6629 20.6831 35.9939 21.0295C36.8272 21.9004 37.6942 22.7394 38.5448 23.5948C38.668 23.717 38.769 23.8623 38.896 24.0173Z" fill="#FEFDFB"/>
</svg>
