<svg width="48" height="48" viewBox="0 0 48 48" fill="none" xmlns="http://www.w3.org/2000/svg">
<path d="M24 48C37.2548 48 48 37.2548 48 24C48 10.7452 37.2548 0 24 0C10.7452 0 0 10.7452 0 24C0 37.2548 10.7452 48 24 48Z" fill="black"/>
<path fill-rule="evenodd" clip-rule="evenodd" d="M40.0272 12.9814C39.9418 12.691 39.777 12.5664 39.4758 12.5664L31.2058 12.5666C25.6923 12.5668 20.1786 12.5671 14.6645 12.5664C14.3486 12.5664 14.0828 12.6763 13.8601 12.899C12.2404 14.5206 10.6207 16.1423 8.99905 17.762C8.9088 17.8522 8.85876 17.9582 8.81854 18.0729V18.2132C8.82038 18.2166 8.8225 18.22 8.82463 18.2233L8.82463 18.2234C8.82936 18.2308 8.83417 18.2385 8.8362 18.2466C8.90684 18.5134 9.08244 18.6469 9.364 18.6469C12.079 18.6469 14.794 18.6471 17.509 18.6473C20.224 18.6476 22.939 18.6478 25.6541 18.6478L27.3647 18.6478C29.6434 18.6476 31.9221 18.6474 34.2008 18.6498C34.5187 18.6498 34.7806 18.5399 35.0033 18.3162C36.6083 16.7093 38.2142 15.1024 39.8221 13.4984C39.9222 13.3983 39.9977 13.2894 40.0399 13.156V13L40.0374 12.997L40.0374 12.997C40.0331 12.9921 40.0288 12.9871 40.0272 12.9814ZM39.7307 26.7687L39.2594 26.2977C37.8468 24.886 36.4338 23.474 35.0247 22.0588C34.7795 21.8125 34.4979 21.6997 34.1526 21.6997C28.659 21.7017 23.1651 21.7019 17.6712 21.7021H17.6712C14.9249 21.7022 12.1786 21.7023 9.4325 21.7027C9.07148 21.7027 8.93904 21.7968 8.82524 22.1363C8.82391 22.1396 8.82169 22.142 8.81918 22.1447L8.81543 22.149V22.2736C8.85304 22.4503 8.97333 22.5685 9.09353 22.6866L9.09366 22.6867C9.10823 22.7011 9.12279 22.7154 9.13721 22.7298C10.7069 24.2985 12.2765 25.8671 13.8432 27.4388C14.0747 27.6713 14.3436 27.7821 14.6732 27.7821C22.9252 27.7802 31.1783 27.7811 39.4304 27.7821H39.4374C39.4497 27.7821 39.4621 27.7823 39.4746 27.7824C39.5248 27.7831 39.5759 27.7837 39.6238 27.7743C39.8288 27.7321 39.9564 27.6026 40.0162 27.4044C40.0204 27.3906 40.0255 27.3772 40.0306 27.364C40.0327 27.3585 40.0348 27.353 40.0368 27.3475V27.2072C40.0003 27.0352 39.8836 26.9199 39.7661 26.8038L39.7307 26.7687ZM31.7207 30.958C34.3143 30.9578 36.908 30.9575 39.5013 30.9575C39.775 30.9575 39.9526 31.0949 40.0222 31.3578C40.0243 31.3659 40.0291 31.3735 40.0338 31.381C40.0359 31.3844 40.0381 31.3878 40.0399 31.3911V31.5314C39.9987 31.6747 39.9153 31.7875 39.8103 31.8924C38.2122 33.4876 36.6151 35.0828 35.0209 36.6828C34.7796 36.9251 34.501 37.038 34.1625 37.038C25.9916 37.036 17.8206 37.036 9.64971 37.036H9.62591C9.59811 37.036 9.57032 37.0359 9.54252 37.0358C9.48693 37.0356 9.43134 37.0353 9.37574 37.036C9.05102 37.038 8.86659 36.8329 8.83519 36.6083C8.83392 36.6006 8.82932 36.5934 8.82464 36.586C8.82213 36.582 8.81959 36.578 8.81754 36.5739V36.4807C8.85481 36.3306 8.9382 36.2129 9.04808 36.103C10.655 34.499 12.26 32.8921 13.864 31.2842C14.0808 31.0664 14.3368 30.9585 14.6459 30.9585C16.7113 30.9592 18.7767 30.9589 20.8421 30.9587C21.8748 30.9586 22.9075 30.9585 23.9402 30.9585C26.5335 30.9585 29.1271 30.9583 31.7207 30.958Z" fill="url(#paint0_linear_6163_37149)"/>
<defs>
<linearGradient id="paint0_linear_6163_37149" x1="36.0039" y1="12.5586" x2="12.066" y2="37.0845" gradientUnits="userSpaceOnUse">
<stop stop-color="#0BF3A8"/>
<stop offset="1" stop-color="#D724FD"/>
</linearGradient>
</defs>
</svg>
