<svg width="20" height="15" viewBox="0 0 20 15" fill="none" xmlns="http://www.w3.org/2000/svg">
<path d="M5.00003 7.93789C5.00107 8.02026 4.98563 8.102 4.95459 8.1783C4.92355 8.25461 4.87755 8.32392 4.81931 8.38217C4.76106 8.44042 4.69174 8.48641 4.61544 8.51745C4.53914 8.54849 4.45739 8.56394 4.37503 8.56289H0.937525C0.821415 8.56195 0.707744 8.52947 0.608666 8.46892C0.509589 8.40837 0.42883 8.32204 0.375025 8.21914C0.324992 8.11436 0.304377 7.99795 0.315386 7.88236C0.326395 7.76677 0.368612 7.65634 0.437525 7.56289C0.99064 6.82041 1.72871 6.23589 2.57815 5.86758C2.21315 5.53346 1.9327 5.11743 1.75991 4.65374C1.58711 4.19005 1.5269 3.69196 1.58423 3.20045C1.64156 2.70894 1.81479 2.23808 2.08967 1.8266C2.36455 1.41513 2.73321 1.07482 3.16531 0.833676C3.59742 0.592531 4.08061 0.457449 4.57513 0.439546C5.06964 0.421643 5.56134 0.521433 6.00975 0.730701C6.45817 0.939969 6.85047 1.25273 7.15438 1.64325C7.45829 2.03377 7.66512 2.49088 7.75784 2.97695C7.78095 3.10355 7.76492 3.23418 7.71188 3.35143C7.65884 3.46868 7.57131 3.56698 7.46096 3.6332C6.45052 4.23238 5.68202 5.16674 5.28909 6.27383C5.09539 6.80714 4.99753 7.3705 5.00003 7.93789ZM19.5625 7.56289C19.0094 6.82041 18.2713 6.23589 17.4219 5.86758C17.7869 5.53346 18.0674 5.11743 18.2401 4.65374C18.4129 4.19005 18.4732 3.69196 18.4158 3.20045C18.3585 2.70894 18.1853 2.23808 17.9104 1.8266C17.6355 1.41513 17.2668 1.07482 16.8347 0.833676C16.4026 0.592531 15.9194 0.457449 15.4249 0.439546C14.9304 0.421643 14.4387 0.521433 13.9903 0.730701C13.5419 0.939969 13.1496 1.25273 12.8457 1.64325C12.5418 2.03377 12.3349 2.49088 12.2422 2.97695C12.2191 3.10355 12.2351 3.23418 12.2882 3.35143C12.3412 3.46868 12.4287 3.56698 12.5391 3.6332C13.5509 4.23085 14.3198 5.16575 14.711 6.27383C14.9047 6.80714 15.0025 7.3705 15 7.93789C14.999 8.02026 15.0144 8.102 15.0455 8.1783C15.0765 8.25461 15.1225 8.32392 15.1807 8.38217C15.239 8.44042 15.3083 8.48641 15.3846 8.51745C15.4609 8.54849 15.5427 8.56394 15.625 8.56289H19.0625C19.1786 8.56289 19.2924 8.53057 19.3911 8.46955C19.4898 8.40852 19.5696 8.32121 19.6215 8.2174C19.6735 8.11358 19.6954 7.99736 19.685 7.88176C19.6746 7.76616 19.6322 7.65575 19.5625 7.56289ZM12.2813 10.9145C12.9033 10.4377 13.3603 9.77804 13.5881 9.02817C13.8159 8.27829 13.8031 7.47589 13.5513 6.73371C13.2996 5.99152 12.8217 5.34684 12.1847 4.89026C11.5478 4.43368 10.7837 4.18814 10 4.18814C9.21632 4.18814 8.4523 4.43368 7.81532 4.89026C7.17835 5.34684 6.70043 5.99152 6.44871 6.73371C6.197 7.47589 6.18414 8.27829 6.41194 9.02817C6.63974 9.77804 7.09676 10.4377 7.71878 10.9145C6.50356 11.454 5.51837 12.4059 4.93753 13.602C4.89131 13.697 4.87061 13.8024 4.87746 13.9079C4.88431 14.0134 4.91847 14.1152 4.97659 14.2035C5.03068 14.2941 5.10735 14.369 5.19911 14.4211C5.29086 14.4731 5.39455 14.5004 5.50003 14.5004H14.5C14.6055 14.5004 14.7092 14.4731 14.8009 14.4211C14.8927 14.369 14.9694 14.2941 15.0235 14.2035C15.0816 14.1152 15.1157 14.0134 15.1226 13.9079C15.1294 13.8024 15.1087 13.697 15.0625 13.602C14.4817 12.4059 13.4965 11.454 12.2813 10.9145Z" fill="#7171FF"/>
</svg>
