<svg width="201" height="219" viewBox="0 0 201 219" fill="none" xmlns="http://www.w3.org/2000/svg">
<circle cx="185.98" cy="166.118" r="38.2154" transform="rotate(-149.834 185.98 166.118)" fill="#7171FF"/>
<circle cx="48.0884" cy="74.0889" r="35.1763" transform="rotate(-149.834 48.0884 74.0889)" fill="#7171FF"/>
<circle cx="74.1691" cy="133.965" r="12.0105" transform="rotate(-149.834 74.1691 133.965)" fill="#F7931A"/>
<circle cx="174.419" cy="42.4185" r="12.0105" transform="rotate(-149.834 174.419 42.4185)" fill="#7171FF"/>
<circle cx="168.268" cy="16.2677" r="5.31602" transform="rotate(-149.834 168.268 16.2677)" fill="#F7931A"/>
<ellipse cx="144.388" cy="94.5184" rx="26.3023" ry="26.3031" transform="rotate(-149.834 144.388 94.5184)" fill="#F7931A"/>
<rect width="22.2139" height="22.2139" rx="5" transform="matrix(-0.270839 -0.962625 0.970494 -0.241127 136.126 107.956)" fill="white"/>
<path d="M131.946 173.024C97.2608 170.841 90.5737 132.383 116.796 115.819" stroke="#C8C9CB" stroke-width="4" stroke-dasharray="10 10"/>
<path d="M142.956 173.728C143.582 174.176 143.489 175.134 142.789 175.452L126.485 182.866C125.785 183.184 125.002 182.625 125.076 181.859L126.808 164.033C126.882 163.267 127.758 162.868 128.384 163.316L142.956 173.728Z" fill="#C8C9CB"/>
<path d="M85.3922 30.1048C110.168 5.73274 143.269 26.4205 138.103 57.0029" stroke="#C8C9CB" stroke-width="4" stroke-dasharray="10 10"/>
<path d="M77.5201 37.8345C76.7688 38.0022 76.1177 37.2937 76.3481 36.5592L81.7088 19.4707C81.9392 18.7362 82.8784 18.5266 83.3993 19.0934L95.518 32.2802C96.0388 32.847 95.7508 33.7651 94.9995 33.9328L77.5201 37.8345Z" fill="#C8C9CB"/>
<path d="M194.926 83.1954C228.994 76.327 245.406 111.743 224.365 134.53" stroke="#C8C9CB" stroke-width="4" stroke-dasharray="4 4"/>
<path d="M184.109 85.366C183.388 85.0958 183.23 84.1466 183.825 83.6575L197.654 72.2772C198.248 71.788 199.149 72.1258 199.276 72.8851L202.217 90.5516C202.343 91.311 201.6 91.9224 200.879 91.6522L184.109 85.366Z" fill="#C8C9CB"/>
<path d="M45.4019 56.5C46.5566 54.5 49.4434 54.5 50.5981 56.5L66.1865 83.5C67.3412 85.5 65.8979 88 63.5885 88H32.4115C30.1021 88 28.6588 85.5 29.8135 83.5L45.4019 56.5Z" fill="white"/>
<rect x="172.061" y="142" width="38.6914" height="38.6914" rx="19.3457" transform="rotate(15.071 172.061 142)" fill="#F7F7F9"/>
</svg>
