<svg width="20" height="16" viewBox="0 0 20 16" fill="none" xmlns="http://www.w3.org/2000/svg">
<path d="M19.32 11.2659L16.6658 2.41852C16.6127 2.24018 16.5203 2.07601 16.3954 1.93805C16.2705 1.80009 16.1163 1.69184 15.9442 1.62125L15.9022 1.63399L15.9451 1.619C15.0739 1.26381 14.1703 0.994126 13.247 0.813756C13.1665 0.797751 13.0836 0.797758 13.0031 0.813778C12.9226 0.829799 12.8461 0.861518 12.7778 0.907124C12.7096 0.952731 12.651 1.01133 12.6054 1.07958C12.5598 1.14783 12.5281 1.2244 12.5121 1.3049C12.4961 1.3854 12.4961 1.46827 12.5121 1.54877C12.5282 1.62927 12.5599 1.70583 12.6055 1.77407C12.6511 1.84231 12.7097 1.9009 12.7779 1.9465C12.8462 1.99209 12.9228 2.02379 13.0033 2.0398C13.3536 2.10946 13.6969 2.19142 14.0333 2.2857C14.165 2.35074 14.2696 2.46022 14.3284 2.59482C14.3873 2.72943 14.3967 2.8805 14.355 3.02137C14.3133 3.16225 14.2233 3.28387 14.1006 3.36478C13.978 3.4457 13.8307 3.48069 13.6848 3.4636C11.2956 2.84979 8.79051 2.84486 6.39884 3.44925C6.25023 3.4858 6.09339 3.46651 5.95806 3.39506C5.82274 3.32361 5.71835 3.20496 5.66472 3.06164C5.61108 2.91832 5.61193 2.76029 5.6671 2.61755C5.72226 2.47481 5.82792 2.35729 5.964 2.2873L5.96667 2.28821C6.30282 2.19407 6.64659 2.11199 6.99797 2.04197C7.16053 2.00963 7.30359 1.91404 7.39568 1.77622C7.48777 1.63841 7.52134 1.46966 7.48902 1.30709C7.4567 1.14452 7.36113 1.00145 7.22333 0.909343C7.08553 0.817235 6.91679 0.783634 6.75421 0.81593C5.83089 0.996318 4.92728 1.266 4.05611 1.62117C3.88394 1.69178 3.72975 1.80003 3.60486 1.93799C3.47997 2.07594 3.38755 2.24011 3.33437 2.41845L0.680183 11.2659C0.611617 11.4974 0.611157 11.7437 0.678858 11.9754C0.74656 12.2071 0.879558 12.4145 1.06196 12.5726C1.13654 12.6375 1.21298 12.7012 1.2905 12.7642C1.29233 12.7657 1.29389 12.7674 1.29572 12.7689C2.56373 13.7975 4.22568 14.5833 6.10186 15.0413C6.26289 15.0806 6.43293 15.0543 6.5746 14.9683C6.71626 14.8822 6.81793 14.7434 6.85725 14.5824C6.89656 14.4213 6.8703 14.2513 6.78424 14.1096C6.69818 13.968 6.55936 13.8663 6.39834 13.827C5.55456 13.6242 4.73409 13.3344 3.95007 12.9624L3.95522 12.9628C3.84528 12.8631 3.77441 12.7276 3.75529 12.5804C3.73617 12.4333 3.77005 12.2841 3.85087 12.1596C3.93169 12.0352 4.05417 11.9436 4.19638 11.9012C4.33859 11.8588 4.49125 11.8684 4.62702 11.9283C6.11026 12.5889 7.97377 12.9996 10.0001 12.9996C12.0264 12.9996 13.8912 12.5884 15.3745 11.9278C15.5103 11.8682 15.6628 11.8589 15.8048 11.9015C15.9468 11.9441 16.0691 12.0358 16.1497 12.1603C16.2303 12.2847 16.264 12.4338 16.2449 12.5808C16.2257 12.7278 16.1548 12.8632 16.045 12.9628L16.0501 12.9624C15.2661 13.3344 14.4456 13.6242 13.6019 13.827C13.4408 13.8663 13.302 13.968 13.216 14.1096C13.1299 14.2513 13.1036 14.4213 13.143 14.5824C13.1823 14.7434 13.2839 14.8822 13.4256 14.9683C13.5673 15.0543 13.7373 15.0806 13.8983 15.0413C15.7745 14.5833 17.4365 13.7975 18.7045 12.7689C18.7064 12.7673 18.708 12.7656 18.7099 12.764H18.7099C18.7873 12.701 18.8638 12.6374 18.9383 12.5726C19.1207 12.4144 19.2537 12.2071 19.3213 11.9754C19.389 11.7436 19.3886 11.4973 19.32 11.2659ZM7.5001 10.1871C7.31468 10.1871 7.13342 10.1321 6.97925 10.0291C6.82508 9.92606 6.70492 9.77965 6.63396 9.60834C6.563 9.43703 6.54444 9.24854 6.58061 9.06668C6.61679 8.88482 6.70607 8.71777 6.83719 8.58666C6.9683 8.45555 7.13534 8.36626 7.3172 8.33009C7.49906 8.29392 7.68756 8.31248 7.85886 8.38344C8.03017 8.4544 8.17659 8.57456 8.2796 8.72873C8.38262 8.8829 8.4376 9.06416 8.4376 9.24958C8.4376 9.49822 8.33883 9.73667 8.16301 9.91249C7.9872 10.0883 7.74874 10.1871 7.5001 10.1871ZM12.5001 10.1871C12.3147 10.1871 12.1334 10.1321 11.9793 10.0291C11.8251 9.92606 11.7049 9.77965 11.634 9.60834C11.563 9.43703 11.5444 9.24854 11.5806 9.06668C11.6168 8.88482 11.7061 8.71777 11.8372 8.58666C11.9683 8.45555 12.1353 8.36626 12.3172 8.33009C12.4991 8.29392 12.6876 8.31248 12.8589 8.38344C13.0302 8.4544 13.1766 8.57456 13.2796 8.72873C13.3826 8.8829 13.4376 9.06416 13.4376 9.24958C13.4376 9.49822 13.3388 9.73667 13.163 9.91249C12.9872 10.0883 12.7487 10.1871 12.5001 10.1871Z" fill="#556174"/>
</svg>
