<svg width="24" height="18" viewBox="0 0 24 18" fill="none" xmlns="http://www.w3.org/2000/svg">
<path d="M23.1838 12.9192L19.9988 2.30242C19.935 2.08842 19.8241 1.89141 19.6743 1.72585C19.5244 1.5603 19.3394 1.4304 19.1328 1.3457L19.0824 1.36099L19.1339 1.343C18.0885 0.916765 17.0042 0.593146 15.8962 0.376703C15.7996 0.357496 15.7002 0.357505 15.6036 0.376729C15.507 0.395954 15.4151 0.434016 15.3332 0.488745C15.2513 0.543473 15.181 0.613794 15.1263 0.695694C15.0716 0.777595 15.0336 0.869469 15.0143 0.966073C14.9951 1.06268 14.9951 1.16212 15.0144 1.25872C15.0336 1.35532 15.0717 1.44719 15.1264 1.52908C15.1811 1.61097 15.2514 1.68128 15.3333 1.73599C15.4152 1.7907 15.5071 1.82875 15.6037 1.84796C16.0241 1.93154 16.4361 2.0299 16.8398 2.14303C16.9978 2.22108 17.1233 2.35246 17.1939 2.51398C17.2645 2.67551 17.2758 2.85679 17.2258 3.02584C17.1758 3.19489 17.0677 3.34084 16.9206 3.43794C16.7734 3.53503 16.5967 3.57703 16.4216 3.55651C13.5545 2.81994 10.5484 2.81403 7.67841 3.5393C7.50008 3.58315 7.31187 3.56001 7.14948 3.47427C6.98709 3.38852 6.86183 3.24615 6.79746 3.07416C6.7331 2.90218 6.73412 2.71254 6.80032 2.54126C6.86652 2.36997 6.9933 2.22895 7.1566 2.14495L7.15981 2.14605C7.56319 2.03307 7.97571 1.93458 8.39737 1.85056C8.59245 1.81175 8.76412 1.69704 8.87462 1.53166C8.98513 1.36628 9.02542 1.16379 8.98663 0.968705C8.94785 0.773624 8.83316 0.601937 8.6678 0.491407C8.50244 0.380877 8.29995 0.340556 8.10486 0.379312C6.99687 0.595777 5.91254 0.919395 4.86714 1.34561C4.66053 1.43033 4.4755 1.56023 4.32563 1.72578C4.17577 1.89133 4.06486 2.08833 4.00105 2.30233L0.816025 12.9192C0.733745 13.197 0.733193 13.4926 0.814434 13.7707C0.895676 14.0488 1.05527 14.2976 1.27415 14.4874C1.36365 14.5652 1.45538 14.6416 1.5484 14.7172C1.5506 14.719 1.55248 14.721 1.55467 14.7228C3.07628 15.9571 5.07062 16.9001 7.32204 17.4497C7.51527 17.4969 7.71933 17.4654 7.88932 17.3621C8.05932 17.2588 8.18132 17.0923 8.2285 16.899C8.27568 16.7058 8.24417 16.5017 8.14089 16.3318C8.03762 16.1618 7.87104 16.0398 7.67781 15.9926C6.66528 15.7492 5.68071 15.4015 4.73988 14.9551L4.74606 14.9556C4.61414 14.8359 4.52909 14.6733 4.50615 14.4967C4.48321 14.3201 4.52387 14.1411 4.62085 13.9918C4.71783 13.8424 4.86481 13.7325 5.03546 13.6816C5.20611 13.6307 5.3893 13.6422 5.55223 13.7141C7.33211 14.5069 9.56833 14.9997 11.9999 14.9997C14.4315 14.9997 16.6693 14.5063 18.4492 13.7135C18.6121 13.6421 18.7952 13.6309 18.9656 13.682C19.136 13.7331 19.2827 13.8432 19.3794 13.9925C19.4762 14.1418 19.5167 14.3207 19.4936 14.4971C19.4706 14.6736 19.3856 14.8361 19.2538 14.9556L19.26 14.9551C18.3191 15.4015 17.3346 15.7492 16.322 15.9926C16.1288 16.0398 15.9622 16.1618 15.859 16.3318C15.7557 16.5017 15.7242 16.7058 15.7713 16.899C15.8185 17.0923 15.9405 17.2588 16.1105 17.3621C16.2805 17.4654 16.4846 17.4969 16.6778 17.4497C18.9292 16.9001 20.9236 15.9571 22.4452 14.7228C22.4475 14.721 22.4494 14.7189 22.4516 14.717H22.4517C22.5446 14.6414 22.6363 14.565 22.7258 14.4873C22.9446 14.2975 23.1042 14.0487 23.1854 13.7706C23.2666 13.4926 23.2661 13.197 23.1838 12.9192ZM8.99992 11.6247C8.77742 11.6247 8.55991 11.5587 8.37491 11.4351C8.1899 11.3115 8.04571 11.1358 7.96056 10.9302C7.87541 10.7246 7.85313 10.4984 7.89654 10.2802C7.93995 10.062 8.04709 9.86153 8.20443 9.70419C8.36176 9.54686 8.56222 9.43971 8.78045 9.3963C8.99868 9.35289 9.22488 9.37517 9.43044 9.46032C9.63601 9.54547 9.81171 9.68966 9.93533 9.87467C10.0589 10.0597 10.1249 10.2772 10.1249 10.4997C10.1249 10.7981 10.0064 11.0842 9.79542 11.2952C9.58444 11.5062 9.29829 11.6247 8.99992 11.6247ZM14.9999 11.6247C14.7774 11.6247 14.5599 11.5587 14.3749 11.4351C14.1899 11.3115 14.0457 11.1358 13.9606 10.9302C13.8754 10.7246 13.8531 10.4984 13.8965 10.2802C13.9399 10.062 14.0471 9.86153 14.2044 9.70419C14.3618 9.54686 14.5622 9.43971 14.7804 9.3963C14.9987 9.35289 15.2249 9.37517 15.4304 9.46032C15.636 9.54547 15.8117 9.68966 15.9353 9.87467C16.0589 10.0597 16.1249 10.2772 16.1249 10.4997C16.1249 10.7981 16.0064 11.0842 15.7954 11.2952C15.5844 11.5062 15.2983 11.6247 14.9999 11.6247Z" fill="#7171FF"/>
</svg>
