<svg width="20" height="20" viewBox="0 0 20 20" fill="none" xmlns="http://www.w3.org/2000/svg">
<path d="M18.0666 2.47898C17.8944 2.33027 17.6848 2.23151 17.4605 2.1934C17.2361 2.15529 17.0057 2.17927 16.794 2.26276L2.37545 7.92721C2.12413 8.02594 1.91154 8.2034 1.76949 8.43303C1.62743 8.66266 1.56355 8.93211 1.58741 9.20107C1.61126 9.47003 1.72157 9.72404 1.90182 9.92508C2.08208 10.1261 2.32258 10.2634 2.58736 10.3164L6.24977 11.0489V15.6234C6.24956 15.8707 6.32275 16.1125 6.46006 16.3182C6.59738 16.5239 6.79265 16.6842 7.02114 16.7789C7.24963 16.8735 7.50107 16.8982 7.74362 16.8499C7.98617 16.8015 8.20891 16.6823 8.38364 16.5072L10.4105 14.4804L13.4867 17.1875C13.7132 17.3887 14.0055 17.4999 14.3084 17.5003C14.44 17.5001 14.5709 17.4794 14.6961 17.4388C14.9027 17.3732 15.0885 17.2547 15.235 17.095C15.3814 16.9352 15.4835 16.7398 15.5309 16.5284L18.4694 3.70548C18.5206 3.48375 18.5101 3.25225 18.4391 3.03605C18.3681 2.81985 18.2393 2.6272 18.0666 2.47898ZM14.3124 16.2491L7.87556 10.5846L17.1447 3.8903L14.3124 16.2491Z" fill="#556174"/>
</svg>
