<svg width="22" height="18" viewBox="0 0 22 18" fill="none" xmlns="http://www.w3.org/2000/svg">
<path d="M20.9685 3.5436C20.8796 3.19865 20.7099 2.87979 20.4734 2.61334C20.237 2.34688 19.9406 2.14048 19.6087 2.01115C16.3959 0.776558 11.2793 0.786857 11 0.788321C10.7208 0.786079 5.6042 0.776509 2.39139 2.01115C2.05947 2.14047 1.76307 2.34687 1.52663 2.6133C1.2902 2.87974 1.1205 3.19858 1.03155 3.54351C0.789031 4.47451 0.5 6.17689 0.5 9.0001C0.5 11.8233 0.789031 13.5256 1.03151 14.4566C1.12044 14.8015 1.29013 15.1204 1.52657 15.3869C1.763 15.6533 2.05942 15.8597 2.39134 15.9891C5.46692 17.171 10.2871 17.2121 10.9382 17.2121C10.9964 17.2121 11.0036 17.2121 11.0618 17.2121C11.7134 17.212 16.5332 17.1709 19.6086 15.9891C19.9405 15.8597 20.2369 15.6533 20.4734 15.3869C20.7098 15.1205 20.8795 14.8016 20.9684 14.4567C21.211 13.5257 21.5 11.8233 21.5 9.0001C21.5 6.17693 21.211 4.47456 20.9685 3.5436ZM14.208 9.31211L9.70801 12.3121C9.65154 12.3498 9.5859 12.3714 9.5181 12.3747C9.4503 12.378 9.38289 12.3628 9.32304 12.3307C9.26319 12.2987 9.21316 12.251 9.17829 12.1928C9.14341 12.1346 9.12499 12.068 9.125 12.0001V6.0001C9.12499 5.93222 9.14341 5.86561 9.17829 5.80738C9.21316 5.74915 9.26319 5.70148 9.32304 5.66945C9.38288 5.63742 9.4503 5.62224 9.5181 5.62552C9.5859 5.6288 9.65154 5.65043 9.70801 5.68809L14.208 8.68809C14.2594 8.72233 14.3015 8.76872 14.3306 8.82315C14.3598 8.87758 14.375 8.93836 14.375 9.0001C14.375 9.06183 14.3598 9.12261 14.3306 9.17704C14.3015 9.23147 14.2594 9.27787 14.208 9.31211Z" fill="#7171FF"/>
</svg>
