<svg width="18" height="14" viewBox="0 0 18 14" fill="none" xmlns="http://www.w3.org/2000/svg">
<path d="M17.3071 2.45251C17.233 2.16505 17.0916 1.89934 16.8945 1.67729C16.6975 1.45525 16.4505 1.28324 16.1739 1.17547C13.4966 0.146643 9.23277 0.155226 9 0.156446C8.76734 0.154577 4.5035 0.146602 1.82616 1.17547C1.54956 1.28324 1.30256 1.45523 1.10553 1.67726C0.908497 1.89929 0.767085 2.16499 0.692962 2.45244C0.490859 3.22827 0.25 4.64692 0.25 6.99959C0.25 9.35223 0.490859 10.7709 0.692924 11.5467C0.767034 11.8341 0.908439 12.0999 1.10547 12.3219C1.3025 12.5439 1.54951 12.7159 1.82612 12.8237C4.3891 13.8086 8.40594 13.8429 8.94854 13.8429C8.99702 13.8429 9.00298 13.8429 9.05146 13.8429C9.59448 13.8429 13.611 13.8086 16.1738 12.8237C16.4504 12.716 16.6974 12.544 16.8945 12.3219C17.0915 12.0999 17.2329 11.8342 17.307 11.5468C17.5091 10.7709 17.75 9.35227 17.75 6.99959C17.75 4.64696 17.5091 3.22831 17.3071 2.45251ZM11.6733 7.2596L7.92334 9.7596C7.87628 9.79099 7.82158 9.80901 7.76508 9.81174C7.70859 9.81448 7.6524 9.80182 7.60253 9.77514C7.55266 9.74844 7.51097 9.70872 7.4819 9.66019C7.45284 9.61167 7.43749 9.55616 7.4375 9.49959V4.49959C7.43749 4.44303 7.45284 4.38752 7.4819 4.339C7.51097 4.29047 7.55266 4.25074 7.60253 4.22405C7.6524 4.19736 7.70859 4.18471 7.76508 4.18745C7.82158 4.19018 7.87628 4.2082 7.92334 4.23958L11.6733 6.73958C11.7161 6.76812 11.7512 6.80678 11.7755 6.85214C11.7998 6.8975 11.8125 6.94815 11.8125 6.99959C11.8125 7.05104 11.7998 7.10169 11.7755 7.14705C11.7512 7.19241 11.7161 7.23107 11.6733 7.2596Z" fill="#556174"/>
</svg>
