<svg width="160" height="58" viewBox="0 0 160 58" fill="none" xmlns="http://www.w3.org/2000/svg">
<rect width="160" height="58" rx="4" fill="#E1E1FF"/>
<path d="M41.3868 29.6069C41.4123 27.6317 42.473 25.7628 44.1558 24.7283C43.0942 23.2121 41.3161 22.2509 39.4662 22.193C37.4931 21.9859 35.5802 23.3737 34.5748 23.3737C33.5499 23.3737 32.0018 22.2135 30.3348 22.2478C28.1619 22.318 26.1363 23.5534 25.0791 25.4531C22.8067 29.3875 24.5017 35.1697 26.6785 38.35C27.7676 39.9073 29.0405 41.6468 30.706 41.5851C32.3358 41.5175 32.9445 40.5458 34.9118 40.5458C36.8608 40.5458 37.4319 41.5851 39.1312 41.5459C40.8801 41.5175 41.9819 39.9817 43.0328 38.4096C43.8153 37.3 44.4175 36.0736 44.8169 34.7759C42.7617 33.9067 41.3892 31.8384 41.3868 29.6069Z" fill="#7171FF"/>
<path d="M38.1771 20.1015C39.1307 18.9568 39.6005 17.4855 39.4867 16C38.0299 16.153 36.6842 16.8493 35.7178 17.95C34.7728 19.0256 34.281 20.471 34.3739 21.8997C35.8313 21.9147 37.2639 21.2373 38.1771 20.1015Z" fill="#7171FF"/>
<path d="M61.539 27.862H63.8L68.475 40H66.197L65.058 36.787H60.213L59.074 40H56.881L61.539 27.862ZM60.791 35.172H64.497L62.678 29.953H62.627L60.791 35.172ZM69.4099 31.211H71.2459V32.401H71.2799C71.5519 31.891 71.9315 31.5283 72.4189 31.313C72.9062 31.0863 73.4332 30.973 73.9999 30.973C74.6912 30.973 75.2919 31.0977 75.8019 31.347C76.3232 31.585 76.7539 31.9193 77.0939 32.35C77.4339 32.7693 77.6889 33.2623 77.8589 33.829C78.0289 34.3957 78.1139 35.002 78.1139 35.648C78.1139 36.2373 78.0345 36.8097 77.8759 37.365C77.7285 37.9203 77.4962 38.4133 77.1789 38.844C76.8729 39.2633 76.4819 39.6033 76.0059 39.864C75.5299 40.1133 74.9689 40.238 74.3229 40.238C74.0395 40.238 73.7562 40.2097 73.4729 40.153C73.1895 40.1077 72.9175 40.0283 72.6569 39.915C72.3962 39.8017 72.1525 39.66 71.9259 39.49C71.7105 39.3087 71.5292 39.099 71.3819 38.861H71.3479V43.247H69.4099V31.211ZM76.1759 35.614C76.1759 35.2173 76.1249 34.832 76.0229 34.458C75.9209 34.084 75.7679 33.7553 75.5639 33.472C75.3599 33.1773 75.1049 32.945 74.7989 32.775C74.4929 32.5937 74.1415 32.503 73.7449 32.503C72.9289 32.503 72.3112 32.7863 71.8919 33.353C71.4839 33.9197 71.2799 34.6733 71.2799 35.614C71.2799 36.056 71.3309 36.4697 71.4329 36.855C71.5462 37.229 71.7105 37.552 71.9259 37.824C72.1412 38.096 72.3962 38.3113 72.6909 38.47C72.9969 38.6287 73.3482 38.708 73.7449 38.708C74.1869 38.708 74.5609 38.6173 74.8669 38.436C75.1729 38.2547 75.4222 38.0223 75.6149 37.739C75.8189 37.4443 75.9605 37.1157 76.0399 36.753C76.1305 36.379 76.1759 35.9993 76.1759 35.614ZM79.8024 31.211H81.6384V32.401H81.6724C81.9444 31.891 82.3241 31.5283 82.8114 31.313C83.2988 31.0863 83.8258 30.973 84.3924 30.973C85.0838 30.973 85.6844 31.0977 86.1944 31.347C86.7158 31.585 87.1464 31.9193 87.4864 32.35C87.8264 32.7693 88.0814 33.2623 88.2514 33.829C88.4214 34.3957 88.5064 35.002 88.5064 35.648C88.5064 36.2373 88.4271 36.8097 88.2684 37.365C88.1211 37.9203 87.8888 38.4133 87.5714 38.844C87.2654 39.2633 86.8744 39.6033 86.3984 39.864C85.9224 40.1133 85.3614 40.238 84.7154 40.238C84.4321 40.238 84.1488 40.2097 83.8654 40.153C83.5821 40.1077 83.3101 40.0283 83.0494 39.915C82.7888 39.8017 82.5451 39.66 82.3184 39.49C82.1031 39.3087 81.9218 39.099 81.7744 38.861H81.7404V43.247H79.8024V31.211ZM86.5684 35.614C86.5684 35.2173 86.5174 34.832 86.4154 34.458C86.3134 34.084 86.1604 33.7553 85.9564 33.472C85.7524 33.1773 85.4974 32.945 85.1914 32.775C84.8854 32.5937 84.5341 32.503 84.1374 32.503C83.3214 32.503 82.7038 32.7863 82.2844 33.353C81.8764 33.9197 81.6724 34.6733 81.6724 35.614C81.6724 36.056 81.7234 36.4697 81.8254 36.855C81.9388 37.229 82.1031 37.552 82.3184 37.824C82.5338 38.096 82.7888 38.3113 83.0834 38.47C83.3894 38.6287 83.7408 38.708 84.1374 38.708C84.5794 38.708 84.9534 38.6173 85.2594 38.436C85.5654 38.2547 85.8148 38.0223 86.0074 37.739C86.2114 37.4443 86.3531 37.1157 86.4324 36.753C86.5231 36.379 86.5684 35.9993 86.5684 35.614ZM96.5415 35.954C96.5415 36.4187 96.6208 36.8153 96.7795 37.144C96.9381 37.4727 97.1591 37.7447 97.4425 37.96C97.7258 38.164 98.0488 38.317 98.4115 38.419C98.7855 38.5097 99.1878 38.555 99.6185 38.555C100.083 38.555 100.48 38.504 100.808 38.402C101.137 38.2887 101.403 38.147 101.607 37.977C101.811 37.807 101.959 37.6143 102.049 37.399C102.14 37.1723 102.185 36.9457 102.185 36.719C102.185 36.2543 102.078 35.9143 101.862 35.699C101.658 35.4723 101.432 35.3137 101.182 35.223C100.752 35.0643 100.247 34.917 99.6695 34.781C99.1028 34.6337 98.4001 34.4467 97.5615 34.22C97.0401 34.084 96.6038 33.9083 96.2525 33.693C95.9125 33.4663 95.6405 33.217 95.4365 32.945C95.2325 32.673 95.0851 32.384 94.9945 32.078C94.9151 31.772 94.8755 31.4603 94.8755 31.143C94.8755 30.531 95.0001 30.004 95.2495 29.562C95.5101 29.1087 95.8501 28.7347 96.2695 28.44C96.6888 28.1453 97.1648 27.93 97.6975 27.794C98.2301 27.6467 98.7685 27.573 99.3125 27.573C99.9471 27.573 100.542 27.658 101.097 27.828C101.664 27.9867 102.157 28.2303 102.576 28.559C103.007 28.8877 103.347 29.2957 103.596 29.783C103.846 30.259 103.97 30.8143 103.97 31.449H101.845C101.789 30.667 101.522 30.1173 101.046 29.8C100.57 29.4713 99.9641 29.307 99.2275 29.307C98.9781 29.307 98.7231 29.3353 98.4625 29.392C98.2018 29.4373 97.9638 29.5223 97.7485 29.647C97.5331 29.7603 97.3518 29.919 97.2045 30.123C97.0685 30.327 97.0005 30.582 97.0005 30.888C97.0005 31.3187 97.1308 31.6587 97.3915 31.908C97.6635 32.146 98.0148 32.3273 98.4455 32.452C98.4908 32.4633 98.6665 32.5143 98.9725 32.605C99.2898 32.6843 99.6411 32.775 100.026 32.877C100.412 32.979 100.786 33.081 101.148 33.183C101.522 33.2737 101.789 33.3417 101.947 33.387C102.344 33.5117 102.69 33.6817 102.984 33.897C103.279 34.1123 103.523 34.3617 103.715 34.645C103.919 34.917 104.067 35.2117 104.157 35.529C104.259 35.8463 104.31 36.1637 104.31 36.481C104.31 37.161 104.169 37.7447 103.885 38.232C103.613 38.708 103.251 39.099 102.797 39.405C102.344 39.711 101.828 39.932 101.25 40.068C100.672 40.2153 100.083 40.289 99.4825 40.289C98.7911 40.289 98.1395 40.204 97.5275 40.034C96.9155 39.864 96.3828 39.6033 95.9295 39.252C95.4761 38.9007 95.1135 38.453 94.8415 37.909C94.5695 37.3537 94.4278 36.702 94.4165 35.954H96.5415ZM105.015 31.211H106.477V28.576H108.415V31.211H110.166V32.656H108.415V37.348C108.415 37.552 108.421 37.7277 108.432 37.875C108.455 38.0223 108.494 38.147 108.551 38.249C108.619 38.351 108.715 38.4303 108.84 38.487C108.965 38.5323 109.135 38.555 109.35 38.555C109.486 38.555 109.622 38.555 109.758 38.555C109.894 38.5437 110.03 38.521 110.166 38.487V39.983C109.951 40.0057 109.741 40.0283 109.537 40.051C109.333 40.0737 109.123 40.085 108.908 40.085C108.398 40.085 107.984 40.0397 107.667 39.949C107.361 39.847 107.117 39.7053 106.936 39.524C106.766 39.3313 106.647 39.0933 106.579 38.81C106.522 38.5267 106.488 38.2037 106.477 37.841V32.656H105.015V31.211ZM115.589 40.238C114.886 40.238 114.257 40.1247 113.702 39.898C113.158 39.66 112.693 39.337 112.308 38.929C111.934 38.521 111.645 38.0337 111.441 37.467C111.248 36.9003 111.152 36.277 111.152 35.597C111.152 34.9283 111.248 34.3107 111.441 33.744C111.645 33.1773 111.934 32.69 112.308 32.282C112.693 31.874 113.158 31.5567 113.702 31.33C114.257 31.092 114.886 30.973 115.589 30.973C116.292 30.973 116.915 31.092 117.459 31.33C118.014 31.5567 118.479 31.874 118.853 32.282C119.238 32.69 119.527 33.1773 119.72 33.744C119.924 34.3107 120.026 34.9283 120.026 35.597C120.026 36.277 119.924 36.9003 119.72 37.467C119.527 38.0337 119.238 38.521 118.853 38.929C118.479 39.337 118.014 39.66 117.459 39.898C116.915 40.1247 116.292 40.238 115.589 40.238ZM115.589 38.708C116.02 38.708 116.394 38.6173 116.711 38.436C117.028 38.2547 117.289 38.0167 117.493 37.722C117.697 37.4273 117.844 37.0987 117.935 36.736C118.037 36.362 118.088 35.9823 118.088 35.597C118.088 35.223 118.037 34.849 117.935 34.475C117.844 34.101 117.697 33.7723 117.493 33.489C117.289 33.1943 117.028 32.9563 116.711 32.775C116.394 32.5937 116.02 32.503 115.589 32.503C115.158 32.503 114.784 32.5937 114.467 32.775C114.15 32.9563 113.889 33.1943 113.685 33.489C113.481 33.7723 113.328 34.101 113.226 34.475C113.135 34.849 113.09 35.223 113.09 35.597C113.09 35.9823 113.135 36.362 113.226 36.736C113.328 37.0987 113.481 37.4273 113.685 37.722C113.889 38.0167 114.15 38.2547 114.467 38.436C114.784 38.6173 115.158 38.708 115.589 38.708ZM121.637 31.211H123.456V32.911H123.49C123.547 32.673 123.655 32.4407 123.813 32.214C123.983 31.9873 124.182 31.7833 124.408 31.602C124.646 31.4093 124.907 31.2563 125.19 31.143C125.474 31.0297 125.763 30.973 126.057 30.973C126.284 30.973 126.437 30.9787 126.516 30.99C126.607 31.0013 126.698 31.0127 126.788 31.024V32.894C126.652 32.8713 126.511 32.8543 126.363 32.843C126.227 32.8203 126.091 32.809 125.955 32.809C125.627 32.809 125.315 32.877 125.02 33.013C124.737 33.1377 124.488 33.3303 124.272 33.591C124.057 33.8403 123.887 34.152 123.762 34.526C123.638 34.9 123.575 35.3307 123.575 35.818V40H121.637V31.211ZM133.35 34.832C133.327 34.526 133.259 34.2313 133.146 33.948C133.044 33.6647 132.897 33.421 132.704 33.217C132.523 33.0017 132.296 32.8317 132.024 32.707C131.763 32.571 131.469 32.503 131.14 32.503C130.8 32.503 130.488 32.5653 130.205 32.69C129.933 32.8033 129.695 32.9677 129.491 33.183C129.298 33.387 129.14 33.6307 129.015 33.914C128.902 34.1973 128.839 34.5033 128.828 34.832H133.35ZM128.828 36.107C128.828 36.447 128.873 36.7757 128.964 37.093C129.066 37.4103 129.213 37.688 129.406 37.926C129.599 38.164 129.842 38.3567 130.137 38.504C130.432 38.64 130.783 38.708 131.191 38.708C131.758 38.708 132.211 38.589 132.551 38.351C132.902 38.1017 133.163 37.7333 133.333 37.246H135.169C135.067 37.722 134.891 38.147 134.642 38.521C134.393 38.895 134.092 39.2123 133.741 39.473C133.39 39.7223 132.993 39.9093 132.551 40.034C132.12 40.17 131.667 40.238 131.191 40.238C130.5 40.238 129.888 40.1247 129.355 39.898C128.822 39.6713 128.369 39.354 127.995 38.946C127.632 38.538 127.355 38.0507 127.162 37.484C126.981 36.9173 126.89 36.294 126.89 35.614C126.89 34.9907 126.986 34.4013 127.179 33.846C127.383 33.2793 127.666 32.7863 128.029 32.367C128.403 31.9363 128.851 31.5963 129.372 31.347C129.893 31.0977 130.483 30.973 131.14 30.973C131.831 30.973 132.449 31.1203 132.993 31.415C133.548 31.6983 134.007 32.078 134.37 32.554C134.733 33.03 134.993 33.5797 135.152 34.203C135.322 34.815 135.367 35.4497 135.288 36.107H128.828Z" fill="#7171FF"/>
<path d="M61.0283 15.4912C60.6344 15.4912 60.2796 15.5596 59.9639 15.6963C59.6514 15.8298 59.3844 16.0251 59.1631 16.2822C58.945 16.5361 58.7773 16.8438 58.6602 17.2051C58.543 17.5664 58.4844 17.9733 58.4844 18.4258C58.4844 19.0247 58.5771 19.5456 58.7627 19.9883C58.9515 20.4277 59.2314 20.7679 59.6025 21.0088C59.9769 21.2497 60.444 21.3701 61.0039 21.3701C61.3229 21.3701 61.6224 21.3441 61.9023 21.292C62.1855 21.2367 62.4606 21.1683 62.7275 21.0869V21.8096C62.4671 21.9072 62.1937 21.9788 61.9072 22.0244C61.6208 22.0732 61.2806 22.0977 60.8867 22.0977C60.1608 22.0977 59.5537 21.9479 59.0654 21.6484C58.5804 21.3457 58.2158 20.9193 57.9717 20.3691C57.7308 19.819 57.6104 19.1696 57.6104 18.4209C57.6104 17.8805 57.6852 17.3874 57.835 16.9414C57.988 16.4922 58.2093 16.1048 58.499 15.7793C58.792 15.4538 59.1501 15.2031 59.5732 15.0273C59.9997 14.8483 60.488 14.7588 61.0381 14.7588C61.3994 14.7588 61.7477 14.7946 62.083 14.8662C62.4183 14.9378 62.721 15.0404 62.9912 15.1738L62.6592 15.877C62.4313 15.7728 62.1807 15.6833 61.9072 15.6084C61.637 15.5303 61.3441 15.4912 61.0283 15.4912ZM68.7676 19.3145C68.7676 19.7539 68.7106 20.1462 68.5967 20.4912C68.4827 20.8363 68.3184 21.1276 68.1035 21.3652C67.8887 21.6029 67.6283 21.7852 67.3223 21.9121C67.0195 22.0358 66.6761 22.0977 66.292 22.0977C65.9339 22.0977 65.6051 22.0358 65.3057 21.9121C65.0094 21.7852 64.7523 21.6029 64.5342 21.3652C64.3193 21.1276 64.1517 20.8363 64.0312 20.4912C63.9141 20.1462 63.8555 19.7539 63.8555 19.3145C63.8555 18.7285 63.9548 18.2305 64.1533 17.8203C64.3519 17.4069 64.6351 17.0928 65.0029 16.8779C65.374 16.6598 65.8151 16.5508 66.3262 16.5508C66.8145 16.5508 67.2409 16.6598 67.6055 16.8779C67.9733 17.096 68.2581 17.4118 68.46 17.8252C68.665 18.2354 68.7676 18.7318 68.7676 19.3145ZM64.6953 19.3145C64.6953 19.7441 64.7523 20.1169 64.8662 20.4326C64.9801 20.7484 65.1559 20.9925 65.3936 21.165C65.6312 21.3376 65.9372 21.4238 66.3115 21.4238C66.6826 21.4238 66.987 21.3376 67.2246 21.165C67.4655 20.9925 67.6429 20.7484 67.7568 20.4326C67.8708 20.1169 67.9277 19.7441 67.9277 19.3145C67.9277 18.888 67.8708 18.5202 67.7568 18.2109C67.6429 17.8984 67.4671 17.6576 67.2295 17.4883C66.9919 17.319 66.6842 17.2344 66.3066 17.2344C65.75 17.2344 65.3415 17.4183 65.0811 17.7861C64.8239 18.154 64.6953 18.6634 64.6953 19.3145ZM75.9795 16.5508C76.5687 16.5508 77.013 16.7054 77.3125 17.0146C77.612 17.3206 77.7617 17.8138 77.7617 18.4941V22H76.9609V18.5332C76.9609 18.1003 76.8665 17.7764 76.6777 17.5615C76.4922 17.3434 76.2155 17.2344 75.8477 17.2344C75.3301 17.2344 74.9541 17.3841 74.7197 17.6836C74.4854 17.9831 74.3682 18.4242 74.3682 19.0068V22H73.5625V18.5332C73.5625 18.2435 73.5202 18.0026 73.4355 17.8105C73.3542 17.6185 73.2305 17.4753 73.0645 17.3809C72.9017 17.2832 72.695 17.2344 72.4443 17.2344C72.0895 17.2344 71.8047 17.3076 71.5898 17.4541C71.375 17.6006 71.2188 17.8187 71.1211 18.1084C71.0267 18.3949 70.9795 18.748 70.9795 19.168V22H70.1689V16.6484H70.8232L70.9453 17.4053H70.9893C71.0967 17.2197 71.2318 17.0635 71.3945 16.9365C71.5573 16.8096 71.7396 16.7135 71.9414 16.6484C72.1432 16.5833 72.3581 16.5508 72.5859 16.5508C72.9928 16.5508 73.333 16.6273 73.6064 16.7803C73.8831 16.93 74.0833 17.1595 74.207 17.4688H74.251C74.4268 17.1595 74.6676 16.93 74.9736 16.7803C75.2796 16.6273 75.6149 16.5508 75.9795 16.5508ZM80.2373 16.6484V22H79.4268V16.6484H80.2373ZM79.8418 14.6465C79.9753 14.6465 80.0892 14.6904 80.1836 14.7783C80.2812 14.863 80.3301 14.9964 80.3301 15.1787C80.3301 15.3577 80.2812 15.4912 80.1836 15.5791C80.0892 15.667 79.9753 15.7109 79.8418 15.7109C79.7018 15.7109 79.5846 15.667 79.4902 15.5791C79.3991 15.4912 79.3535 15.3577 79.3535 15.1787C79.3535 14.9964 79.3991 14.863 79.4902 14.7783C79.5846 14.6904 79.7018 14.6465 79.8418 14.6465ZM84.4902 16.5508C85.125 16.5508 85.6051 16.707 85.9307 17.0195C86.2562 17.3288 86.4189 17.8268 86.4189 18.5137V22H85.6182V18.5674C85.6182 18.1214 85.5156 17.7878 85.3105 17.5664C85.1087 17.3451 84.7979 17.2344 84.3779 17.2344C83.7855 17.2344 83.3688 17.402 83.1279 17.7373C82.887 18.0726 82.7666 18.5592 82.7666 19.1973V22H81.9561V16.6484H82.6104L82.7324 17.4199H82.7764C82.8903 17.2311 83.0352 17.0732 83.2109 16.9463C83.3867 16.8161 83.5837 16.7184 83.8018 16.6533C84.0199 16.585 84.2493 16.5508 84.4902 16.5508ZM89.583 24.4023C88.8799 24.4023 88.3379 24.2705 87.957 24.0068C87.5762 23.7464 87.3857 23.3802 87.3857 22.9082C87.3857 22.5729 87.4915 22.2865 87.7031 22.0488C87.918 21.8112 88.2142 21.6533 88.5918 21.5752C88.4518 21.5101 88.3314 21.4124 88.2305 21.2822C88.1328 21.152 88.084 21.0023 88.084 20.833C88.084 20.6377 88.1377 20.4668 88.2451 20.3203C88.3558 20.1706 88.5234 20.0273 88.748 19.8906C88.4681 19.7767 88.2402 19.5846 88.0645 19.3145C87.8919 19.041 87.8057 18.7236 87.8057 18.3623C87.8057 17.9782 87.8854 17.651 88.0449 17.3809C88.2044 17.1074 88.4355 16.8991 88.7383 16.7559C89.041 16.6126 89.4072 16.541 89.8369 16.541C89.9313 16.541 90.0257 16.5459 90.1201 16.5557C90.2178 16.5622 90.3105 16.5736 90.3984 16.5898C90.4863 16.6029 90.5628 16.6191 90.6279 16.6387H92.4639V17.1611L91.4775 17.2832C91.5752 17.4102 91.6566 17.5632 91.7217 17.7422C91.7868 17.9212 91.8193 18.1198 91.8193 18.3379C91.8193 18.8717 91.6387 19.2965 91.2773 19.6123C90.916 19.9248 90.4196 20.0811 89.7881 20.0811C89.6383 20.0811 89.4854 20.068 89.3291 20.042C89.1696 20.1299 89.0475 20.2275 88.9629 20.335C88.8815 20.4424 88.8408 20.5661 88.8408 20.7061C88.8408 20.8102 88.8717 20.8932 88.9336 20.9551C88.9987 21.0169 89.0915 21.0625 89.2119 21.0918C89.3324 21.1178 89.4772 21.1309 89.6465 21.1309H90.5889C91.1715 21.1309 91.6175 21.2529 91.9268 21.4971C92.2393 21.7412 92.3955 22.0977 92.3955 22.5664C92.3955 23.1589 92.1546 23.613 91.6729 23.9287C91.1911 24.2445 90.4945 24.4023 89.583 24.4023ZM89.6074 23.7676C90.0501 23.7676 90.4163 23.722 90.7061 23.6309C90.999 23.543 91.2171 23.4144 91.3604 23.2451C91.5068 23.0791 91.5801 22.8805 91.5801 22.6494C91.5801 22.4346 91.5312 22.2718 91.4336 22.1611C91.3359 22.0537 91.1927 21.9821 91.0039 21.9463C90.8151 21.9072 90.584 21.8877 90.3105 21.8877H89.3828C89.1419 21.8877 88.932 21.9251 88.7529 22C88.5739 22.0749 88.4355 22.1855 88.3379 22.332C88.2435 22.4785 88.1963 22.6608 88.1963 22.8789C88.1963 23.1686 88.3184 23.3883 88.5625 23.5381C88.8066 23.6911 89.1549 23.7676 89.6074 23.7676ZM89.8174 19.4902C90.2048 19.4902 90.4961 19.3926 90.6914 19.1973C90.8867 19.002 90.9844 18.7171 90.9844 18.3428C90.9844 17.9424 90.8851 17.6429 90.6865 17.4443C90.488 17.2425 90.195 17.1416 89.8076 17.1416C89.4365 17.1416 89.1501 17.2458 88.9482 17.4541C88.7497 17.6592 88.6504 17.9603 88.6504 18.3574C88.6504 18.722 88.7513 19.002 88.9531 19.1973C89.1549 19.3926 89.443 19.4902 89.8174 19.4902ZM99.5781 20.5352C99.5781 20.877 99.4919 21.165 99.3193 21.3994C99.1501 21.6305 98.9059 21.8047 98.5869 21.9219C98.2712 22.0391 97.8936 22.0977 97.4541 22.0977C97.0798 22.0977 96.7559 22.0684 96.4824 22.0098C96.209 21.9512 95.9697 21.8682 95.7646 21.7607V21.0137C95.9827 21.1211 96.2432 21.2188 96.5459 21.3066C96.8486 21.3945 97.1579 21.4385 97.4736 21.4385C97.9359 21.4385 98.2712 21.3636 98.4795 21.2139C98.6878 21.0641 98.792 20.8607 98.792 20.6035C98.792 20.457 98.7497 20.3285 98.665 20.2178C98.5837 20.1038 98.4453 19.9948 98.25 19.8906C98.0547 19.7832 97.7845 19.666 97.4395 19.5391C97.0977 19.4089 96.8014 19.2803 96.5508 19.1533C96.3034 19.0231 96.1113 18.8652 95.9746 18.6797C95.8411 18.4941 95.7744 18.2533 95.7744 17.957C95.7744 17.5046 95.9567 17.1579 96.3213 16.917C96.6891 16.6729 97.1709 16.5508 97.7666 16.5508C98.0889 16.5508 98.39 16.5833 98.6699 16.6484C98.9531 16.7103 99.2168 16.7949 99.4609 16.9023L99.1875 17.5518C98.9661 17.4574 98.7301 17.3776 98.4795 17.3125C98.2288 17.2474 97.9733 17.2148 97.7129 17.2148C97.3385 17.2148 97.0505 17.2767 96.8486 17.4004C96.6501 17.5241 96.5508 17.6934 96.5508 17.9082C96.5508 18.0742 96.5964 18.2109 96.6875 18.3184C96.7819 18.4258 96.9316 18.5267 97.1367 18.6211C97.3418 18.7155 97.612 18.8262 97.9473 18.9531C98.2826 19.0768 98.5723 19.2054 98.8164 19.3389C99.0605 19.4691 99.2477 19.6286 99.3779 19.8174C99.5114 20.0029 99.5781 20.2422 99.5781 20.5352ZM105.496 19.3145C105.496 19.7539 105.439 20.1462 105.325 20.4912C105.211 20.8363 105.047 21.1276 104.832 21.3652C104.617 21.6029 104.357 21.7852 104.051 21.9121C103.748 22.0358 103.405 22.0977 103.021 22.0977C102.662 22.0977 102.334 22.0358 102.034 21.9121C101.738 21.7852 101.481 21.6029 101.263 21.3652C101.048 21.1276 100.88 20.8363 100.76 20.4912C100.643 20.1462 100.584 19.7539 100.584 19.3145C100.584 18.7285 100.683 18.2305 100.882 17.8203C101.08 17.4069 101.364 17.0928 101.731 16.8779C102.103 16.6598 102.544 16.5508 103.055 16.5508C103.543 16.5508 103.969 16.6598 104.334 16.8779C104.702 17.096 104.987 17.4118 105.188 17.8252C105.394 18.2354 105.496 18.7318 105.496 19.3145ZM101.424 19.3145C101.424 19.7441 101.481 20.1169 101.595 20.4326C101.709 20.7484 101.884 20.9925 102.122 21.165C102.36 21.3376 102.666 21.4238 103.04 21.4238C103.411 21.4238 103.715 21.3376 103.953 21.165C104.194 20.9925 104.371 20.7484 104.485 20.4326C104.599 20.1169 104.656 19.7441 104.656 19.3145C104.656 18.888 104.599 18.5202 104.485 18.2109C104.371 17.8984 104.196 17.6576 103.958 17.4883C103.72 17.319 103.413 17.2344 103.035 17.2344C102.479 17.2344 102.07 17.4183 101.81 17.7861C101.552 18.154 101.424 18.6634 101.424 19.3145ZM111.512 19.3145C111.512 19.7539 111.455 20.1462 111.341 20.4912C111.227 20.8363 111.062 21.1276 110.848 21.3652C110.633 21.6029 110.372 21.7852 110.066 21.9121C109.764 22.0358 109.42 22.0977 109.036 22.0977C108.678 22.0977 108.349 22.0358 108.05 21.9121C107.754 21.7852 107.496 21.6029 107.278 21.3652C107.063 21.1276 106.896 20.8363 106.775 20.4912C106.658 20.1462 106.6 19.7539 106.6 19.3145C106.6 18.7285 106.699 18.2305 106.897 17.8203C107.096 17.4069 107.379 17.0928 107.747 16.8779C108.118 16.6598 108.559 16.5508 109.07 16.5508C109.559 16.5508 109.985 16.6598 110.35 16.8779C110.717 17.096 111.002 17.4118 111.204 17.8252C111.409 18.2354 111.512 18.7318 111.512 19.3145ZM107.439 19.3145C107.439 19.7441 107.496 20.1169 107.61 20.4326C107.724 20.7484 107.9 20.9925 108.138 21.165C108.375 21.3376 108.681 21.4238 109.056 21.4238C109.427 21.4238 109.731 21.3376 109.969 21.165C110.21 20.9925 110.387 20.7484 110.501 20.4326C110.615 20.1169 110.672 19.7441 110.672 19.3145C110.672 18.888 110.615 18.5202 110.501 18.2109C110.387 17.8984 110.211 17.6576 109.974 17.4883C109.736 17.319 109.428 17.2344 109.051 17.2344C108.494 17.2344 108.086 17.4183 107.825 17.7861C107.568 18.154 107.439 18.6634 107.439 19.3145ZM115.447 16.5508C116.082 16.5508 116.562 16.707 116.888 17.0195C117.213 17.3288 117.376 17.8268 117.376 18.5137V22H116.575V18.5674C116.575 18.1214 116.473 17.7878 116.268 17.5664C116.066 17.3451 115.755 17.2344 115.335 17.2344C114.743 17.2344 114.326 17.402 114.085 17.7373C113.844 18.0726 113.724 18.5592 113.724 19.1973V22H112.913V16.6484H113.567L113.689 17.4199H113.733C113.847 17.2311 113.992 17.0732 114.168 16.9463C114.344 16.8161 114.541 16.7184 114.759 16.6533C114.977 16.585 115.206 16.5508 115.447 16.5508Z" fill="#7171FF"/>
</svg>
