<svg width="175" height="58" viewBox="0 0 175 58" fill="none" xmlns="http://www.w3.org/2000/svg">
<rect width="175" height="58" rx="4" fill="#E1E1FF"/>
<path d="M58.292 27.862H63.647C64.5083 27.862 65.211 27.9867 65.755 28.236C66.299 28.4853 66.7183 28.797 67.013 29.171C67.3077 29.545 67.506 29.953 67.608 30.395C67.7213 30.837 67.778 31.245 67.778 31.619C67.778 31.993 67.7213 32.401 67.608 32.843C67.506 33.2737 67.3077 33.676 67.013 34.05C66.7183 34.424 66.299 34.7357 65.755 34.985C65.211 35.223 64.5083 35.342 63.647 35.342H60.417V40H58.292V27.862ZM60.417 33.608H63.528C63.766 33.608 64.0097 33.574 64.259 33.506C64.5083 33.438 64.735 33.3303 64.939 33.183C65.1543 33.0243 65.3243 32.8203 65.449 32.571C65.585 32.3103 65.653 31.9873 65.653 31.602C65.653 31.2053 65.5963 30.8767 65.483 30.616C65.3697 30.3553 65.2167 30.1513 65.024 30.004C64.8313 29.8453 64.6103 29.7377 64.361 29.681C64.1117 29.6243 63.8453 29.596 63.562 29.596H60.417V33.608ZM69.4099 27.862H71.3479V40H69.4099V27.862ZM80.8205 38.045C80.8205 38.283 80.8488 38.453 80.9055 38.555C80.9735 38.657 81.0981 38.708 81.2795 38.708C81.3361 38.708 81.4041 38.708 81.4835 38.708C81.5628 38.708 81.6535 38.6967 81.7555 38.674V40.017C81.6875 40.0397 81.5968 40.0623 81.4835 40.085C81.3815 40.119 81.2738 40.1473 81.1605 40.17C81.0471 40.1927 80.9338 40.2097 80.8205 40.221C80.7071 40.2323 80.6108 40.238 80.5315 40.238C80.1348 40.238 79.8061 40.1587 79.5455 40C79.2848 39.8413 79.1148 39.5637 79.0355 39.167C78.6501 39.541 78.1741 39.813 77.6075 39.983C77.0521 40.153 76.5138 40.238 75.9925 40.238C75.5958 40.238 75.2161 40.1813 74.8535 40.068C74.4908 39.966 74.1678 39.813 73.8845 39.609C73.6125 39.3937 73.3915 39.1273 73.2215 38.81C73.0628 38.4813 72.9835 38.1017 72.9835 37.671C72.9835 37.127 73.0798 36.685 73.2725 36.345C73.4765 36.005 73.7371 35.7387 74.0545 35.546C74.3831 35.3533 74.7458 35.2173 75.1425 35.138C75.5505 35.0473 75.9585 34.9793 76.3665 34.934C76.7178 34.866 77.0521 34.8207 77.3695 34.798C77.6868 34.764 77.9645 34.713 78.2025 34.645C78.4518 34.577 78.6445 34.475 78.7805 34.339C78.9278 34.1917 79.0015 33.9763 79.0015 33.693C79.0015 33.4437 78.9391 33.2397 78.8145 33.081C78.7011 32.9223 78.5538 32.8033 78.3725 32.724C78.2025 32.6333 78.0098 32.5767 77.7945 32.554C77.5791 32.52 77.3751 32.503 77.1825 32.503C76.6385 32.503 76.1908 32.6163 75.8395 32.843C75.4881 33.0697 75.2898 33.421 75.2445 33.897H73.3065C73.3405 33.3303 73.4765 32.86 73.7145 32.486C73.9525 32.112 74.2528 31.8117 74.6155 31.585C74.9895 31.3583 75.4088 31.1997 75.8735 31.109C76.3381 31.0183 76.8141 30.973 77.3015 30.973C77.7321 30.973 78.1571 31.0183 78.5765 31.109C78.9958 31.1997 79.3698 31.347 79.6985 31.551C80.0385 31.755 80.3105 32.0213 80.5145 32.35C80.7185 32.6673 80.8205 33.0583 80.8205 33.523V38.045ZM78.8825 35.597C78.5878 35.7897 78.2251 35.9087 77.7945 35.954C77.3638 35.988 76.9331 36.0447 76.5025 36.124C76.2985 36.158 76.1001 36.209 75.9075 36.277C75.7148 36.3337 75.5448 36.4187 75.3975 36.532C75.2501 36.634 75.1311 36.7757 75.0405 36.957C74.9611 37.127 74.9215 37.3367 74.9215 37.586C74.9215 37.8013 74.9838 37.9827 75.1085 38.13C75.2331 38.2773 75.3805 38.3963 75.5505 38.487C75.7318 38.5663 75.9245 38.623 76.1285 38.657C76.3438 38.691 76.5365 38.708 76.7065 38.708C76.9218 38.708 77.1541 38.6797 77.4035 38.623C77.6528 38.5663 77.8851 38.47 78.1005 38.334C78.3271 38.198 78.5141 38.028 78.6615 37.824C78.8088 37.6087 78.8825 37.348 78.8825 37.042V35.597ZM81.9367 31.211H84.0617L86.3567 37.773H86.3907L88.6177 31.211H90.6407L87.2237 40.476C87.0651 40.8727 86.9064 41.2523 86.7477 41.615C86.6004 41.9777 86.4134 42.295 86.1867 42.567C85.9714 42.8503 85.6994 43.0713 85.3707 43.23C85.0421 43.4 84.6227 43.485 84.1127 43.485C83.6594 43.485 83.2117 43.451 82.7697 43.383V41.751C82.9284 41.7737 83.0814 41.7963 83.2287 41.819C83.3761 41.853 83.5291 41.87 83.6877 41.87C83.9144 41.87 84.1014 41.8417 84.2487 41.785C84.3961 41.7283 84.5151 41.6433 84.6057 41.53C84.7077 41.428 84.7927 41.3033 84.8607 41.156C84.9287 41.0087 84.9911 40.8387 85.0477 40.646L85.2687 39.966L81.9367 31.211ZM96.6906 27.862H99.6826L103.032 37.365H103.066L106.33 27.862H109.288V40H107.265V30.633H107.231L103.865 40H102.114L98.7476 30.633H98.7136V40H96.6906V27.862ZM118.921 38.045C118.921 38.283 118.949 38.453 119.006 38.555C119.074 38.657 119.199 38.708 119.38 38.708C119.437 38.708 119.505 38.708 119.584 38.708C119.663 38.708 119.754 38.6967 119.856 38.674V40.017C119.788 40.0397 119.697 40.0623 119.584 40.085C119.482 40.119 119.374 40.1473 119.261 40.17C119.148 40.1927 119.034 40.2097 118.921 40.221C118.808 40.2323 118.711 40.238 118.632 40.238C118.235 40.238 117.907 40.1587 117.646 40C117.385 39.8413 117.215 39.5637 117.136 39.167C116.751 39.541 116.275 39.813 115.708 39.983C115.153 40.153 114.614 40.238 114.093 40.238C113.696 40.238 113.317 40.1813 112.954 40.068C112.591 39.966 112.268 39.813 111.985 39.609C111.713 39.3937 111.492 39.1273 111.322 38.81C111.163 38.4813 111.084 38.1017 111.084 37.671C111.084 37.127 111.18 36.685 111.373 36.345C111.577 36.005 111.838 35.7387 112.155 35.546C112.484 35.3533 112.846 35.2173 113.243 35.138C113.651 35.0473 114.059 34.9793 114.467 34.934C114.818 34.866 115.153 34.8207 115.47 34.798C115.787 34.764 116.065 34.713 116.303 34.645C116.552 34.577 116.745 34.475 116.881 34.339C117.028 34.1917 117.102 33.9763 117.102 33.693C117.102 33.4437 117.04 33.2397 116.915 33.081C116.802 32.9223 116.654 32.8033 116.473 32.724C116.303 32.6333 116.11 32.5767 115.895 32.554C115.68 32.52 115.476 32.503 115.283 32.503C114.739 32.503 114.291 32.6163 113.94 32.843C113.589 33.0697 113.39 33.421 113.345 33.897H111.407C111.441 33.3303 111.577 32.86 111.815 32.486C112.053 32.112 112.353 31.8117 112.716 31.585C113.09 31.3583 113.509 31.1997 113.974 31.109C114.439 31.0183 114.915 30.973 115.402 30.973C115.833 30.973 116.258 31.0183 116.677 31.109C117.096 31.1997 117.47 31.347 117.799 31.551C118.139 31.755 118.411 32.0213 118.615 32.35C118.819 32.6673 118.921 33.0583 118.921 33.523V38.045ZM116.983 35.597C116.688 35.7897 116.326 35.9087 115.895 35.954C115.464 35.988 115.034 36.0447 114.603 36.124C114.399 36.158 114.201 36.209 114.008 36.277C113.815 36.3337 113.645 36.4187 113.498 36.532C113.351 36.634 113.232 36.7757 113.141 36.957C113.062 37.127 113.022 37.3367 113.022 37.586C113.022 37.8013 113.084 37.9827 113.209 38.13C113.334 38.2773 113.481 38.3963 113.651 38.487C113.832 38.5663 114.025 38.623 114.229 38.657C114.444 38.691 114.637 38.708 114.807 38.708C115.022 38.708 115.255 38.6797 115.504 38.623C115.753 38.5663 115.986 38.47 116.201 38.334C116.428 38.198 116.615 38.028 116.762 37.824C116.909 37.6087 116.983 37.348 116.983 37.042V35.597ZM121.006 31.211H122.825V32.911H122.859C122.916 32.673 123.024 32.4407 123.182 32.214C123.352 31.9873 123.551 31.7833 123.777 31.602C124.015 31.4093 124.276 31.2563 124.559 31.143C124.843 31.0297 125.132 30.973 125.426 30.973C125.653 30.973 125.806 30.9787 125.885 30.99C125.976 31.0013 126.067 31.0127 126.157 31.024V32.894C126.021 32.8713 125.88 32.8543 125.732 32.843C125.596 32.8203 125.46 32.809 125.324 32.809C124.996 32.809 124.684 32.877 124.389 33.013C124.106 33.1377 123.857 33.3303 123.641 33.591C123.426 33.8403 123.256 34.152 123.131 34.526C123.007 34.9 122.944 35.3307 122.944 35.818V40H121.006V31.211ZM127.034 27.862H128.972V34.764L132.474 31.211H134.854L131.488 34.441L135.177 40H132.814L130.128 35.733L128.972 36.855V40H127.034V27.862ZM142.149 34.832C142.126 34.526 142.058 34.2313 141.945 33.948C141.843 33.6647 141.695 33.421 141.503 33.217C141.321 33.0017 141.095 32.8317 140.823 32.707C140.562 32.571 140.267 32.503 139.939 32.503C139.599 32.503 139.287 32.5653 139.004 32.69C138.732 32.8033 138.494 32.9677 138.29 33.183C138.097 33.387 137.938 33.6307 137.814 33.914C137.7 34.1973 137.638 34.5033 137.627 34.832H142.149ZM137.627 36.107C137.627 36.447 137.672 36.7757 137.763 37.093C137.865 37.4103 138.012 37.688 138.205 37.926C138.397 38.164 138.641 38.3567 138.936 38.504C139.23 38.64 139.582 38.708 139.99 38.708C140.556 38.708 141.01 38.589 141.35 38.351C141.701 38.1017 141.962 37.7333 142.132 37.246H143.968C143.866 37.722 143.69 38.147 143.441 38.521C143.191 38.895 142.891 39.2123 142.54 39.473C142.188 39.7223 141.792 39.9093 141.35 40.034C140.919 40.17 140.466 40.238 139.99 40.238C139.298 40.238 138.686 40.1247 138.154 39.898C137.621 39.6713 137.168 39.354 136.794 38.946C136.431 38.538 136.153 38.0507 135.961 37.484C135.779 36.9173 135.689 36.294 135.689 35.614C135.689 34.9907 135.785 34.4013 135.978 33.846C136.182 33.2793 136.465 32.7863 136.828 32.367C137.202 31.9363 137.649 31.5963 138.171 31.347C138.692 31.0977 139.281 30.973 139.939 30.973C140.63 30.973 141.248 31.1203 141.792 31.415C142.347 31.6983 142.806 32.078 143.169 32.554C143.531 33.03 143.792 33.5797 143.951 34.203C144.121 34.815 144.166 35.4497 144.087 36.107H137.627ZM144.676 31.211H146.138V28.576H148.076V31.211H149.827V32.656H148.076V37.348C148.076 37.552 148.082 37.7277 148.093 37.875C148.116 38.0223 148.155 38.147 148.212 38.249C148.28 38.351 148.376 38.4303 148.501 38.487C148.626 38.5323 148.796 38.555 149.011 38.555C149.147 38.555 149.283 38.555 149.419 38.555C149.555 38.5437 149.691 38.521 149.827 38.487V39.983C149.612 40.0057 149.402 40.0283 149.198 40.051C148.994 40.0737 148.784 40.085 148.569 40.085C148.059 40.085 147.645 40.0397 147.328 39.949C147.022 39.847 146.778 39.7053 146.597 39.524C146.427 39.3313 146.308 39.0933 146.24 38.81C146.183 38.5267 146.149 38.2037 146.138 37.841V32.656H144.676V31.211Z" fill="#7171FF"/>
<path d="M61.0283 15.4912C60.6344 15.4912 60.2796 15.5596 59.9639 15.6963C59.6514 15.8298 59.3844 16.0251 59.1631 16.2822C58.945 16.5361 58.7773 16.8438 58.6602 17.2051C58.543 17.5664 58.4844 17.9733 58.4844 18.4258C58.4844 19.0247 58.5771 19.5456 58.7627 19.9883C58.9515 20.4277 59.2314 20.7679 59.6025 21.0088C59.9769 21.2497 60.444 21.3701 61.0039 21.3701C61.3229 21.3701 61.6224 21.3441 61.9023 21.292C62.1855 21.2367 62.4606 21.1683 62.7275 21.0869V21.8096C62.4671 21.9072 62.1937 21.9788 61.9072 22.0244C61.6208 22.0732 61.2806 22.0977 60.8867 22.0977C60.1608 22.0977 59.5537 21.9479 59.0654 21.6484C58.5804 21.3457 58.2158 20.9193 57.9717 20.3691C57.7308 19.819 57.6104 19.1696 57.6104 18.4209C57.6104 17.8805 57.6852 17.3874 57.835 16.9414C57.988 16.4922 58.2093 16.1048 58.499 15.7793C58.792 15.4538 59.1501 15.2031 59.5732 15.0273C59.9997 14.8483 60.488 14.7588 61.0381 14.7588C61.3994 14.7588 61.7477 14.7946 62.083 14.8662C62.4183 14.9378 62.721 15.0404 62.9912 15.1738L62.6592 15.877C62.4313 15.7728 62.1807 15.6833 61.9072 15.6084C61.637 15.5303 61.3441 15.4912 61.0283 15.4912ZM68.7676 19.3145C68.7676 19.7539 68.7106 20.1462 68.5967 20.4912C68.4827 20.8363 68.3184 21.1276 68.1035 21.3652C67.8887 21.6029 67.6283 21.7852 67.3223 21.9121C67.0195 22.0358 66.6761 22.0977 66.292 22.0977C65.9339 22.0977 65.6051 22.0358 65.3057 21.9121C65.0094 21.7852 64.7523 21.6029 64.5342 21.3652C64.3193 21.1276 64.1517 20.8363 64.0312 20.4912C63.9141 20.1462 63.8555 19.7539 63.8555 19.3145C63.8555 18.7285 63.9548 18.2305 64.1533 17.8203C64.3519 17.4069 64.6351 17.0928 65.0029 16.8779C65.374 16.6598 65.8151 16.5508 66.3262 16.5508C66.8145 16.5508 67.2409 16.6598 67.6055 16.8779C67.9733 17.096 68.2581 17.4118 68.46 17.8252C68.665 18.2354 68.7676 18.7318 68.7676 19.3145ZM64.6953 19.3145C64.6953 19.7441 64.7523 20.1169 64.8662 20.4326C64.9801 20.7484 65.1559 20.9925 65.3936 21.165C65.6312 21.3376 65.9372 21.4238 66.3115 21.4238C66.6826 21.4238 66.987 21.3376 67.2246 21.165C67.4655 20.9925 67.6429 20.7484 67.7568 20.4326C67.8708 20.1169 67.9277 19.7441 67.9277 19.3145C67.9277 18.888 67.8708 18.5202 67.7568 18.2109C67.6429 17.8984 67.4671 17.6576 67.2295 17.4883C66.9919 17.319 66.6842 17.2344 66.3066 17.2344C65.75 17.2344 65.3415 17.4183 65.0811 17.7861C64.8239 18.154 64.6953 18.6634 64.6953 19.3145ZM75.9795 16.5508C76.5687 16.5508 77.013 16.7054 77.3125 17.0146C77.612 17.3206 77.7617 17.8138 77.7617 18.4941V22H76.9609V18.5332C76.9609 18.1003 76.8665 17.7764 76.6777 17.5615C76.4922 17.3434 76.2155 17.2344 75.8477 17.2344C75.3301 17.2344 74.9541 17.3841 74.7197 17.6836C74.4854 17.9831 74.3682 18.4242 74.3682 19.0068V22H73.5625V18.5332C73.5625 18.2435 73.5202 18.0026 73.4355 17.8105C73.3542 17.6185 73.2305 17.4753 73.0645 17.3809C72.9017 17.2832 72.695 17.2344 72.4443 17.2344C72.0895 17.2344 71.8047 17.3076 71.5898 17.4541C71.375 17.6006 71.2188 17.8187 71.1211 18.1084C71.0267 18.3949 70.9795 18.748 70.9795 19.168V22H70.1689V16.6484H70.8232L70.9453 17.4053H70.9893C71.0967 17.2197 71.2318 17.0635 71.3945 16.9365C71.5573 16.8096 71.7396 16.7135 71.9414 16.6484C72.1432 16.5833 72.3581 16.5508 72.5859 16.5508C72.9928 16.5508 73.333 16.6273 73.6064 16.7803C73.8831 16.93 74.0833 17.1595 74.207 17.4688H74.251C74.4268 17.1595 74.6676 16.93 74.9736 16.7803C75.2796 16.6273 75.6149 16.5508 75.9795 16.5508ZM80.2373 16.6484V22H79.4268V16.6484H80.2373ZM79.8418 14.6465C79.9753 14.6465 80.0892 14.6904 80.1836 14.7783C80.2812 14.863 80.3301 14.9964 80.3301 15.1787C80.3301 15.3577 80.2812 15.4912 80.1836 15.5791C80.0892 15.667 79.9753 15.7109 79.8418 15.7109C79.7018 15.7109 79.5846 15.667 79.4902 15.5791C79.3991 15.4912 79.3535 15.3577 79.3535 15.1787C79.3535 14.9964 79.3991 14.863 79.4902 14.7783C79.5846 14.6904 79.7018 14.6465 79.8418 14.6465ZM84.4902 16.5508C85.125 16.5508 85.6051 16.707 85.9307 17.0195C86.2562 17.3288 86.4189 17.8268 86.4189 18.5137V22H85.6182V18.5674C85.6182 18.1214 85.5156 17.7878 85.3105 17.5664C85.1087 17.3451 84.7979 17.2344 84.3779 17.2344C83.7855 17.2344 83.3688 17.402 83.1279 17.7373C82.887 18.0726 82.7666 18.5592 82.7666 19.1973V22H81.9561V16.6484H82.6104L82.7324 17.4199H82.7764C82.8903 17.2311 83.0352 17.0732 83.2109 16.9463C83.3867 16.8161 83.5837 16.7184 83.8018 16.6533C84.0199 16.585 84.2493 16.5508 84.4902 16.5508ZM89.583 24.4023C88.8799 24.4023 88.3379 24.2705 87.957 24.0068C87.5762 23.7464 87.3857 23.3802 87.3857 22.9082C87.3857 22.5729 87.4915 22.2865 87.7031 22.0488C87.918 21.8112 88.2142 21.6533 88.5918 21.5752C88.4518 21.5101 88.3314 21.4124 88.2305 21.2822C88.1328 21.152 88.084 21.0023 88.084 20.833C88.084 20.6377 88.1377 20.4668 88.2451 20.3203C88.3558 20.1706 88.5234 20.0273 88.748 19.8906C88.4681 19.7767 88.2402 19.5846 88.0645 19.3145C87.8919 19.041 87.8057 18.7236 87.8057 18.3623C87.8057 17.9782 87.8854 17.651 88.0449 17.3809C88.2044 17.1074 88.4355 16.8991 88.7383 16.7559C89.041 16.6126 89.4072 16.541 89.8369 16.541C89.9313 16.541 90.0257 16.5459 90.1201 16.5557C90.2178 16.5622 90.3105 16.5736 90.3984 16.5898C90.4863 16.6029 90.5628 16.6191 90.6279 16.6387H92.4639V17.1611L91.4775 17.2832C91.5752 17.4102 91.6566 17.5632 91.7217 17.7422C91.7868 17.9212 91.8193 18.1198 91.8193 18.3379C91.8193 18.8717 91.6387 19.2965 91.2773 19.6123C90.916 19.9248 90.4196 20.0811 89.7881 20.0811C89.6383 20.0811 89.4854 20.068 89.3291 20.042C89.1696 20.1299 89.0475 20.2275 88.9629 20.335C88.8815 20.4424 88.8408 20.5661 88.8408 20.7061C88.8408 20.8102 88.8717 20.8932 88.9336 20.9551C88.9987 21.0169 89.0915 21.0625 89.2119 21.0918C89.3324 21.1178 89.4772 21.1309 89.6465 21.1309H90.5889C91.1715 21.1309 91.6175 21.2529 91.9268 21.4971C92.2393 21.7412 92.3955 22.0977 92.3955 22.5664C92.3955 23.1589 92.1546 23.613 91.6729 23.9287C91.1911 24.2445 90.4945 24.4023 89.583 24.4023ZM89.6074 23.7676C90.0501 23.7676 90.4163 23.722 90.7061 23.6309C90.999 23.543 91.2171 23.4144 91.3604 23.2451C91.5068 23.0791 91.5801 22.8805 91.5801 22.6494C91.5801 22.4346 91.5312 22.2718 91.4336 22.1611C91.3359 22.0537 91.1927 21.9821 91.0039 21.9463C90.8151 21.9072 90.584 21.8877 90.3105 21.8877H89.3828C89.1419 21.8877 88.932 21.9251 88.7529 22C88.5739 22.0749 88.4355 22.1855 88.3379 22.332C88.2435 22.4785 88.1963 22.6608 88.1963 22.8789C88.1963 23.1686 88.3184 23.3883 88.5625 23.5381C88.8066 23.6911 89.1549 23.7676 89.6074 23.7676ZM89.8174 19.4902C90.2048 19.4902 90.4961 19.3926 90.6914 19.1973C90.8867 19.002 90.9844 18.7171 90.9844 18.3428C90.9844 17.9424 90.8851 17.6429 90.6865 17.4443C90.488 17.2425 90.195 17.1416 89.8076 17.1416C89.4365 17.1416 89.1501 17.2458 88.9482 17.4541C88.7497 17.6592 88.6504 17.9603 88.6504 18.3574C88.6504 18.722 88.7513 19.002 88.9531 19.1973C89.1549 19.3926 89.443 19.4902 89.8174 19.4902ZM99.5781 20.5352C99.5781 20.877 99.4919 21.165 99.3193 21.3994C99.1501 21.6305 98.9059 21.8047 98.5869 21.9219C98.2712 22.0391 97.8936 22.0977 97.4541 22.0977C97.0798 22.0977 96.7559 22.0684 96.4824 22.0098C96.209 21.9512 95.9697 21.8682 95.7646 21.7607V21.0137C95.9827 21.1211 96.2432 21.2188 96.5459 21.3066C96.8486 21.3945 97.1579 21.4385 97.4736 21.4385C97.9359 21.4385 98.2712 21.3636 98.4795 21.2139C98.6878 21.0641 98.792 20.8607 98.792 20.6035C98.792 20.457 98.7497 20.3285 98.665 20.2178C98.5837 20.1038 98.4453 19.9948 98.25 19.8906C98.0547 19.7832 97.7845 19.666 97.4395 19.5391C97.0977 19.4089 96.8014 19.2803 96.5508 19.1533C96.3034 19.0231 96.1113 18.8652 95.9746 18.6797C95.8411 18.4941 95.7744 18.2533 95.7744 17.957C95.7744 17.5046 95.9567 17.1579 96.3213 16.917C96.6891 16.6729 97.1709 16.5508 97.7666 16.5508C98.0889 16.5508 98.39 16.5833 98.6699 16.6484C98.9531 16.7103 99.2168 16.7949 99.4609 16.9023L99.1875 17.5518C98.9661 17.4574 98.7301 17.3776 98.4795 17.3125C98.2288 17.2474 97.9733 17.2148 97.7129 17.2148C97.3385 17.2148 97.0505 17.2767 96.8486 17.4004C96.6501 17.5241 96.5508 17.6934 96.5508 17.9082C96.5508 18.0742 96.5964 18.2109 96.6875 18.3184C96.7819 18.4258 96.9316 18.5267 97.1367 18.6211C97.3418 18.7155 97.612 18.8262 97.9473 18.9531C98.2826 19.0768 98.5723 19.2054 98.8164 19.3389C99.0605 19.4691 99.2477 19.6286 99.3779 19.8174C99.5114 20.0029 99.5781 20.2422 99.5781 20.5352ZM105.496 19.3145C105.496 19.7539 105.439 20.1462 105.325 20.4912C105.211 20.8363 105.047 21.1276 104.832 21.3652C104.617 21.6029 104.357 21.7852 104.051 21.9121C103.748 22.0358 103.405 22.0977 103.021 22.0977C102.662 22.0977 102.334 22.0358 102.034 21.9121C101.738 21.7852 101.481 21.6029 101.263 21.3652C101.048 21.1276 100.88 20.8363 100.76 20.4912C100.643 20.1462 100.584 19.7539 100.584 19.3145C100.584 18.7285 100.683 18.2305 100.882 17.8203C101.08 17.4069 101.364 17.0928 101.731 16.8779C102.103 16.6598 102.544 16.5508 103.055 16.5508C103.543 16.5508 103.969 16.6598 104.334 16.8779C104.702 17.096 104.987 17.4118 105.188 17.8252C105.394 18.2354 105.496 18.7318 105.496 19.3145ZM101.424 19.3145C101.424 19.7441 101.481 20.1169 101.595 20.4326C101.709 20.7484 101.884 20.9925 102.122 21.165C102.36 21.3376 102.666 21.4238 103.04 21.4238C103.411 21.4238 103.715 21.3376 103.953 21.165C104.194 20.9925 104.371 20.7484 104.485 20.4326C104.599 20.1169 104.656 19.7441 104.656 19.3145C104.656 18.888 104.599 18.5202 104.485 18.2109C104.371 17.8984 104.196 17.6576 103.958 17.4883C103.72 17.319 103.413 17.2344 103.035 17.2344C102.479 17.2344 102.07 17.4183 101.81 17.7861C101.552 18.154 101.424 18.6634 101.424 19.3145ZM111.512 19.3145C111.512 19.7539 111.455 20.1462 111.341 20.4912C111.227 20.8363 111.062 21.1276 110.848 21.3652C110.633 21.6029 110.372 21.7852 110.066 21.9121C109.764 22.0358 109.42 22.0977 109.036 22.0977C108.678 22.0977 108.349 22.0358 108.05 21.9121C107.754 21.7852 107.496 21.6029 107.278 21.3652C107.063 21.1276 106.896 20.8363 106.775 20.4912C106.658 20.1462 106.6 19.7539 106.6 19.3145C106.6 18.7285 106.699 18.2305 106.897 17.8203C107.096 17.4069 107.379 17.0928 107.747 16.8779C108.118 16.6598 108.559 16.5508 109.07 16.5508C109.559 16.5508 109.985 16.6598 110.35 16.8779C110.717 17.096 111.002 17.4118 111.204 17.8252C111.409 18.2354 111.512 18.7318 111.512 19.3145ZM107.439 19.3145C107.439 19.7441 107.496 20.1169 107.61 20.4326C107.724 20.7484 107.9 20.9925 108.138 21.165C108.375 21.3376 108.681 21.4238 109.056 21.4238C109.427 21.4238 109.731 21.3376 109.969 21.165C110.21 20.9925 110.387 20.7484 110.501 20.4326C110.615 20.1169 110.672 19.7441 110.672 19.3145C110.672 18.888 110.615 18.5202 110.501 18.2109C110.387 17.8984 110.211 17.6576 109.974 17.4883C109.736 17.319 109.428 17.2344 109.051 17.2344C108.494 17.2344 108.086 17.4183 107.825 17.7861C107.568 18.154 107.439 18.6634 107.439 19.3145ZM115.447 16.5508C116.082 16.5508 116.562 16.707 116.888 17.0195C117.213 17.3288 117.376 17.8268 117.376 18.5137V22H116.575V18.5674C116.575 18.1214 116.473 17.7878 116.268 17.5664C116.066 17.3451 115.755 17.2344 115.335 17.2344C114.743 17.2344 114.326 17.402 114.085 17.7373C113.844 18.0726 113.724 18.5592 113.724 19.1973V22H112.913V16.6484H113.567L113.689 17.4199H113.733C113.847 17.2311 113.992 17.0732 114.168 16.9463C114.344 16.8161 114.541 16.7184 114.759 16.6533C114.977 16.585 115.206 16.5508 115.447 16.5508Z" fill="#7171FF"/>
<path fill-rule="evenodd" clip-rule="evenodd" d="M24.1301 18.7779C24.046 18.9942 24 19.2522 24 19.5475V38.5394C24 38.8354 24.046 39.0934 24.1302 39.3097L34.4843 29.0431L24.1301 18.7779ZM24.8309 40.0232C25.2073 40.1531 25.684 40.0899 26.201 39.7992L38.401 32.9261L35.1945 29.7472L24.8309 40.0232ZM39.3072 32.4165L43.0925 30.2844C44.3025 29.6017 44.3025 28.4862 43.0925 27.8043L39.3055 25.6709L35.9046 29.0431L39.3072 32.4165ZM38.3998 25.1607L26.201 18.2886C25.6839 17.9973 25.2072 17.9343 24.8309 18.0645L35.1944 28.339L38.3998 25.1607Z" fill="#7171FF"/>
</svg>
