<svg width="44" height="42" viewBox="0 0 44 42" fill="none" xmlns="http://www.w3.org/2000/svg">
<ellipse cx="20.966" cy="21.2617" rx="20.05" ry="20" fill="#E1E1FF"/>
<ellipse rx="3.08456" ry="3.07698" transform="matrix(0.996292 -0.0860373 0.0864648 0.996255 23.5892 7.75173)" fill="#F7941F"/>
<ellipse rx="3.08456" ry="3.07698" transform="matrix(0.996292 -0.0860373 0.0864648 0.996255 33.2337 11.2205)" fill="#F7941F"/>
<ellipse rx="3.08456" ry="3.07698" transform="matrix(0.996292 -0.0860373 0.0864648 0.996255 33.2669 3.33083)" fill="#F7941F"/>
<rect x="0.199219" y="11.4048" width="40.1" height="27.1429" rx="3" fill="#7171FF"/>
<rect x="32.4219" y="14.9761" width="10.7411" height="20" rx="3" fill="#E1E1FF"/>
<ellipse cx="19.8916" cy="25.3333" rx="9.66696" ry="9.64286" fill="#F7941F"/>
<path d="M20.8629 20.3081C20.47 19.7967 19.7028 19.7855 19.2951 20.2852L15.5869 24.8301C15.2811 25.205 15.2874 25.745 15.602 26.1125L19.2921 30.424C19.7051 30.9065 20.4575 30.8868 20.8446 30.3833L24.2571 25.945C24.5333 25.5857 24.5334 25.0856 24.2573 24.7262L20.8629 20.3081Z" fill="white"/>
</svg>
