<svg width="51" height="40" viewBox="0 0 51 40" fill="none" xmlns="http://www.w3.org/2000/svg">
<ellipse cx="25.05" cy="20" rx="20.05" ry="20" fill="#E1E1FF"/>
<ellipse cx="9.66696" cy="19.6429" rx="9.66696" ry="9.64286" fill="#F7941F"/>
<path d="M10.6383 14.6177C10.2454 14.1062 9.4782 14.095 9.07047 14.5948L5.36229 19.1397C5.05646 19.5145 5.06281 20.0546 5.37739 20.4221L9.06753 24.7335C9.48053 25.2161 10.2329 25.1963 10.62 24.6928L14.0325 20.2546C14.3087 19.8953 14.3088 19.3952 14.0327 19.0358L10.6383 14.6177Z" fill="white"/>
<ellipse cx="40.667" cy="19.6429" rx="9.66696" ry="9.64286" fill="#7171FF"/>
<rect x="36" y="15" width="9.5" height="9.5" rx="1" fill="white"/>
<rect y="32" width="20" height="6" rx="1" fill="#7171FF"/>
<rect x="31" y="32" width="20" height="6" rx="1" fill="#F7941F"/>
</svg>
