<svg width="37" height="40" viewBox="0 0 37 40" fill="none" xmlns="http://www.w3.org/2000/svg">
<rect x="0.863281" y="8" width="32.08" height="31" rx="5" fill="#E1E1FF"/>
<ellipse rx="2.47531" ry="2.46923" transform="matrix(0.996292 -0.0860373 0.0864648 0.996255 19.9667 6.02192)" fill="#F7941F"/>
<ellipse rx="2.47531" ry="2.46923" transform="matrix(0.996292 -0.0860373 0.0864648 0.996255 34.2734 15.0068)" fill="#F7941F"/>
<ellipse rx="2.47531" ry="2.46923" transform="matrix(0.996292 -0.0860373 0.0864648 0.996255 5.66205 19.7636)" fill="#F7941F"/>
<ellipse rx="2.47531" ry="2.46923" transform="matrix(0.996292 -0.0860373 0.0864648 0.996255 32.6835 36.6757)" fill="#7171FF"/>
<ellipse rx="2.47531" ry="2.46923" transform="matrix(0.996292 -0.0860373 0.0864648 0.996255 30.0351 2.67279)" fill="#7171FF"/>
<ellipse rx="2.47531" ry="2.46923" transform="matrix(0.996292 -0.0860373 0.0864648 0.996255 3.54291 30.3334)" fill="#7171FF"/>
<ellipse rx="2.47531" ry="2.46923" transform="matrix(0.996292 -0.0860373 0.0864648 0.996255 6.81049 4.25873)" fill="#7171FF"/>
<ellipse rx="2.47531" ry="2.46923" transform="matrix(0.996292 -0.0860373 0.0864648 0.996255 15.7304 35.6186)" fill="#F7941F"/>
<line y1="-1" x2="1.77299" y2="-1" transform="matrix(0.636966 0.770924 -0.772444 0.635043 16.6016 17.3584)" stroke="#7171FF" stroke-width="2"/>
<line y1="-1" x2="1.77299" y2="-1" transform="matrix(0.636966 0.770924 -0.772444 0.635043 13.2734 13.2456)" stroke="#7171FF" stroke-width="2"/>
<line y1="-1" x2="1.77299" y2="-1" transform="matrix(0.636966 0.770924 -0.772444 0.635043 14.9375 15.3018)" stroke="#7171FF" stroke-width="2"/>
<line y1="-1" x2="1.77299" y2="-1" transform="matrix(0.636966 0.770924 -0.772444 0.635043 8.28125 7.07666)" stroke="#7171FF" stroke-width="2"/>
<line y1="-1" x2="1.77299" y2="-1" transform="matrix(0.636966 0.770924 -0.772444 0.635043 9.94531 9.13281)" stroke="#7171FF" stroke-width="2"/>
<line y1="-1" x2="1.77299" y2="-1" transform="matrix(0.636966 0.770924 -0.772444 0.635043 11.6113 11.1895)" stroke="#7171FF" stroke-width="2"/>
<line y1="-1" x2="1.77124" y2="-1" transform="matrix(-0.00425477 0.99999 -0.999992 -0.00423359 19.4336 22.9185)" stroke="#F7941F" stroke-width="2"/>
<line y1="-1" x2="1.77124" y2="-1" transform="matrix(-0.00425477 0.99999 -0.999992 -0.00423359 19.5098 17.6338)" stroke="#F7941F" stroke-width="2"/>
<line y1="-1" x2="1.77124" y2="-1" transform="matrix(-0.00425477 0.99999 -0.999992 -0.00423359 19.4707 20.2759)" stroke="#F7941F" stroke-width="2"/>
<line y1="-1" x2="1.77124" y2="-1" transform="matrix(-0.00425477 0.99999 -0.999992 -0.00423359 19.625 9.70654)" stroke="#F7941F" stroke-width="2"/>
<line y1="-1" x2="1.77124" y2="-1" transform="matrix(-0.00425477 0.99999 -0.999992 -0.00423359 19.5879 12.3491)" stroke="#F7941F" stroke-width="2"/>
<line y1="-1" x2="1.77124" y2="-1" transform="matrix(-0.00425477 0.99999 -0.999992 -0.00423359 19.5488 14.9917)" stroke="#F7941F" stroke-width="2"/>
<line y1="-1" x2="1.77125" y2="-1" transform="matrix(-0.358336 0.933574 -0.934203 -0.356791 23.2383 17.769)" stroke="#7171FF" stroke-width="2"/>
<line y1="-1" x2="1.77125" y2="-1" transform="matrix(-0.358336 0.933574 -0.934203 -0.356791 25.1836 12.8525)" stroke="#7171FF" stroke-width="2"/>
<line y1="-1" x2="1.77125" y2="-1" transform="matrix(-0.358336 0.933574 -0.934203 -0.356791 24.2109 15.311)" stroke="#7171FF" stroke-width="2"/>
<line y1="-1" x2="1.77125" y2="-1" transform="matrix(-0.358336 0.933574 -0.934203 -0.356791 28.1016 5.47852)" stroke="#7171FF" stroke-width="2"/>
<line y1="-1" x2="1.77125" y2="-1" transform="matrix(-0.358336 0.933574 -0.934203 -0.356791 27.1289 7.93652)" stroke="#7171FF" stroke-width="2"/>
<line y1="-1" x2="1.77125" y2="-1" transform="matrix(-0.358336 0.933574 -0.934203 -0.356791 26.1562 10.3945)" stroke="#7171FF" stroke-width="2"/>
<line y1="-1" x2="1.77452" y2="-1" transform="matrix(-0.854672 0.519124 -0.521042 -0.853557 8.2168 27.0327)" stroke="#7171FF" stroke-width="2"/>
<line y1="-1" x2="1.77452" y2="-1" transform="matrix(-0.854672 0.519124 -0.521042 -0.853557 12.7715 24.3306)" stroke="#7171FF" stroke-width="2"/>
<line y1="-1" x2="1.77452" y2="-1" transform="matrix(-0.854672 0.519124 -0.521042 -0.853557 10.4941 25.6816)" stroke="#7171FF" stroke-width="2"/>
<line y1="-1" x2="1.77452" y2="-1" transform="matrix(-0.854672 0.519124 -0.521042 -0.853557 19.5996 20.2769)" stroke="#7171FF" stroke-width="2"/>
<line y1="-1" x2="1.77452" y2="-1" transform="matrix(-0.854672 0.519124 -0.521042 -0.853557 17.3242 21.6284)" stroke="#7171FF" stroke-width="2"/>
<line y1="-1" x2="1.77452" y2="-1" transform="matrix(-0.854672 0.519124 -0.521042 -0.853557 15.0469 22.979)" stroke="#7171FF" stroke-width="2"/>
<line y1="-1" x2="1.77273" y2="-1" transform="matrix(-0.588185 -0.808756 0.810111 -0.586235 23.0996 22.7783)" stroke="#7171FF" stroke-width="2"/>
<line y1="-1" x2="1.77273" y2="-1" transform="matrix(-0.588185 -0.808756 0.810111 -0.586235 26.168 27.0879)" stroke="#7171FF" stroke-width="2"/>
<line y1="-1" x2="1.77273" y2="-1" transform="matrix(-0.588185 -0.808756 0.810111 -0.586235 24.6328 24.9331)" stroke="#7171FF" stroke-width="2"/>
<line y1="-1" x2="1.77273" y2="-1" transform="matrix(-0.588185 -0.808756 0.810111 -0.586235 30.7676 33.5522)" stroke="#7171FF" stroke-width="2"/>
<line y1="-1" x2="1.77273" y2="-1" transform="matrix(-0.588185 -0.808756 0.810111 -0.586235 29.2344 31.3975)" stroke="#7171FF" stroke-width="2"/>
<line y1="-1" x2="1.77273" y2="-1" transform="matrix(-0.588185 -0.808756 0.810111 -0.586235 27.6992 29.2432)" stroke="#7171FF" stroke-width="2"/>
<line y1="-1" x2="1.77488" y2="-1" transform="matrix(-0.902178 0.431319 -0.433091 -0.901372 18.8984 22.1675)" stroke="#F7941F" stroke-width="2"/>
<line y1="-1" x2="1.77488" y2="-1" transform="matrix(-0.902178 0.431319 -0.433091 -0.901372 23.6992 19.9321)" stroke="#F7941F" stroke-width="2"/>
<line y1="-1" x2="1.77488" y2="-1" transform="matrix(-0.902178 0.431319 -0.433091 -0.901372 21.2988 21.0498)" stroke="#F7941F" stroke-width="2"/>
<line y1="-1" x2="1.77488" y2="-1" transform="matrix(-0.902178 0.431319 -0.433091 -0.901372 30.9004 16.5791)" stroke="#F7941F" stroke-width="2"/>
<line y1="-1" x2="1.77488" y2="-1" transform="matrix(-0.902178 0.431319 -0.433091 -0.901372 28.5 17.6968)" stroke="#F7941F" stroke-width="2"/>
<line y1="-1" x2="1.77488" y2="-1" transform="matrix(-0.902178 0.431319 -0.433091 -0.901372 26.0996 18.814)" stroke="#F7941F" stroke-width="2"/>
<line y1="-1" x2="1.77124" y2="-1" transform="matrix(0.333685 -0.942667 0.94322 0.332217 22.3262 20.167)" stroke="#F7941F" stroke-width="2"/>
<line y1="-1" x2="1.77124" y2="-1" transform="matrix(0.333685 -0.942667 0.94322 0.332217 20.5117 25.1323)" stroke="#F7941F" stroke-width="2"/>
<line y1="-1" x2="1.77124" y2="-1" transform="matrix(0.333685 -0.942667 0.94322 0.332217 21.4199 22.6494)" stroke="#F7941F" stroke-width="2"/>
<line y1="-1" x2="1.77124" y2="-1" transform="matrix(0.333685 -0.942667 0.94322 0.332217 17.7891 32.5801)" stroke="#F7941F" stroke-width="2"/>
<line y1="-1" x2="1.77124" y2="-1" transform="matrix(0.333685 -0.942667 0.94322 0.332217 18.6973 30.0977)" stroke="#F7941F" stroke-width="2"/>
<line y1="-1" x2="1.77124" y2="-1" transform="matrix(0.333685 -0.942667 0.94322 0.332217 19.6035 27.6147)" stroke="#F7941F" stroke-width="2"/>
<line y1="-1" x2="1.77547" y2="-1" transform="matrix(0.979272 0.202599 -0.203567 0.97905 21.752 23.6392)" stroke="#F7941F" stroke-width="2"/>
<line y1="-1" x2="1.77547" y2="-1" transform="matrix(0.979272 0.202599 -0.203567 0.97905 16.5762 22.5132)" stroke="#F7941F" stroke-width="2"/>
<line y1="-1" x2="1.77547" y2="-1" transform="matrix(0.979272 0.202599 -0.203567 0.97905 19.1641 23.0762)" stroke="#F7941F" stroke-width="2"/>
<line y1="-1" x2="1.77547" y2="-1" transform="matrix(0.979272 0.202599 -0.203567 0.97905 8.81055 20.8237)" stroke="#F7941F" stroke-width="2"/>
<line y1="-1" x2="1.77547" y2="-1" transform="matrix(0.979272 0.202599 -0.203567 0.97905 11.4004 21.3867)" stroke="#F7941F" stroke-width="2"/>
<line y1="-1" x2="1.77547" y2="-1" transform="matrix(0.979272 0.202599 -0.203567 0.97905 13.9883 21.9497)" stroke="#F7941F" stroke-width="2"/>
<ellipse cx="20.2036" cy="21.5988" rx="7.15281" ry="7.13497" fill="#7171FF"/>
<path d="M21.1218 18.1411C20.7289 17.6297 19.9617 17.6185 19.554 18.1182L17.1553 21.0582C16.8494 21.433 16.8558 21.9731 17.1704 22.3406L19.551 25.1221C19.964 25.6047 20.7164 25.5849 21.1035 25.0814L23.3113 22.21C23.5875 21.8507 23.5876 21.3506 23.3115 20.9912L21.1218 18.1411Z" fill="white"/>
</svg>
