<svg width="28" height="32" viewBox="0 0 28 32" fill="none" xmlns="http://www.w3.org/2000/svg">
<rect y="5.88965" width="26" height="26" rx="2" fill="#E1E1FF"/>
<circle cx="14.9353" cy="3.82601" r="3.05405" transform="rotate(-17.3518 14.9353 3.82601)" fill="#F7941F"/>
<path d="M14.6334 2.13098C14.5278 2.05654 14.3804 2.10024 14.3325 2.2202L13.553 4.17017C13.5171 4.25984 13.5505 4.36232 13.6322 4.41372L15.3558 5.4974C15.4635 5.56512 15.6063 5.51639 15.6501 5.39693L16.34 3.51521C16.3711 3.43028 16.3414 3.33502 16.2674 3.2829L14.6334 2.13098Z" fill="white"/>
<circle cx="9.8259" cy="9.71566" r="3.05405" transform="rotate(-17.3518 9.8259 9.71566)" fill="#F7941F"/>
<path d="M9.52405 8.02063C9.41846 7.94619 9.27106 7.98989 9.2231 8.10985L8.44361 10.0598C8.40776 10.1495 8.44111 10.252 8.52286 10.3034L10.2465 11.3871C10.3542 11.4548 10.4969 11.406 10.5407 11.2866L11.2306 9.40486C11.2617 9.31993 11.232 9.22467 11.1581 9.17255L9.52405 8.02063Z" fill="white"/>
<circle cx="23.0546" cy="7.94376" r="3.05405" transform="rotate(20.7001 23.0546 7.94376)" fill="#F7941F"/>
<rect x="21.9999" y="8.88965" width="2" height="2" rx="0.2" transform="rotate(-90 21.9999 8.88965)" fill="white"/>
<rect x="4" y="8.88965" width="24" height="20" rx="1" fill="#7171FF"/>
<rect x="21" y="14.8896" width="7" height="7" rx="1" fill="#E1E1FF"/>
</svg>
