<svg width="31" height="32" viewBox="0 0 31 32" fill="none" xmlns="http://www.w3.org/2000/svg">
<rect x="5" width="26" height="32" rx="2" fill="#E1E1FF"/>
<rect y="18" width="12" height="13" rx="1" fill="#F7941F"/>
<rect y="2" width="24" height="13" rx="1" fill="#7171FF"/>
<path d="M8 8C8 6.89543 8.89543 6 10 6H14C15.1046 6 16 6.89543 16 8V15H8V8Z" fill="white"/>
<path d="M1 21C1 19.8954 1.89543 19 3 19C4.10457 19 5 19.8954 5 21C5 22.1046 4.10457 23 3 23C1.89543 23 1 22.1046 1 21Z" fill="white"/>
<path d="M7 21C7 19.8954 7.89543 19 9 19C10.1046 19 11 19.8954 11 21C11 22.1046 10.1046 23 9 23C7.89543 23 7 22.1046 7 21Z" fill="white"/>
<rect x="14" y="18" width="10" height="13" rx="1" fill="#F7941F"/>
<path d="M19 21C19 19.8954 19.8954 19 21 19C22.1046 19 23 19.8954 23 21C23 22.1046 22.1046 23 21 23H19V21Z" fill="white"/>
<path d="M19 28C19 29.1046 18.1046 30 17 30C15.8954 30 15 29.1046 15 28C15 26.8954 15.8954 26 17 26L19 26L19 28Z" fill="white"/>
</svg>
