<svg width="158" height="113" viewBox="0 0 158 113" fill="none" xmlns="http://www.w3.org/2000/svg">
<ellipse cx="32.822" cy="79.0776" rx="23.7641" ry="24.5067" transform="rotate(-29.929 32.822 79.0776)" fill="#7171FF"/>
<rect x="25.7969" y="66.1702" width="20.3762" height="20.3762" rx="2" transform="rotate(15.071 25.7969 66.1702)" fill="#F7F7F9"/>
<ellipse cx="124.603" cy="33.0952" rx="23.7641" ry="24.5067" transform="rotate(-29.929 124.603 33.0952)" fill="#7171FF"/>
<circle cx="84.0571" cy="28.1592" r="7.42627" transform="rotate(-29.929 84.0571 28.1592)" fill="#F7941F"/>
<rect x="117.576" y="20.1873" width="20.3762" height="20.3762" rx="2" transform="rotate(15.071 117.576 20.1873)" fill="#F7F7F9"/>
<ellipse cx="83.9206" cy="78.5276" rx="16.3378" ry="16.8483" transform="rotate(-29.929 83.9206 78.5276)" fill="#F7941F"/>
<rect x="79.09" y="69.6538" width="14.0087" height="14.0087" rx="2" transform="rotate(15.071 79.09 69.6538)" fill="#F7F7F9"/>
<path d="M45.2479 47.0748C57.1646 29.0747 79.9429 37.3836 80.7417 56.6325" stroke="#9EA5B0" stroke-width="2" stroke-dasharray="4 4"/>
<path d="M42.0546 52.5131C41.3544 52.8329 40.5705 52.2748 40.6437 51.5085L41.5761 41.7406C41.6492 40.9743 42.5245 40.5745 43.1516 41.0211L51.1446 46.7125C51.7717 47.159 51.6802 48.1169 50.98 48.4367L42.0546 52.5131Z" fill="#9EA5B0"/>
<path d="M136.617 66.2688C142.068 87.1567 120.678 98.5736 105.81 86.3212" stroke="#9EA5B0" stroke-width="2" stroke-dasharray="4 4"/>
<path d="M134.7 60.2614C134.929 59.5266 135.868 59.3154 136.389 59.8813L143.041 67.095C143.563 67.6609 143.276 68.5795 142.525 68.7485L132.952 70.9021C132.201 71.071 131.549 70.3636 131.778 69.6287L134.7 60.2614Z" fill="#9EA5B0"/>
</svg>
