<svg width="30" height="27" viewBox="0 0 30 27" fill="none" xmlns="http://www.w3.org/2000/svg">
<circle cx="14.1085" cy="13.4054" r="13.4054" fill="#E1E1FF"/>
<circle cx="23" cy="16.8105" r="7" fill="#7171FF"/>
<rect x="20" y="20" width="6" height="6" rx="1" transform="rotate(-90 20 20)" fill="white"/>
<circle cx="7" cy="12.8105" r="7" fill="#F7941F"/>
<path d="M7.91597 9.44045C7.52305 8.92775 6.75439 8.91651 6.34665 9.41751L4.0262 12.2687C3.72141 12.6432 3.72775 13.182 4.04127 13.5492L6.34366 16.246C6.75671 16.7298 7.51054 16.71 7.89768 16.2052L10.0334 13.4206C10.3087 13.0617 10.3088 12.5627 10.0336 12.2037L7.91597 9.44045Z" fill="white"/>
<line x1="20.2085" y1="6.79131" x2="23.5597" y2="6.75699" stroke="#F7941F" stroke-width="2"/>
<line x1="15.4683" y1="6.83941" x2="18.8194" y2="6.80508" stroke="#F7941F" stroke-width="2"/>
<line x1="10.9898" y1="22.845" x2="14.3409" y2="22.8107" stroke="#7171FF" stroke-width="2"/>
<line x1="5.98976" y1="22.845" x2="9.34093" y2="22.8107" stroke="#7171FF" stroke-width="2"/>
<path d="M27.5 5.94452C28.1667 6.32942 28.1667 7.29167 27.5 7.67657L26 8.5426C25.3333 8.9275 24.5 8.44637 24.5 7.67657L24.5 5.94452C24.5 5.17472 25.3333 4.6936 26 5.0785L27.5 5.94452Z" fill="#F7941F"/>
<path d="M1.5 23.6766C0.833333 23.2917 0.833333 22.3294 1.5 21.9445L3 21.0785C3.66667 20.6936 4.5 21.1747 4.5 21.9445L4.5 23.6766C4.5 24.4464 3.66667 24.9275 3 24.5426L1.5 23.6766Z" fill="#7171FF"/>
</svg>
