<svg width="28" height="38" viewBox="0 0 28 38" fill="none" xmlns="http://www.w3.org/2000/svg">
<ellipse cx="11.5" cy="19" rx="11.5" ry="12" fill="#E1E1FF"/>
<ellipse cx="2" cy="23" rx="2" ry="1" fill="#E1E1FF"/>
<ellipse cx="14" cy="16.5" rx="8" ry="7.5" fill="#7171FF"/>
<circle cx="3.5" cy="23.5" r="3.5" fill="#7171FF"/>
<circle cx="18.5" cy="29.5" r="3.5" fill="#7171FF"/>
<circle cx="10.5" cy="15.5" r="2.5" fill="white"/>
<circle cx="17.5" cy="17.5" r="2.5" fill="white"/>
<rect x="7.15173" y="6.77563" width="19.6454" height="3.14327" rx="1.57164" transform="rotate(16.6548 7.15173 6.77563)" fill="#F7941F"/>
<rect x="11.4374" y="0.675781" width="14.8939" height="8.644" rx="2" transform="rotate(16.6548 11.4374 0.675781)" fill="#F7941F"/>
<circle cx="12.0022" cy="32.7675" r="3.73049" transform="rotate(-17.3518 12.0022 32.7675)" fill="#F7941F"/>
<path d="M11.5876 30.6648C11.482 30.5904 11.3346 30.6341 11.2867 30.754L10.3 33.2223C10.2642 33.3119 10.2975 33.4144 10.3793 33.4658L12.5622 34.8383C12.6699 34.906 12.8126 34.8573 12.8564 34.7378L13.7297 32.3561C13.7608 32.2711 13.7311 32.1759 13.6571 32.1238L11.5876 30.6648Z" fill="white"/>
<circle cx="4.6733" cy="26.6601" r="3.73049" transform="rotate(-17.3518 4.6733 26.6601)" fill="#F7941F"/>
<path d="M4.25877 24.5574C4.15318 24.483 4.00577 24.5267 3.95782 24.6466L2.97115 27.1149C2.9353 27.2045 2.96865 27.307 3.0504 27.3584L5.23335 28.7309C5.34106 28.7986 5.48378 28.7499 5.52758 28.6304L6.40083 26.2487C6.43197 26.1637 6.40222 26.0685 6.32829 26.0163L4.25877 24.5574Z" fill="white"/>
</svg>
