<svg width="20" height="16" viewBox="0 0 20 16" fill="none" xmlns="http://www.w3.org/2000/svg">
<path d="M19.7491 1.23212C19.7488 1.21825 19.7481 1.20441 19.747 1.19058C19.7461 1.1793 19.745 1.16809 19.7436 1.15696C19.742 1.144 19.74 1.13112 19.7377 1.11823C19.7357 1.10661 19.7334 1.09507 19.7309 1.08365C19.7281 1.07143 19.7249 1.05932 19.7215 1.04723C19.7182 1.03568 19.7149 1.02423 19.7111 1.01292C19.7072 1.00111 19.7028 0.989484 19.6983 0.977859C19.694 0.966735 19.6895 0.955725 19.6847 0.9449C19.6796 0.933456 19.6741 0.922217 19.6684 0.911002C19.663 0.90036 19.6574 0.88983 19.6516 0.879485C19.6454 0.868798 19.639 0.858291 19.6324 0.84783C19.6256 0.83728 19.6187 0.826933 19.6115 0.816748C19.6047 0.807159 19.5976 0.797752 19.5903 0.788413C19.5821 0.777908 19.5736 0.767695 19.5648 0.757651C19.5607 0.752913 19.5571 0.747878 19.5529 0.743214C19.5493 0.739276 19.5453 0.735935 19.5416 0.73209C19.5326 0.722614 19.5232 0.713528 19.5137 0.704532C19.5048 0.696201 19.4959 0.687939 19.4868 0.680088C19.4778 0.672401 19.4685 0.665119 19.4591 0.65784C19.4488 0.649872 19.4386 0.641979 19.4281 0.634633C19.4189 0.628246 19.4094 0.622318 19.4 0.616345C19.3888 0.609295 19.3777 0.602268 19.3663 0.595859C19.3563 0.590275 19.346 0.585217 19.3358 0.58009C19.3245 0.574437 19.3133 0.568737 19.3018 0.563684C19.2905 0.558739 19.279 0.554437 19.2676 0.550042C19.2565 0.545831 19.2455 0.541551 19.2344 0.537888C19.2222 0.533883 19.2098 0.530541 19.1975 0.527154C19.1864 0.524132 19.1753 0.521088 19.1642 0.518593C19.1518 0.515824 19.1392 0.51365 19.1267 0.511498C19.1148 0.509484 19.1029 0.507516 19.091 0.506074C19.0791 0.504632 19.0672 0.50367 19.0552 0.502801C19.0421 0.501839 19.029 0.501084 19.0158 0.500809C19.0105 0.500686 19.0054 0.5 19 0.5H1C0.994965 0.5 0.990112 0.500664 0.985077 0.500756C0.971253 0.50103 0.957428 0.501808 0.94365 0.502838C0.932251 0.503708 0.920944 0.5046 0.909729 0.505951C0.89714 0.507462 0.884643 0.509521 0.872101 0.511696C0.860153 0.513759 0.848206 0.515793 0.836487 0.518425C0.824674 0.521057 0.813049 0.524261 0.801331 0.527466C0.789518 0.530716 0.77771 0.533897 0.766128 0.537697C0.75441 0.541541 0.742878 0.546005 0.731293 0.550447C0.720352 0.554658 0.709366 0.558777 0.698654 0.56347C0.686706 0.568711 0.675029 0.574616 0.66331 0.580522C0.653466 0.585465 0.643622 0.590294 0.63406 0.59565C0.622341 0.602219 0.610897 0.609432 0.599453 0.616685C0.590298 0.622498 0.581051 0.628266 0.572172 0.63447C0.561415 0.641931 0.551024 0.649938 0.540633 0.658044C0.531385 0.665208 0.52223 0.672395 0.513351 0.679993C0.504105 0.68789 0.495178 0.696198 0.486206 0.704644C0.476731 0.713571 0.467438 0.722635 0.458419 0.732041C0.454758 0.73591 0.450732 0.739274 0.447113 0.743211C0.442856 0.74788 0.439285 0.752915 0.435166 0.757648C0.426422 0.767696 0.417908 0.777905 0.409666 0.788411C0.402388 0.797749 0.395292 0.807161 0.388517 0.816746C0.381285 0.826931 0.374372 0.837277 0.367643 0.847827C0.361006 0.858288 0.354551 0.868794 0.348417 0.879482C0.342557 0.889827 0.337019 0.900357 0.331618 0.910999C0.325941 0.922214 0.320402 0.933453 0.315275 0.944897C0.310469 0.955723 0.306029 0.966732 0.301726 0.977856C0.297194 0.989481 0.292799 1.00111 0.288862 1.01292C0.285112 1.02423 0.281767 1.03567 0.278517 1.04723C0.27513 1.05932 0.271925 1.07142 0.269133 1.08365C0.266569 1.09507 0.264326 1.1066 0.262266 1.11823C0.259978 1.13112 0.257963 1.144 0.25636 1.15696C0.254985 1.1681 0.253871 1.17931 0.253019 1.19058C0.25192 1.20443 0.251218 1.21827 0.250913 1.23212C0.250778 1.23812 0.25 1.24396 0.25 1.25V14C0.250455 14.3977 0.408636 14.779 0.689842 15.0602C0.971048 15.3414 1.35231 15.4995 1.75 15.5H18.25C18.6477 15.4995 19.029 15.3414 19.3102 15.0602C19.5914 14.779 19.7495 14.3977 19.75 14V1.25C19.75 1.24396 19.7492 1.23812 19.7491 1.23212ZM1.75 2.95496L7.25369 8.00003L1.75 13.0451V2.95496ZM2.92819 14L8.36368 9.01749L9.49316 10.0529C9.6315 10.1797 9.81234 10.25 10 10.25C10.1877 10.25 10.3685 10.1797 10.5068 10.0529L11.6364 9.01747L17.0719 14H2.92819ZM12.7463 8L18.2501 2.95483L18.2509 13.0458L12.7463 8Z" fill="#9EA5B0"/>
</svg>
