<svg width="29" height="25" viewBox="0 0 29 25" fill="none" xmlns="http://www.w3.org/2000/svg">
<circle cx="13.3213" cy="10.7525" r="9.24367" fill="#E1E1FF"/>
<line x1="19.0948" y1="11.8285" x2="20.7289" y2="13.4626" stroke="#7171FF" stroke-width="2"/>
<line x1="21.4066" y1="14.1401" x2="23.0406" y2="15.7741" stroke="#7171FF" stroke-width="2"/>
<line x1="8.03053" y1="11.3822" x2="6.8376" y2="13.3614" stroke="#7171FF" stroke-width="2"/>
<line x1="6.34413" y1="14.1822" x2="5.15119" y2="16.1614" stroke="#7171FF" stroke-width="2"/>
<line x1="13.8369" y1="12.5559" x2="13.8369" y2="14.8668" stroke="#7171FF" stroke-width="2"/>
<line x1="13.8369" y1="15.8225" x2="13.8369" y2="18.1334" stroke="#7171FF" stroke-width="2"/>
<circle cx="25.4543" cy="19.6032" r="2.88865" fill="#F7941F"/>
<rect x="24.0887" y="20.9688" width="2.83613" height="2.83613" rx="1.41806" transform="rotate(-90 24.0887 20.9688)" fill="white"/>
<circle cx="13.7546" cy="22.1113" r="2.88865" fill="#F7941F"/>
<rect x="12.3892" y="23.4766" width="2.83613" height="2.83613" rx="1" transform="rotate(-90 12.3892 23.4766)" fill="white"/>
<circle cx="2.88865" cy="19.6032" r="2.88865" fill="#F7941F"/>
<rect x="2.91248" y="21.5559" width="2.83613" height="2.83613" rx="1" transform="rotate(-134.179 2.91248 21.5559)" fill="white"/>
<circle cx="13.4211" cy="5.89908" r="5.89908" fill="#F7941F"/>
<path d="M14.3132 3.21877C13.9202 2.70607 13.1516 2.69483 12.7438 3.19583L10.9968 5.34246C10.692 5.71696 10.6983 6.25577 11.0119 6.623L12.7409 8.64815C13.1539 9.13195 13.9077 9.11219 14.2949 8.60742L15.9031 6.51054C16.1783 6.15164 16.1784 5.65267 15.9033 5.29368L14.3132 3.21877Z" fill="white"/>
</svg>
