<svg width="20" height="21" viewBox="0 0 20 21" fill="none" xmlns="http://www.w3.org/2000/svg">
<path d="M18.25 2.75H10.75V1.25C10.75 1.05109 10.671 0.860322 10.5303 0.71967C10.3897 0.579018 10.1989 0.5 10 0.5C9.80109 0.5 9.61032 0.579018 9.46967 0.71967C9.32902 0.860322 9.25 1.05109 9.25 1.25V2.75H1.75C1.35231 2.75045 0.971048 2.90864 0.689842 3.18984C0.408636 3.47105 0.250455 3.85231 0.25 4.25V15.5C0.250455 15.8977 0.408636 16.279 0.689842 16.5602C0.971048 16.8414 1.35231 16.9995 1.75 17H5.43958L3.41434 19.5315C3.35272 19.6084 3.30685 19.6967 3.27937 19.7913C3.25189 19.886 3.24333 19.9851 3.25417 20.083C3.26502 20.181 3.29506 20.2758 3.34258 20.3622C3.3901 20.4485 3.45417 20.5246 3.53112 20.5862C3.60807 20.6477 3.6964 20.6935 3.79106 20.7209C3.88572 20.7483 3.98485 20.7568 4.08278 20.7459C4.18072 20.7349 4.27554 20.7048 4.36182 20.6572C4.44811 20.6096 4.52417 20.5455 4.58566 20.4685L7.36044 17H12.6396L15.4143 20.4685C15.5386 20.6236 15.7195 20.723 15.9171 20.7449C16.1146 20.7668 16.3128 20.7093 16.4681 20.5852C16.6233 20.461 16.7229 20.2802 16.7449 20.0827C16.767 19.8851 16.7097 19.6869 16.5857 19.5315L14.5604 17H18.25C18.6477 16.9995 19.029 16.8414 19.3102 16.5602C19.5914 16.279 19.7495 15.8977 19.75 15.5V4.25C19.7495 3.85231 19.5914 3.47105 19.3102 3.18984C19.029 2.90864 18.6477 2.75045 18.25 2.75Z" fill="#9EA5B0"/>
</svg>
