<svg width="20" height="18" viewBox="0 0 20 18" fill="none" xmlns="http://www.w3.org/2000/svg">
<path d="M16.75 11.75C16.0851 11.7509 15.4392 11.9722 14.9136 12.3793C14.3879 12.7865 14.0121 13.3564 13.8449 14H4.75C3.95435 14 3.19129 13.6839 2.62868 13.1213C2.06607 12.5587 1.75 11.7956 1.75 11C1.75 10.2044 2.06607 9.44129 2.62868 8.87868C3.19129 8.31607 3.95435 8 4.75 8H13.75C14.7446 8 15.6984 7.60491 16.4016 6.90165C17.1049 6.19839 17.5 5.24456 17.5 4.25C17.5 3.25544 17.1049 2.30161 16.4016 1.59835C15.6984 0.895088 14.7446 0.5 13.75 0.5H4.75C4.55109 0.5 4.36032 0.579018 4.21967 0.71967C4.07902 0.860322 4 1.05109 4 1.25C4 1.44891 4.07902 1.63968 4.21967 1.78033C4.36032 1.92098 4.55109 2 4.75 2H13.75C14.3467 2 14.919 2.23705 15.341 2.65901C15.7629 3.08097 16 3.65326 16 4.25C16 4.84674 15.7629 5.41903 15.341 5.84099C14.919 6.26295 14.3467 6.5 13.75 6.5H4.75C3.55653 6.5 2.41193 6.97411 1.56802 7.81802C0.724106 8.66193 0.25 9.80653 0.25 11C0.25 12.1935 0.724106 13.3381 1.56802 14.182C2.41193 15.0259 3.55653 15.5 4.75 15.5H13.8449C13.9852 16.0433 14.275 16.5364 14.6815 16.9233C15.0879 17.3101 15.5947 17.5753 16.1443 17.6885C16.6939 17.8018 17.2642 17.7587 17.7905 17.564C18.3168 17.3694 18.7779 17.0311 19.1216 16.5875C19.4652 16.1439 19.6776 15.6128 19.7345 15.0546C19.7915 14.4963 19.6907 13.9333 19.4437 13.4295C19.1967 12.9256 18.8133 12.5012 18.3372 12.2043C17.861 11.9074 17.3111 11.75 16.75 11.75V11.75Z" fill="#9EA5B0"/>
</svg>
