<svg width="30" height="35" viewBox="0 0 30 35" fill="none" xmlns="http://www.w3.org/2000/svg">
<rect x="3.36597" y="6" width="26" height="29" rx="1" fill="#E1E1FF"/>
<path d="M12.2739 1.04485C4.74624 1.69944 2.59157 8.4089 2.4552 11.6818C9.81925 11.9546 24.5473 12.3364 24.5473 11.6818C24.5473 10.8636 21.6836 0.226627 12.2739 1.04485Z" stroke="#F7941F" stroke-width="2"/>
<circle cx="13.1412" cy="12.1395" r="9.04963" fill="#7171FF"/>
<rect x="3.27271" y="8" width="20.4557" height="10.637" rx="2" fill="#F7941F"/>
<rect x="5.72803" y="9.63574" width="15.5463" height="7.36405" rx="1" fill="white"/>
<rect width="4.09114" height="1.63646" rx="0.5" transform="matrix(-4.37114e-08 -1 -1 4.37114e-08 3.27271 15.3635)" fill="#F7941F"/>
<rect width="4.09114" height="1.63646" rx="0.5" transform="matrix(-4.37114e-08 -1 -1 4.37114e-08 25.3654 15.3635)" fill="#F7941F"/>
<path d="M13.0923 1.04443V6.77203" stroke="#F7941F" stroke-width="2"/>
<rect width="9.81873" height="1.63646" rx="0.5" transform="matrix(1 0 0 -1 8.18164 8)" fill="#F7941F"/>
<circle cx="4.09114" cy="26.0006" r="4.09114" fill="#7171FF"/>
<circle cx="21.2749" cy="26.0006" r="4.09114" fill="#7171FF"/>
</svg>
