<svg width="299" height="273" viewBox="0 0 299 273" fill="none" xmlns="http://www.w3.org/2000/svg">
<rect x="6" width="201" height="223" rx="9" fill="#F7F7F9"/>
<path d="M287.423 168C293.498 168 298.423 163.075 298.423 157C298.423 150.925 293.498 146 287.423 146C281.348 146 276.423 150.925 276.423 157C276.423 163.075 281.348 168 287.423 168Z" fill="black"/>
<path fill-rule="evenodd" clip-rule="evenodd" d="M294.768 151.949C294.729 151.816 294.653 151.759 294.515 151.759L290.725 151.759C288.198 151.759 285.671 151.759 283.143 151.759C282.999 151.759 282.877 151.809 282.775 151.911C282.032 152.654 281.29 153.398 280.547 154.14C280.505 154.181 280.482 154.23 280.464 154.283V154.347L280.467 154.352L280.467 154.352C280.469 154.355 280.471 154.358 280.472 154.362C280.505 154.485 280.585 154.546 280.714 154.546L284.447 154.546L288.18 154.546L288.964 154.546C290.009 154.546 291.053 154.546 292.098 154.547C292.243 154.547 292.363 154.497 292.465 154.394C293.201 153.658 293.937 152.921 294.674 152.186C294.72 152.14 294.755 152.09 294.774 152.029V151.958L294.773 151.956C294.771 151.954 294.769 151.952 294.768 151.949ZM294.633 158.268L294.417 158.052L294.417 158.051C293.769 157.404 293.122 156.757 292.476 156.109C292.364 155.996 292.235 155.944 292.076 155.944C289.558 155.945 287.04 155.945 284.522 155.945H284.522L280.746 155.946C280.581 155.946 280.52 155.989 280.468 156.144C280.467 156.146 280.466 156.147 280.465 156.148H280.465L280.463 156.15V156.207C280.481 156.288 280.536 156.343 280.591 156.397L280.611 156.416C281.33 157.135 282.05 157.854 282.768 158.575C282.874 158.681 282.997 158.732 283.148 158.732C286.931 158.731 290.715 158.732 294.498 158.732L294.516 158.732C294.539 158.733 294.562 158.733 294.584 158.729C294.678 158.709 294.736 158.65 294.764 158.559C294.766 158.553 294.768 158.547 294.77 158.541L294.77 158.54L294.773 158.533V158.469C294.756 158.39 294.703 158.337 294.649 158.284L294.633 158.268ZM290.962 160.189C292.15 160.189 293.339 160.188 294.528 160.188C294.653 160.188 294.735 160.251 294.766 160.372C294.767 160.376 294.77 160.379 294.772 160.383C294.773 160.384 294.774 160.386 294.775 160.387V160.452C294.756 160.517 294.717 160.569 294.669 160.617C293.937 161.348 293.205 162.079 292.474 162.813C292.364 162.924 292.236 162.975 292.081 162.975C288.332 162.974 284.583 162.974 280.835 162.974C280.822 162.974 280.809 162.974 280.797 162.974C280.771 162.974 280.746 162.974 280.72 162.974C280.571 162.975 280.487 162.881 280.472 162.778C280.472 162.775 280.47 162.772 280.468 162.768C280.466 162.766 280.465 162.765 280.464 162.763V162.72C280.481 162.651 280.52 162.597 280.57 162.547C281.306 161.812 282.042 161.075 282.777 160.338C282.877 160.238 282.994 160.189 283.136 160.189C284.082 160.189 285.029 160.189 285.976 160.189C286.449 160.189 286.922 160.189 287.395 160.189C288.584 160.189 289.773 160.189 290.962 160.189Z" fill="url(#paint0_linear_6342_33563)"/>
<rect y="34" width="170.097" height="204.265" rx="4" fill="#E1E1FF"/>
<rect x="16.8413" y="44.8994" width="135.672" height="68.0787" rx="4.5" fill="white" stroke="#C8C9CB"/>
<path d="M16.4085 99.4781V88.1517C16.4085 87.3535 16.7792 86.6618 17.5775 86.6618C18.8867 86.6618 20.6167 88.1683 21.318 88.9216C22.0973 89.926 24.3105 91.9347 26.9289 91.9347C29.5473 91.9347 31.4488 88.8212 32.0722 87.2644C32.8515 85.6072 35.0647 82.3531 37.6831 82.5941C40.9561 82.8954 42.3588 93.1399 43.2939 96.4543C44.2291 99.7687 45.8656 104.891 47.9697 104.74C50.0737 104.59 51.0089 101.878 51.7103 99.9193C55.217 86.2098 55.9184 85.1552 57.3211 84.1007C58.7238 83.0461 60.5941 83.95 61.9968 84.7033C63.3996 85.4565 65.2699 88.6203 68.7766 88.9216C71.5821 89.1626 73.5303 87.415 74.1537 86.5111C74.6213 85.6072 76.3046 83.7692 79.297 83.6487C83.0376 83.498 83.2714 82.2928 84.9079 81.2382C86.5444 80.1837 87.2458 79.2797 90.5188 78.9784C93.1372 78.7374 94.8828 77.271 95.4283 76.5679C96.2076 75.6138 98.374 73.7658 100.805 74.0068C103.845 74.3081 105.247 81.0876 106.182 85.1552C107.118 89.2229 109.455 93.7425 109.923 94.0438C110.391 94.3451 111.326 94.4958 112.962 93.8932C114.271 93.4111 116.157 89.6749 116.937 87.867C117.404 86.7622 118.713 84.2814 120.21 83.1967C120.898 82.6979 121.678 82.626 122.396 82.7524C122.454 82.7627 122.484 82.7678 123.675 83.5388C124.867 84.3098 125.135 84.7048 125.671 85.4948L127.691 88.4696C128.392 89.3233 129.842 91.0307 130.029 91.0307C130.262 91.0307 131.431 92.0853 134.003 91.7839C136.575 91.4826 136.808 90.2774 140.081 89.2228C143.354 88.1682 146.394 89.2228 148.03 90.2774C150.614 91.9423 152.94 94.2631 152.94 97.3366V101.567C152.94 106.16 152.94 108.457 151.903 110.143C151.328 111.079 150.541 111.867 149.605 112.442C147.919 113.478 145.622 113.478 141.028 113.478H30.4085C23.8089 113.478 20.509 113.478 18.4588 111.428C16.4085 109.378 16.4085 106.078 16.4085 99.4781Z" fill="url(#paint1_linear_6342_33563)" fill-opacity="0.14"/>
<path d="M148.42 90.1498C149.594 90.8291 150.71 91.4749 152.754 91.5876C152.897 91.5954 153.011 91.714 153.008 91.8571C153.005 92.0024 152.883 92.1176 152.738 92.1101C150.397 91.9888 149.121 91.2511 147.881 90.5332C146.585 89.7816 145.359 89.0724 142.881 89.0724C140.406 89.0724 139.186 89.7796 137.891 90.53L137.886 90.5332C136.534 91.3165 135.134 92.128 132.344 92.128C129.431 92.128 128.046 89.7249 126.704 87.3954L126.692 87.3752C125.445 85.2052 124.154 82.9611 121.801 82.9611C119.47 82.9611 118.174 85.8157 116.921 88.5784C115.52 91.6623 114.196 94.5732 111.259 94.5732C108.282 94.5732 107.035 89.7604 105.591 84.1855L105.588 84.1763C104.44 79.7427 103.012 74.2318 100.721 74.2318C98.3047 74.2318 97.0847 75.4054 95.7944 76.6466L95.7921 76.6488L95.7916 76.6493C94.4349 77.9511 93.0344 79.2951 90.1843 79.2951C87.7512 79.2951 86.5312 80.3453 85.2408 81.4561L85.2386 81.458L85.2367 81.4597C83.8805 82.6271 82.4799 83.8327 79.6418 83.8327C77.2345 83.8327 76.009 85.0676 74.7179 86.3731L74.7155 86.3756C73.3594 87.7439 71.9588 89.1571 69.1047 89.1571C66.2603 89.1571 64.8649 87.7745 63.5132 86.4352L63.4969 86.419C62.2058 85.1311 60.9803 83.9174 58.5676 83.9174C56.2768 83.9174 54.8493 89.643 53.7008 94.2495L53.6984 94.2592C52.2595 100.046 51.0121 105.042 48.0305 105.042C45.0483 105.042 43.8056 99.7989 42.3644 93.7184L42.3571 93.6876L42.3436 93.6309C41.1916 88.782 39.7659 82.7812 37.4879 82.7812C35.1408 82.7812 33.8497 85.0676 32.6023 87.28L32.5994 87.2851C31.2544 89.6652 29.8647 92.1245 26.9508 92.1245C24.0949 92.1245 22.6944 90.7343 21.3376 89.3864L21.329 89.3779C20.0832 88.144 18.9056 86.9775 16.6697 86.8932C16.5256 86.8877 16.4082 86.7714 16.4082 86.6272C16.4082 86.483 16.5252 86.3656 16.6693 86.3701C19.3393 86.452 20.6899 87.7903 21.9996 89.088L22.016 89.1042C23.3071 90.392 24.5326 91.6058 26.9453 91.6058C29.2924 91.6058 30.5835 89.3194 31.8309 87.1071L31.8338 87.1019C33.1787 84.7218 34.5685 82.2625 37.4824 82.2625C40.4583 82.2625 41.7012 87.5031 43.142 93.5783L43.1503 93.6135C44.2992 98.4722 45.7326 104.523 48.0195 104.523C50.3103 104.523 51.7378 98.7977 52.8863 94.1912L52.8887 94.1816L52.8961 94.1517C54.3373 88.3778 55.5801 83.3987 58.5566 83.3987C61.4125 83.3987 62.813 84.7889 64.1698 86.1367L64.1785 86.1453C65.4719 87.4265 66.6918 88.6349 69.0992 88.6349C71.5119 88.6349 72.7374 87.4035 74.0285 86.0944C75.3799 84.7254 76.7804 83.3105 79.6363 83.3105C82.0709 83.3105 83.2909 82.259 84.5821 81.144C85.9334 79.9761 87.334 78.7694 90.1734 78.7694C92.5901 78.7694 93.8101 77.5958 95.1005 76.3546L95.1027 76.3524L95.1032 76.3519C96.4599 75.0501 97.8605 73.7061 100.711 73.7061C103.692 73.7061 104.939 78.521 106.383 84.095L106.384 84.0973L106.388 84.113C107.536 88.5421 108.963 94.0475 111.253 94.0475C113.584 94.0475 114.88 91.193 116.133 88.4302C117.528 85.3499 118.852 82.4389 121.79 82.4389C124.705 82.4389 126.095 84.8545 127.44 87.1932L127.442 87.1953L127.452 87.2128C128.696 89.3739 129.981 91.6058 132.327 91.6058C134.806 91.6058 136.031 90.8966 137.328 90.145L137.343 90.1362C138.695 89.3556 140.09 88.5502 142.87 88.5502C145.66 88.5502 147.061 89.3617 148.412 90.145L148.42 90.1498Z" fill="#7171FF"/>
<path d="M62.692 62.216H61C61.08 63.16 61.372 63.876 61.876 64.364C62.38 64.852 63.08 65.128 63.976 65.192V66.212H64.684V65.192C65.284 65.152 65.776 65.032 66.16 64.832C66.544 64.632 66.848 64.404 67.072 64.148C67.304 63.892 67.464 63.632 67.552 63.368C67.64 63.096 67.684 62.872 67.684 62.696C67.684 62.496 67.668 62.268 67.636 62.012C67.612 61.756 67.524 61.5 67.372 61.244C67.22 60.988 66.984 60.744 66.664 60.512C66.344 60.272 65.888 60.072 65.296 59.912C65.184 59.88 65.076 59.852 64.972 59.828C64.876 59.804 64.78 59.78 64.684 59.756V57.632C64.956 57.632 65.188 57.744 65.38 57.968C65.572 58.192 65.672 58.464 65.68 58.784H67.384C67.36 58.368 67.272 58.008 67.12 57.704C66.968 57.4 66.772 57.148 66.532 56.948C66.292 56.74 66.012 56.58 65.692 56.468C65.38 56.348 65.044 56.268 64.684 56.228V55.304H63.976V56.228C63.616 56.252 63.268 56.324 62.932 56.444C62.596 56.556 62.3 56.72 62.044 56.936C61.788 57.144 61.58 57.404 61.42 57.716C61.268 58.028 61.192 58.388 61.192 58.796C61.192 59.196 61.26 59.532 61.396 59.804C61.532 60.068 61.712 60.292 61.936 60.476C62.168 60.652 62.428 60.796 62.716 60.908C63.004 61.012 63.296 61.104 63.592 61.184C63.672 61.2 63.744 61.22 63.808 61.244C63.88 61.26 63.936 61.276 63.976 61.292V63.8C63.608 63.728 63.3 63.56 63.052 63.296C62.804 63.032 62.684 62.672 62.692 62.216ZM64.684 63.8V61.496C65.156 61.624 65.488 61.768 65.68 61.928C65.88 62.08 65.98 62.312 65.98 62.624C65.98 62.816 65.94 62.984 65.86 63.128C65.78 63.264 65.676 63.38 65.548 63.476C65.428 63.572 65.288 63.648 65.128 63.704C64.976 63.752 64.828 63.784 64.684 63.8ZM63.976 57.632V59.588C63.592 59.5 63.316 59.384 63.148 59.24C62.98 59.096 62.896 58.892 62.896 58.628C62.896 58.46 62.924 58.316 62.98 58.196C63.044 58.068 63.128 57.964 63.232 57.884C63.336 57.796 63.452 57.732 63.58 57.692C63.708 57.652 63.84 57.632 63.976 57.632ZM73.668 58.004V56.6H68.976L68.148 61.244H69.684C69.852 61.012 70.032 60.844 70.224 60.74C70.416 60.628 70.664 60.572 70.968 60.572C71.2 60.572 71.404 60.612 71.58 60.692C71.756 60.772 71.908 60.884 72.036 61.028C72.164 61.172 72.26 61.34 72.324 61.532C72.388 61.724 72.42 61.928 72.42 62.144C72.42 62.352 72.384 62.556 72.312 62.756C72.248 62.948 72.152 63.12 72.024 63.272C71.904 63.416 71.752 63.536 71.568 63.632C71.392 63.72 71.192 63.764 70.968 63.764C70.584 63.764 70.268 63.652 70.02 63.428C69.772 63.196 69.628 62.888 69.588 62.504H67.884C67.892 62.944 67.98 63.332 68.148 63.668C68.324 63.996 68.556 64.272 68.844 64.496C69.132 64.72 69.46 64.888 69.828 65C70.204 65.104 70.596 65.156 71.004 65.156C71.428 65.164 71.828 65.096 72.204 64.952C72.58 64.8 72.908 64.588 73.188 64.316C73.476 64.044 73.704 63.724 73.872 63.356C74.04 62.98 74.124 62.576 74.124 62.144C74.124 61.752 74.064 61.384 73.944 61.04C73.832 60.688 73.664 60.384 73.44 60.128C73.224 59.872 72.956 59.668 72.636 59.516C72.316 59.364 71.948 59.288 71.532 59.288C71.196 59.288 70.896 59.34 70.632 59.444C70.368 59.54 70.12 59.704 69.888 59.936L69.864 59.912L70.2 58.004H73.668ZM77.0719 59.996V61.196C77.2799 61.196 77.4959 61.204 77.7199 61.22C77.9519 61.228 78.1639 61.272 78.3559 61.352C78.5479 61.424 78.7039 61.544 78.8239 61.712C78.9519 61.88 79.0159 62.124 79.0159 62.444C79.0159 62.852 78.8839 63.176 78.6199 63.416C78.3559 63.648 78.0319 63.764 77.6479 63.764C77.3999 63.764 77.1839 63.72 76.9999 63.632C76.8239 63.544 76.6759 63.428 76.5559 63.284C76.4359 63.132 76.3439 62.956 76.2799 62.756C76.2159 62.548 76.1799 62.332 76.1719 62.108H74.5519C74.5439 62.596 74.6119 63.028 74.7559 63.404C74.9079 63.78 75.1199 64.1 75.3919 64.364C75.6639 64.62 75.9919 64.816 76.3759 64.952C76.7679 65.088 77.1999 65.156 77.6719 65.156C78.0799 65.156 78.4719 65.096 78.8479 64.976C79.2239 64.856 79.5559 64.68 79.8439 64.448C80.1319 64.216 80.3599 63.928 80.5279 63.584C80.7039 63.24 80.7919 62.848 80.7919 62.408C80.7919 61.928 80.6599 61.516 80.3959 61.172C80.1319 60.828 79.7679 60.604 79.3039 60.5V60.476C79.6959 60.364 79.9879 60.152 80.1799 59.84C80.3799 59.528 80.4799 59.168 80.4799 58.76C80.4799 58.384 80.3959 58.052 80.2279 57.764C80.0599 57.476 79.8399 57.232 79.5679 57.032C79.3039 56.832 79.0039 56.684 78.6679 56.588C78.3319 56.484 77.9959 56.432 77.6599 56.432C77.2279 56.432 76.8359 56.504 76.4839 56.648C76.1319 56.784 75.8279 56.98 75.5719 57.236C75.3239 57.492 75.1279 57.8 74.9839 58.16C74.8479 58.512 74.7719 58.904 74.7559 59.336H76.3759C76.3679 58.904 76.4719 58.548 76.6879 58.268C76.9119 57.98 77.2399 57.836 77.6719 57.836C77.9839 57.836 78.2599 57.932 78.4999 58.124C78.7399 58.316 78.8599 58.592 78.8599 58.952C78.8599 59.192 78.7999 59.384 78.6799 59.528C78.5679 59.672 78.4199 59.784 78.2359 59.864C78.0599 59.936 77.8679 59.98 77.6599 59.996C77.4519 60.012 77.2559 60.012 77.0719 59.996ZM81.7359 63.152V65H82.5999C82.6079 65.128 82.5919 65.252 82.5519 65.372C82.5119 65.5 82.4519 65.612 82.3719 65.708C82.2919 65.812 82.1959 65.9 82.0839 65.972C81.9799 66.044 81.8679 66.092 81.7479 66.116V66.98C82.0039 66.94 82.2439 66.864 82.4679 66.752C82.6999 66.648 82.8999 66.512 83.0679 66.344C83.2359 66.176 83.3679 65.976 83.4639 65.744C83.5679 65.52 83.6199 65.272 83.6199 65V63.152H81.7359ZM88.0878 58.736V61.652H85.8798L88.0518 58.736H88.0878ZM88.0878 63.056V65H89.7078V63.056H90.8238V61.652H89.7078V56.6H88.1838L84.5358 61.496V63.056H88.0878ZM93.7477 59.996V61.196C93.9557 61.196 94.1717 61.204 94.3957 61.22C94.6277 61.228 94.8397 61.272 95.0317 61.352C95.2237 61.424 95.3797 61.544 95.4997 61.712C95.6277 61.88 95.6917 62.124 95.6917 62.444C95.6917 62.852 95.5597 63.176 95.2957 63.416C95.0317 63.648 94.7077 63.764 94.3237 63.764C94.0757 63.764 93.8597 63.72 93.6757 63.632C93.4997 63.544 93.3517 63.428 93.2317 63.284C93.1117 63.132 93.0197 62.956 92.9557 62.756C92.8917 62.548 92.8557 62.332 92.8477 62.108H91.2277C91.2197 62.596 91.2877 63.028 91.4317 63.404C91.5837 63.78 91.7957 64.1 92.0677 64.364C92.3397 64.62 92.6677 64.816 93.0517 64.952C93.4437 65.088 93.8757 65.156 94.3477 65.156C94.7557 65.156 95.1477 65.096 95.5237 64.976C95.8997 64.856 96.2317 64.68 96.5197 64.448C96.8077 64.216 97.0357 63.928 97.2037 63.584C97.3797 63.24 97.4677 62.848 97.4677 62.408C97.4677 61.928 97.3357 61.516 97.0717 61.172C96.8077 60.828 96.4437 60.604 95.9797 60.5V60.476C96.3717 60.364 96.6637 60.152 96.8557 59.84C97.0557 59.528 97.1557 59.168 97.1557 58.76C97.1557 58.384 97.0717 58.052 96.9037 57.764C96.7357 57.476 96.5157 57.232 96.2437 57.032C95.9797 56.832 95.6797 56.684 95.3437 56.588C95.0077 56.484 94.6717 56.432 94.3357 56.432C93.9037 56.432 93.5117 56.504 93.1597 56.648C92.8077 56.784 92.5037 56.98 92.2477 57.236C91.9997 57.492 91.8037 57.8 91.6597 58.16C91.5237 58.512 91.4477 58.904 91.4317 59.336H93.0517C93.0437 58.904 93.1477 58.548 93.3637 58.268C93.5877 57.98 93.9157 57.836 94.3477 57.836C94.6597 57.836 94.9357 57.932 95.1757 58.124C95.4157 58.316 95.5357 58.592 95.5357 58.952C95.5357 59.192 95.4757 59.384 95.3557 59.528C95.2437 59.672 95.0957 59.784 94.9117 59.864C94.7357 59.936 94.5437 59.98 94.3357 59.996C94.1277 60.012 93.9317 60.012 93.7477 59.996ZM101.424 58.736V61.652H99.2157L101.388 58.736H101.424ZM101.424 63.056V65H103.044V63.056H104.16V61.652H103.044V56.6H101.52L97.8717 61.496V63.056H101.424Z" fill="#556174"/>
<rect x="16.3413" y="125.362" width="136.672" height="21.5407" rx="5" fill="white"/>
<rect x="16.3413" y="150.617" width="136.672" height="21.5407" rx="5" fill="white"/>
<rect x="16.3413" y="175.871" width="136.672" height="21.5407" rx="5" fill="white"/>
<circle cx="30.8256" cy="136.132" r="7.79921" fill="#EBEBEB"/>
<circle cx="30.8256" cy="161.387" r="7.79921" fill="#EBEBEB"/>
<circle cx="30.8256" cy="186.642" r="7.79921" fill="#EBEBEB"/>
<rect x="16" y="203" width="137" height="26" rx="3" fill="#7171FF"/>
<path d="M51.58 215.13C51.5267 214.923 51.4533 214.733 51.36 214.56C51.2667 214.387 51.1467 214.237 51 214.11C50.8533 213.983 50.68 213.887 50.48 213.82C50.2867 213.747 50.06 213.71 49.8 213.71C49.42 213.71 49.09 213.787 48.81 213.94C48.5367 214.093 48.3133 214.3 48.14 214.56C47.9667 214.813 47.8367 215.103 47.75 215.43C47.67 215.757 47.63 216.09 47.63 216.43C47.63 216.77 47.67 217.103 47.75 217.43C47.8367 217.757 47.9667 218.05 48.14 218.31C48.3133 218.563 48.5367 218.767 48.81 218.92C49.09 219.073 49.42 219.15 49.8 219.15C50.08 219.15 50.3267 219.103 50.54 219.01C50.7533 218.91 50.9367 218.777 51.09 218.61C51.2433 218.437 51.3633 218.237 51.45 218.01C51.5367 217.783 51.5933 217.54 51.62 217.28H52.84C52.8133 217.707 52.72 218.097 52.56 218.45C52.4067 218.803 52.1967 219.11 51.93 219.37C51.6633 219.623 51.35 219.82 50.99 219.96C50.63 220.1 50.2333 220.17 49.8 220.17C49.2667 220.17 48.7867 220.073 48.36 219.88C47.94 219.68 47.5833 219.41 47.29 219.07C46.9967 218.73 46.77 218.333 46.61 217.88C46.4567 217.427 46.38 216.943 46.38 216.43C46.38 215.923 46.4567 215.443 46.61 214.99C46.77 214.537 46.9967 214.14 47.29 213.8C47.5833 213.46 47.94 213.19 48.36 212.99C48.7867 212.79 49.2667 212.69 49.8 212.69C50.2 212.69 50.5767 212.747 50.93 212.86C51.2833 212.967 51.5933 213.127 51.86 213.34C52.1333 213.547 52.3533 213.8 52.52 214.1C52.6867 214.4 52.79 214.743 52.83 215.13H51.58ZM53.8168 214.83H54.8868V215.83H54.9068C54.9401 215.69 55.0035 215.553 55.0968 215.42C55.1968 215.287 55.3135 215.167 55.4468 215.06C55.5868 214.947 55.7401 214.857 55.9068 214.79C56.0735 214.723 56.2435 214.69 56.4168 214.69C56.5501 214.69 56.6401 214.693 56.6868 214.7C56.7401 214.707 56.7935 214.713 56.8468 214.72V215.82C56.7668 215.807 56.6835 215.797 56.5968 215.79C56.5168 215.777 56.4368 215.77 56.3568 215.77C56.1635 215.77 55.9801 215.81 55.8068 215.89C55.6401 215.963 55.4935 216.077 55.3668 216.23C55.2401 216.377 55.1401 216.56 55.0668 216.78C54.9935 217 54.9568 217.253 54.9568 217.54V220H53.8168V214.83ZM60.7066 216.96C60.6933 216.78 60.6533 216.607 60.5866 216.44C60.5266 216.273 60.44 216.13 60.3266 216.01C60.22 215.883 60.0866 215.783 59.9266 215.71C59.7733 215.63 59.6 215.59 59.4066 215.59C59.2066 215.59 59.0233 215.627 58.8566 215.7C58.6966 215.767 58.5566 215.863 58.4366 215.99C58.3233 216.11 58.23 216.253 58.1566 216.42C58.09 216.587 58.0533 216.767 58.0466 216.96H60.7066ZM58.0466 217.71C58.0466 217.91 58.0733 218.103 58.1266 218.29C58.1866 218.477 58.2733 218.64 58.3866 218.78C58.5 218.92 58.6433 219.033 58.8166 219.12C58.99 219.2 59.1966 219.24 59.4366 219.24C59.77 219.24 60.0366 219.17 60.2366 219.03C60.4433 218.883 60.5966 218.667 60.6966 218.38H61.7766C61.7166 218.66 61.6133 218.91 61.4666 219.13C61.32 219.35 61.1433 219.537 60.9366 219.69C60.73 219.837 60.4966 219.947 60.2366 220.02C59.9833 220.1 59.7166 220.14 59.4366 220.14C59.03 220.14 58.67 220.073 58.3566 219.94C58.0433 219.807 57.7766 219.62 57.5566 219.38C57.3433 219.14 57.18 218.853 57.0666 218.52C56.96 218.187 56.9066 217.82 56.9066 217.42C56.9066 217.053 56.9633 216.707 57.0766 216.38C57.1966 216.047 57.3633 215.757 57.5766 215.51C57.7966 215.257 58.06 215.057 58.3666 214.91C58.6733 214.763 59.02 214.69 59.4066 214.69C59.8133 214.69 60.1766 214.777 60.4966 214.95C60.8233 215.117 61.0933 215.34 61.3066 215.62C61.52 215.9 61.6733 216.223 61.7666 216.59C61.8666 216.95 61.8933 217.323 61.8466 217.71H58.0466ZM67.0433 218.85C67.0433 218.99 67.0599 219.09 67.0933 219.15C67.1333 219.21 67.2066 219.24 67.3133 219.24C67.3466 219.24 67.3866 219.24 67.4333 219.24C67.4799 219.24 67.5333 219.233 67.5933 219.22V220.01C67.5533 220.023 67.4999 220.037 67.4333 220.05C67.3733 220.07 67.3099 220.087 67.2433 220.1C67.1766 220.113 67.1099 220.123 67.0433 220.13C66.9766 220.137 66.9199 220.14 66.8733 220.14C66.6399 220.14 66.4466 220.093 66.2933 220C66.1399 219.907 66.0399 219.743 65.9933 219.51C65.7666 219.73 65.4866 219.89 65.1533 219.99C64.8266 220.09 64.5099 220.14 64.2033 220.14C63.9699 220.14 63.7466 220.107 63.5333 220.04C63.3199 219.98 63.1299 219.89 62.9633 219.77C62.8033 219.643 62.6733 219.487 62.5733 219.3C62.4799 219.107 62.4333 218.883 62.4333 218.63C62.4333 218.31 62.4899 218.05 62.6033 217.85C62.7233 217.65 62.8766 217.493 63.0633 217.38C63.2566 217.267 63.4699 217.187 63.7033 217.14C63.9433 217.087 64.1833 217.047 64.4233 217.02C64.6299 216.98 64.8266 216.953 65.0133 216.94C65.1999 216.92 65.3633 216.89 65.5033 216.85C65.6499 216.81 65.7633 216.75 65.8433 216.67C65.9299 216.583 65.9733 216.457 65.9733 216.29C65.9733 216.143 65.9366 216.023 65.8633 215.93C65.7966 215.837 65.7099 215.767 65.6033 215.72C65.5033 215.667 65.3899 215.633 65.2633 215.62C65.1366 215.6 65.0166 215.59 64.9033 215.59C64.5833 215.59 64.3199 215.657 64.1133 215.79C63.9066 215.923 63.7899 216.13 63.7633 216.41H62.6233C62.6433 216.077 62.7233 215.8 62.8633 215.58C63.0033 215.36 63.1799 215.183 63.3933 215.05C63.6133 214.917 63.8599 214.823 64.1333 214.77C64.4066 214.717 64.6866 214.69 64.9733 214.69C65.2266 214.69 65.4766 214.717 65.7233 214.77C65.9699 214.823 66.1899 214.91 66.3833 215.03C66.5833 215.15 66.7433 215.307 66.8633 215.5C66.9833 215.687 67.0433 215.917 67.0433 216.19V218.85ZM65.9033 217.41C65.7299 217.523 65.5166 217.593 65.2633 217.62C65.0099 217.64 64.7566 217.673 64.5033 217.72C64.3833 217.74 64.2666 217.77 64.1533 217.81C64.0399 217.843 63.9399 217.893 63.8533 217.96C63.7666 218.02 63.6966 218.103 63.6433 218.21C63.5966 218.31 63.5733 218.433 63.5733 218.58C63.5733 218.707 63.6099 218.813 63.6833 218.9C63.7566 218.987 63.8433 219.057 63.9433 219.11C64.0499 219.157 64.1633 219.19 64.2833 219.21C64.4099 219.23 64.5233 219.24 64.6233 219.24C64.7499 219.24 64.8866 219.223 65.0333 219.19C65.1799 219.157 65.3166 219.1 65.4433 219.02C65.5766 218.94 65.6866 218.84 65.7733 218.72C65.8599 218.593 65.9033 218.44 65.9033 218.26V217.41ZM67.7499 214.83H68.6099V213.28H69.7499V214.83H70.7799V215.68H69.7499V218.44C69.7499 218.56 69.7533 218.663 69.7599 218.75C69.7733 218.837 69.7966 218.91 69.8299 218.97C69.8699 219.03 69.9266 219.077 69.9999 219.11C70.0733 219.137 70.1733 219.15 70.2999 219.15C70.3799 219.15 70.4599 219.15 70.5399 219.15C70.6199 219.143 70.6999 219.13 70.7799 219.11V219.99C70.6533 220.003 70.5299 220.017 70.4099 220.03C70.2899 220.043 70.1666 220.05 70.0399 220.05C69.7399 220.05 69.4966 220.023 69.3099 219.97C69.1299 219.91 68.9866 219.827 68.8799 219.72C68.7799 219.607 68.7099 219.467 68.6699 219.3C68.6366 219.133 68.6166 218.943 68.6099 218.73V215.68H67.7499V214.83ZM75.15 216.96C75.1367 216.78 75.0967 216.607 75.03 216.44C74.97 216.273 74.8833 216.13 74.77 216.01C74.6633 215.883 74.53 215.783 74.37 215.71C74.2167 215.63 74.0433 215.59 73.85 215.59C73.65 215.59 73.4667 215.627 73.3 215.7C73.14 215.767 73 215.863 72.88 215.99C72.7667 216.11 72.6733 216.253 72.6 216.42C72.5333 216.587 72.4967 216.767 72.49 216.96H75.15ZM72.49 217.71C72.49 217.91 72.5167 218.103 72.57 218.29C72.63 218.477 72.7167 218.64 72.83 218.78C72.9433 218.92 73.0867 219.033 73.26 219.12C73.4333 219.2 73.64 219.24 73.88 219.24C74.2133 219.24 74.48 219.17 74.68 219.03C74.8867 218.883 75.04 218.667 75.14 218.38H76.22C76.16 218.66 76.0567 218.91 75.91 219.13C75.7633 219.35 75.5867 219.537 75.38 219.69C75.1733 219.837 74.94 219.947 74.68 220.02C74.4267 220.1 74.16 220.14 73.88 220.14C73.4733 220.14 73.1133 220.073 72.8 219.94C72.4867 219.807 72.22 219.62 72 219.38C71.7867 219.14 71.6233 218.853 71.51 218.52C71.4033 218.187 71.35 217.82 71.35 217.42C71.35 217.053 71.4067 216.707 71.52 216.38C71.64 216.047 71.8067 215.757 72.02 215.51C72.24 215.257 72.5033 215.057 72.81 214.91C73.1167 214.763 73.4633 214.69 73.85 214.69C74.2567 214.69 74.62 214.777 74.94 214.95C75.2667 215.117 75.5367 215.34 75.75 215.62C75.9633 215.9 76.1167 216.223 76.21 216.59C76.31 216.95 76.3367 217.323 76.29 217.71H72.49ZM79.9698 214.83H81.0498V215.53H81.0698C81.2298 215.23 81.4532 215.017 81.7398 214.89C82.0265 214.757 82.3365 214.69 82.6698 214.69C83.0765 214.69 83.4298 214.763 83.7298 214.91C84.0365 215.05 84.2898 215.247 84.4898 215.5C84.6898 215.747 84.8398 216.037 84.9398 216.37C85.0398 216.703 85.0898 217.06 85.0898 217.44C85.0898 217.787 85.0432 218.123 84.9498 218.45C84.8632 218.777 84.7265 219.067 84.5398 219.32C84.3598 219.567 84.1298 219.767 83.8498 219.92C83.5698 220.067 83.2398 220.14 82.8598 220.14C82.6932 220.14 82.5265 220.123 82.3598 220.09C82.1932 220.063 82.0332 220.017 81.8798 219.95C81.7265 219.883 81.5832 219.8 81.4498 219.7C81.3232 219.593 81.2165 219.47 81.1298 219.33H81.1098V221.91H79.9698V214.83ZM83.9498 217.42C83.9498 217.187 83.9198 216.96 83.8598 216.74C83.7998 216.52 83.7098 216.327 83.5898 216.16C83.4698 215.987 83.3198 215.85 83.1398 215.75C82.9598 215.643 82.7532 215.59 82.5198 215.59C82.0398 215.59 81.6765 215.757 81.4298 216.09C81.1898 216.423 81.0698 216.867 81.0698 217.42C81.0698 217.68 81.0998 217.923 81.1598 218.15C81.2265 218.37 81.3232 218.56 81.4498 218.72C81.5765 218.88 81.7265 219.007 81.8998 219.1C82.0798 219.193 82.2865 219.24 82.5198 219.24C82.7798 219.24 82.9998 219.187 83.1798 219.08C83.3598 218.973 83.5065 218.837 83.6198 218.67C83.7398 218.497 83.8232 218.303 83.8698 218.09C83.9232 217.87 83.9498 217.647 83.9498 217.42ZM88.4231 220.14C88.0098 220.14 87.6398 220.073 87.3131 219.94C86.9931 219.8 86.7198 219.61 86.4931 219.37C86.2731 219.13 86.1031 218.843 85.9831 218.51C85.8698 218.177 85.8131 217.81 85.8131 217.41C85.8131 217.017 85.8698 216.653 85.9831 216.32C86.1031 215.987 86.2731 215.7 86.4931 215.46C86.7198 215.22 86.9931 215.033 87.3131 214.9C87.6398 214.76 88.0098 214.69 88.4231 214.69C88.8365 214.69 89.2031 214.76 89.5231 214.9C89.8498 215.033 90.1231 215.22 90.3431 215.46C90.5698 215.7 90.7398 215.987 90.8531 216.32C90.9731 216.653 91.0331 217.017 91.0331 217.41C91.0331 217.81 90.9731 218.177 90.8531 218.51C90.7398 218.843 90.5698 219.13 90.3431 219.37C90.1231 219.61 89.8498 219.8 89.5231 219.94C89.2031 220.073 88.8365 220.14 88.4231 220.14ZM88.4231 219.24C88.6765 219.24 88.8965 219.187 89.0831 219.08C89.2698 218.973 89.4231 218.833 89.5431 218.66C89.6631 218.487 89.7498 218.293 89.8031 218.08C89.8631 217.86 89.8931 217.637 89.8931 217.41C89.8931 217.19 89.8631 216.97 89.8031 216.75C89.7498 216.53 89.6631 216.337 89.5431 216.17C89.4231 215.997 89.2698 215.857 89.0831 215.75C88.8965 215.643 88.6765 215.59 88.4231 215.59C88.1698 215.59 87.9498 215.643 87.7631 215.75C87.5765 215.857 87.4231 215.997 87.3031 216.17C87.1831 216.337 87.0931 216.53 87.0331 216.75C86.9798 216.97 86.9531 217.19 86.9531 217.41C86.9531 217.637 86.9798 217.86 87.0331 218.08C87.0931 218.293 87.1831 218.487 87.3031 218.66C87.4231 218.833 87.5765 218.973 87.7631 219.08C87.9498 219.187 88.1698 219.24 88.4231 219.24ZM91.9809 214.83H93.0509V215.83H93.0709C93.1042 215.69 93.1675 215.553 93.2609 215.42C93.3609 215.287 93.4775 215.167 93.6109 215.06C93.7509 214.947 93.9042 214.857 94.0709 214.79C94.2375 214.723 94.4075 214.69 94.5809 214.69C94.7142 214.69 94.8042 214.693 94.8509 214.7C94.9042 214.707 94.9575 214.713 95.0109 214.72V215.82C94.9309 215.807 94.8475 215.797 94.7609 215.79C94.6809 215.777 94.6009 215.77 94.5209 215.77C94.3275 215.77 94.1442 215.81 93.9709 215.89C93.8042 215.963 93.6575 216.077 93.5309 216.23C93.4042 216.377 93.3042 216.56 93.2309 216.78C93.1575 217 93.1209 217.253 93.1209 217.54V220H91.9809V214.83ZM94.9765 214.83H95.8365V213.28H96.9765V214.83H98.0065V215.68H96.9765V218.44C96.9765 218.56 96.9798 218.663 96.9865 218.75C96.9998 218.837 97.0232 218.91 97.0565 218.97C97.0965 219.03 97.1532 219.077 97.2265 219.11C97.2998 219.137 97.3998 219.15 97.5265 219.15C97.6065 219.15 97.6865 219.15 97.7665 219.15C97.8465 219.143 97.9265 219.13 98.0065 219.11V219.99C97.8798 220.003 97.7565 220.017 97.6365 220.03C97.5165 220.043 97.3932 220.05 97.2665 220.05C96.9665 220.05 96.7232 220.023 96.5365 219.97C96.3565 219.91 96.2132 219.827 96.1065 219.72C96.0065 219.607 95.9365 219.467 95.8965 219.3C95.8632 219.133 95.8432 218.943 95.8365 218.73V215.68H94.9765V214.83ZM98.3166 214.83H99.1666V214.4C99.1666 214.073 99.2066 213.81 99.2866 213.61C99.3666 213.403 99.4732 213.247 99.6066 213.14C99.7399 213.027 99.8899 212.953 100.057 212.92C100.23 212.88 100.41 212.86 100.597 212.86C100.963 212.86 101.23 212.883 101.397 212.93V213.82C101.323 213.8 101.243 213.787 101.157 213.78C101.077 213.767 100.98 213.76 100.867 213.76C100.713 213.76 100.58 213.797 100.467 213.87C100.36 213.943 100.307 214.087 100.307 214.3V214.83H101.277V215.68H100.307V220H99.1666V215.68H98.3166V214.83ZM104.351 220.14C103.938 220.14 103.568 220.073 103.241 219.94C102.921 219.8 102.648 219.61 102.421 219.37C102.201 219.13 102.031 218.843 101.911 218.51C101.798 218.177 101.741 217.81 101.741 217.41C101.741 217.017 101.798 216.653 101.911 216.32C102.031 215.987 102.201 215.7 102.421 215.46C102.648 215.22 102.921 215.033 103.241 214.9C103.568 214.76 103.938 214.69 104.351 214.69C104.764 214.69 105.131 214.76 105.451 214.9C105.778 215.033 106.051 215.22 106.271 215.46C106.498 215.7 106.668 215.987 106.781 216.32C106.901 216.653 106.961 217.017 106.961 217.41C106.961 217.81 106.901 218.177 106.781 218.51C106.668 218.843 106.498 219.13 106.271 219.37C106.051 219.61 105.778 219.8 105.451 219.94C105.131 220.073 104.764 220.14 104.351 220.14ZM104.351 219.24C104.604 219.24 104.824 219.187 105.011 219.08C105.198 218.973 105.351 218.833 105.471 218.66C105.591 218.487 105.678 218.293 105.731 218.08C105.791 217.86 105.821 217.637 105.821 217.41C105.821 217.19 105.791 216.97 105.731 216.75C105.678 216.53 105.591 216.337 105.471 216.17C105.351 215.997 105.198 215.857 105.011 215.75C104.824 215.643 104.604 215.59 104.351 215.59C104.098 215.59 103.878 215.643 103.691 215.75C103.504 215.857 103.351 215.997 103.231 216.17C103.111 216.337 103.021 216.53 102.961 216.75C102.908 216.97 102.881 217.19 102.881 217.41C102.881 217.637 102.908 217.86 102.961 218.08C103.021 218.293 103.111 218.487 103.231 218.66C103.351 218.833 103.504 218.973 103.691 219.08C103.878 219.187 104.098 219.24 104.351 219.24ZM107.939 212.86H109.079V220H107.939V212.86ZM110.351 212.86H111.491V213.94H110.351V212.86ZM110.351 214.83H111.491V220H110.351V214.83ZM115.103 220.14C114.689 220.14 114.319 220.073 113.993 219.94C113.673 219.8 113.399 219.61 113.173 219.37C112.953 219.13 112.783 218.843 112.663 218.51C112.549 218.177 112.493 217.81 112.493 217.41C112.493 217.017 112.549 216.653 112.663 216.32C112.783 215.987 112.953 215.7 113.173 215.46C113.399 215.22 113.673 215.033 113.993 214.9C114.319 214.76 114.689 214.69 115.103 214.69C115.516 214.69 115.883 214.76 116.203 214.9C116.529 215.033 116.803 215.22 117.023 215.46C117.249 215.7 117.419 215.987 117.533 216.32C117.653 216.653 117.713 217.017 117.713 217.41C117.713 217.81 117.653 218.177 117.533 218.51C117.419 218.843 117.249 219.13 117.023 219.37C116.803 219.61 116.529 219.8 116.203 219.94C115.883 220.073 115.516 220.14 115.103 220.14ZM115.103 219.24C115.356 219.24 115.576 219.187 115.763 219.08C115.949 218.973 116.103 218.833 116.223 218.66C116.343 218.487 116.429 218.293 116.483 218.08C116.543 217.86 116.573 217.637 116.573 217.41C116.573 217.19 116.543 216.97 116.483 216.75C116.429 216.53 116.343 216.337 116.223 216.17C116.103 215.997 115.949 215.857 115.763 215.75C115.576 215.643 115.356 215.59 115.103 215.59C114.849 215.59 114.629 215.643 114.443 215.75C114.256 215.857 114.103 215.997 113.983 216.17C113.863 216.337 113.773 216.53 113.713 216.75C113.659 216.97 113.633 217.19 113.633 217.41C113.633 217.637 113.659 217.86 113.713 218.08C113.773 218.293 113.863 218.487 113.983 218.66C114.103 218.833 114.256 218.973 114.443 219.08C114.629 219.187 114.849 219.24 115.103 219.24Z" fill="white"/>
<rect x="28" y="94" width="208.722" height="74.2782" rx="4" fill="#7171FF"/>
<rect x="39.8843" y="131.882" width="185.696" height="21.5407" rx="3" fill="white"/>
<path d="M112.414 144.652H110.722C110.802 145.596 111.094 146.312 111.598 146.8C112.102 147.288 112.802 147.564 113.698 147.628V148.648H114.406V147.628C115.006 147.588 115.498 147.468 115.882 147.268C116.266 147.068 116.57 146.84 116.794 146.584C117.026 146.328 117.186 146.068 117.274 145.804C117.362 145.532 117.406 145.308 117.406 145.132C117.406 144.932 117.39 144.704 117.358 144.448C117.334 144.192 117.246 143.936 117.094 143.68C116.942 143.424 116.706 143.18 116.386 142.948C116.066 142.708 115.61 142.508 115.018 142.348C114.906 142.316 114.798 142.288 114.694 142.264C114.598 142.24 114.502 142.216 114.406 142.192V140.068C114.678 140.068 114.91 140.18 115.102 140.404C115.294 140.628 115.394 140.9 115.402 141.22H117.106C117.082 140.804 116.994 140.444 116.842 140.14C116.69 139.836 116.494 139.584 116.254 139.384C116.014 139.176 115.734 139.016 115.414 138.904C115.102 138.784 114.766 138.704 114.406 138.664V137.74H113.698V138.664C113.338 138.688 112.99 138.76 112.654 138.88C112.318 138.992 112.022 139.156 111.766 139.372C111.51 139.58 111.302 139.84 111.142 140.152C110.99 140.464 110.914 140.824 110.914 141.232C110.914 141.632 110.982 141.968 111.118 142.24C111.254 142.504 111.434 142.728 111.658 142.912C111.89 143.088 112.15 143.232 112.438 143.344C112.726 143.448 113.018 143.54 113.314 143.62C113.394 143.636 113.466 143.656 113.53 143.68C113.602 143.696 113.658 143.712 113.698 143.728V146.236C113.33 146.164 113.022 145.996 112.774 145.732C112.526 145.468 112.406 145.108 112.414 144.652ZM114.406 146.236V143.932C114.878 144.06 115.21 144.204 115.402 144.364C115.602 144.516 115.702 144.748 115.702 145.06C115.702 145.252 115.662 145.42 115.582 145.564C115.502 145.7 115.398 145.816 115.27 145.912C115.15 146.008 115.01 146.084 114.85 146.14C114.698 146.188 114.55 146.22 114.406 146.236ZM113.698 140.068V142.024C113.314 141.936 113.038 141.82 112.87 141.676C112.702 141.532 112.618 141.328 112.618 141.064C112.618 140.896 112.646 140.752 112.702 140.632C112.766 140.504 112.85 140.4 112.954 140.32C113.058 140.232 113.174 140.168 113.302 140.128C113.43 140.088 113.562 140.068 113.698 140.068ZM122.094 147.436V139.036H120.738C120.69 139.356 120.59 139.624 120.438 139.84C120.286 140.056 120.098 140.232 119.874 140.368C119.658 140.496 119.41 140.588 119.13 140.644C118.858 140.692 118.574 140.712 118.278 140.704V141.988H120.39V147.436H122.094ZM124.79 145.588V147.436H125.654C125.662 147.564 125.646 147.688 125.606 147.808C125.566 147.936 125.506 148.048 125.426 148.144C125.346 148.248 125.25 148.336 125.138 148.408C125.034 148.48 124.922 148.528 124.802 148.552V149.416C125.058 149.376 125.298 149.3 125.522 149.188C125.754 149.084 125.954 148.948 126.122 148.78C126.29 148.612 126.422 148.412 126.518 148.18C126.622 147.956 126.674 147.708 126.674 147.436V145.588H124.79ZM129.353 143.2C129.353 143.056 129.353 142.884 129.353 142.684C129.361 142.476 129.377 142.264 129.401 142.048C129.425 141.832 129.465 141.62 129.521 141.412C129.577 141.196 129.653 141.004 129.749 140.836C129.853 140.668 129.981 140.532 130.133 140.428C130.293 140.324 130.489 140.272 130.721 140.272C130.953 140.272 131.149 140.324 131.309 140.428C131.469 140.532 131.601 140.668 131.705 140.836C131.809 141.004 131.885 141.196 131.933 141.412C131.989 141.62 132.029 141.832 132.053 142.048C132.085 142.264 132.101 142.476 132.101 142.684C132.109 142.884 132.113 143.056 132.113 143.2C132.113 143.44 132.105 143.732 132.089 144.076C132.073 144.412 132.021 144.74 131.933 145.06C131.853 145.372 131.717 145.64 131.525 145.864C131.341 146.088 131.073 146.2 130.721 146.2C130.377 146.2 130.113 146.088 129.929 145.864C129.745 145.64 129.609 145.372 129.521 145.06C129.441 144.74 129.393 144.412 129.377 144.076C129.361 143.732 129.353 143.44 129.353 143.2ZM127.649 143.2C127.649 144.04 127.729 144.744 127.889 145.312C128.057 145.872 128.281 146.32 128.561 146.656C128.841 146.992 129.165 147.232 129.533 147.376C129.909 147.52 130.305 147.592 130.721 147.592C131.145 147.592 131.541 147.52 131.909 147.376C132.285 147.232 132.613 146.992 132.893 146.656C133.181 146.32 133.405 145.872 133.565 145.312C133.733 144.744 133.817 144.04 133.817 143.2C133.817 142.384 133.733 141.7 133.565 141.148C133.405 140.588 133.181 140.14 132.893 139.804C132.613 139.468 132.285 139.228 131.909 139.084C131.541 138.94 131.145 138.868 130.721 138.868C130.305 138.868 129.909 138.94 129.533 139.084C129.165 139.228 128.841 139.468 128.561 139.804C128.281 140.14 128.057 140.588 127.889 141.148C127.729 141.7 127.649 142.384 127.649 143.2ZM136.021 143.2C136.021 143.056 136.021 142.884 136.021 142.684C136.029 142.476 136.045 142.264 136.069 142.048C136.093 141.832 136.133 141.62 136.189 141.412C136.245 141.196 136.321 141.004 136.417 140.836C136.521 140.668 136.649 140.532 136.801 140.428C136.961 140.324 137.157 140.272 137.389 140.272C137.621 140.272 137.817 140.324 137.977 140.428C138.137 140.532 138.269 140.668 138.373 140.836C138.477 141.004 138.553 141.196 138.601 141.412C138.657 141.62 138.697 141.832 138.721 142.048C138.753 142.264 138.769 142.476 138.769 142.684C138.777 142.884 138.781 143.056 138.781 143.2C138.781 143.44 138.773 143.732 138.757 144.076C138.741 144.412 138.689 144.74 138.601 145.06C138.521 145.372 138.385 145.64 138.193 145.864C138.009 146.088 137.741 146.2 137.389 146.2C137.045 146.2 136.781 146.088 136.597 145.864C136.413 145.64 136.277 145.372 136.189 145.06C136.109 144.74 136.061 144.412 136.045 144.076C136.029 143.732 136.021 143.44 136.021 143.2ZM134.317 143.2C134.317 144.04 134.397 144.744 134.557 145.312C134.725 145.872 134.949 146.32 135.229 146.656C135.509 146.992 135.833 147.232 136.201 147.376C136.577 147.52 136.973 147.592 137.389 147.592C137.813 147.592 138.209 147.52 138.577 147.376C138.953 147.232 139.281 146.992 139.561 146.656C139.849 146.32 140.073 145.872 140.233 145.312C140.401 144.744 140.485 144.04 140.485 143.2C140.485 142.384 140.401 141.7 140.233 141.148C140.073 140.588 139.849 140.14 139.561 139.804C139.281 139.468 138.953 139.228 138.577 139.084C138.209 138.94 137.813 138.868 137.389 138.868C136.973 138.868 136.577 138.94 136.201 139.084C135.833 139.228 135.509 139.468 135.229 139.804C134.949 140.14 134.725 140.588 134.557 141.148C134.397 141.7 134.317 142.384 134.317 143.2ZM142.689 143.2C142.689 143.056 142.689 142.884 142.689 142.684C142.697 142.476 142.713 142.264 142.737 142.048C142.761 141.832 142.801 141.62 142.857 141.412C142.913 141.196 142.989 141.004 143.085 140.836C143.189 140.668 143.317 140.532 143.469 140.428C143.629 140.324 143.825 140.272 144.057 140.272C144.289 140.272 144.485 140.324 144.645 140.428C144.805 140.532 144.937 140.668 145.041 140.836C145.145 141.004 145.221 141.196 145.269 141.412C145.325 141.62 145.365 141.832 145.389 142.048C145.421 142.264 145.437 142.476 145.437 142.684C145.445 142.884 145.449 143.056 145.449 143.2C145.449 143.44 145.441 143.732 145.425 144.076C145.409 144.412 145.357 144.74 145.269 145.06C145.189 145.372 145.053 145.64 144.861 145.864C144.677 146.088 144.409 146.2 144.057 146.2C143.713 146.2 143.449 146.088 143.265 145.864C143.081 145.64 142.945 145.372 142.857 145.06C142.777 144.74 142.729 144.412 142.713 144.076C142.697 143.732 142.689 143.44 142.689 143.2ZM140.985 143.2C140.985 144.04 141.065 144.744 141.225 145.312C141.393 145.872 141.617 146.32 141.897 146.656C142.177 146.992 142.501 147.232 142.869 147.376C143.245 147.52 143.641 147.592 144.057 147.592C144.481 147.592 144.877 147.52 145.245 147.376C145.621 147.232 145.949 146.992 146.229 146.656C146.517 146.32 146.741 145.872 146.901 145.312C147.069 144.744 147.153 144.04 147.153 143.2C147.153 142.384 147.069 141.7 146.901 141.148C146.741 140.588 146.517 140.14 146.229 139.804C145.949 139.468 145.621 139.228 145.245 139.084C144.877 138.94 144.481 138.868 144.057 138.868C143.641 138.868 143.245 138.94 142.869 139.084C142.501 139.228 142.177 139.468 141.897 139.804C141.617 140.14 141.393 140.588 141.225 141.148C141.065 141.7 140.985 142.384 140.985 143.2Z" fill="#556174"/>
<path d="M40.6448 114.459H45.7848V115.539H41.8948V117.409H45.4948V118.429H41.8948V120.519H45.8548V121.599H40.6448V114.459ZM46.7836 116.429H47.8636V117.189L47.8836 117.209C48.0569 116.922 48.2836 116.699 48.5636 116.539C48.8436 116.372 49.1536 116.289 49.4936 116.289C50.0603 116.289 50.5069 116.435 50.8336 116.729C51.1603 117.022 51.3236 117.462 51.3236 118.049V121.599H50.1836V118.349C50.1703 117.942 50.0836 117.649 49.9236 117.469C49.7636 117.282 49.5136 117.189 49.1736 117.189C48.9803 117.189 48.8069 117.225 48.6536 117.299C48.5003 117.365 48.3703 117.462 48.2636 117.589C48.1569 117.709 48.0736 117.852 48.0136 118.019C47.9536 118.185 47.9236 118.362 47.9236 118.549V121.599H46.7836V116.429ZM52.0058 116.429H52.8658V114.879H54.0058V116.429H55.0358V117.279H54.0058V120.039C54.0058 120.159 54.0091 120.262 54.0158 120.349C54.0291 120.435 54.0524 120.509 54.0858 120.569C54.1258 120.629 54.1824 120.675 54.2558 120.709C54.3291 120.735 54.4291 120.749 54.5558 120.749C54.6358 120.749 54.7158 120.749 54.7958 120.749C54.8758 120.742 54.9558 120.729 55.0358 120.709V121.589C54.9091 121.602 54.7858 121.615 54.6658 121.629C54.5458 121.642 54.4224 121.649 54.2958 121.649C53.9958 121.649 53.7524 121.622 53.5658 121.569C53.3858 121.509 53.2424 121.425 53.1358 121.319C53.0358 121.205 52.9658 121.065 52.9258 120.899C52.8924 120.732 52.8724 120.542 52.8658 120.329V117.279H52.0058V116.429ZM59.4059 118.559C59.3925 118.379 59.3525 118.205 59.2859 118.039C59.2259 117.872 59.1392 117.729 59.0259 117.609C58.9192 117.482 58.7859 117.382 58.6259 117.309C58.4725 117.229 58.2992 117.189 58.1059 117.189C57.9059 117.189 57.7225 117.225 57.5559 117.299C57.3959 117.365 57.2559 117.462 57.1359 117.589C57.0225 117.709 56.9292 117.852 56.8559 118.019C56.7892 118.185 56.7525 118.365 56.7459 118.559H59.4059ZM56.7459 119.309C56.7459 119.509 56.7725 119.702 56.8259 119.889C56.8859 120.075 56.9725 120.239 57.0859 120.379C57.1992 120.519 57.3425 120.632 57.5159 120.719C57.6892 120.799 57.8959 120.839 58.1359 120.839C58.4692 120.839 58.7359 120.769 58.9359 120.629C59.1425 120.482 59.2959 120.265 59.3959 119.979H60.4759C60.4159 120.259 60.3125 120.509 60.1659 120.729C60.0192 120.949 59.8425 121.135 59.6359 121.289C59.4292 121.435 59.1959 121.545 58.9359 121.619C58.6825 121.699 58.4159 121.739 58.1359 121.739C57.7292 121.739 57.3692 121.672 57.0559 121.539C56.7425 121.405 56.4759 121.219 56.2559 120.979C56.0425 120.739 55.8792 120.452 55.7659 120.119C55.6592 119.785 55.6059 119.419 55.6059 119.019C55.6059 118.652 55.6625 118.305 55.7759 117.979C55.8959 117.645 56.0625 117.355 56.2759 117.109C56.4959 116.855 56.7592 116.655 57.0659 116.509C57.3725 116.362 57.7192 116.289 58.1059 116.289C58.5125 116.289 58.8759 116.375 59.1959 116.549C59.5225 116.715 59.7925 116.939 60.0059 117.219C60.2192 117.499 60.3725 117.822 60.4659 118.189C60.5659 118.549 60.5925 118.922 60.5459 119.309H56.7459ZM61.4125 116.429H62.4825V117.429H62.5025C62.5358 117.289 62.5992 117.152 62.6925 117.019C62.7925 116.885 62.9092 116.765 63.0425 116.659C63.1825 116.545 63.3358 116.455 63.5025 116.389C63.6692 116.322 63.8392 116.289 64.0125 116.289C64.1458 116.289 64.2358 116.292 64.2825 116.299C64.3358 116.305 64.3892 116.312 64.4425 116.319V117.419C64.3625 117.405 64.2792 117.395 64.1925 117.389C64.1125 117.375 64.0325 117.369 63.9525 117.369C63.7592 117.369 63.5758 117.409 63.4025 117.489C63.2358 117.562 63.0892 117.675 62.9625 117.829C62.8358 117.975 62.7358 118.159 62.6625 118.379C62.5892 118.599 62.5525 118.852 62.5525 119.139V121.599H61.4125V116.429ZM67.1913 116.429H68.0513V114.879H69.1913V116.429H70.2213V117.279H69.1913V120.039C69.1913 120.159 69.1947 120.262 69.2013 120.349C69.2147 120.435 69.238 120.509 69.2713 120.569C69.3113 120.629 69.368 120.675 69.4413 120.709C69.5147 120.735 69.6147 120.749 69.7413 120.749C69.8213 120.749 69.9013 120.749 69.9813 120.749C70.0613 120.742 70.1413 120.729 70.2213 120.709V121.589C70.0947 121.602 69.9713 121.615 69.8513 121.629C69.7313 121.642 69.608 121.649 69.4813 121.649C69.1813 121.649 68.938 121.622 68.7513 121.569C68.5713 121.509 68.428 121.425 68.3213 121.319C68.2213 121.205 68.1513 121.065 68.1113 120.899C68.078 120.732 68.058 120.542 68.0513 120.329V117.279H67.1913V116.429ZM71.0414 114.459H72.1814V117.109H72.2014C72.3414 116.875 72.5481 116.682 72.8214 116.529C73.1014 116.369 73.4114 116.289 73.7514 116.289C74.3181 116.289 74.7647 116.435 75.0914 116.729C75.4181 117.022 75.5814 117.462 75.5814 118.049V121.599H74.4414V118.349C74.4281 117.942 74.3414 117.649 74.1814 117.469C74.0214 117.282 73.7714 117.189 73.4314 117.189C73.2381 117.189 73.0647 117.225 72.9114 117.299C72.7581 117.365 72.6281 117.462 72.5214 117.589C72.4147 117.709 72.3314 117.852 72.2714 118.019C72.2114 118.185 72.1814 118.362 72.1814 118.549V121.599H71.0414V114.459ZM80.3336 118.559C80.3203 118.379 80.2803 118.205 80.2136 118.039C80.1536 117.872 80.0669 117.729 79.9536 117.609C79.8469 117.482 79.7136 117.382 79.5536 117.309C79.4003 117.229 79.2269 117.189 79.0336 117.189C78.8336 117.189 78.6503 117.225 78.4836 117.299C78.3236 117.365 78.1836 117.462 78.0636 117.589C77.9503 117.709 77.8569 117.852 77.7836 118.019C77.7169 118.185 77.6803 118.365 77.6736 118.559H80.3336ZM77.6736 119.309C77.6736 119.509 77.7003 119.702 77.7536 119.889C77.8136 120.075 77.9003 120.239 78.0136 120.379C78.1269 120.519 78.2703 120.632 78.4436 120.719C78.6169 120.799 78.8236 120.839 79.0636 120.839C79.3969 120.839 79.6636 120.769 79.8636 120.629C80.0703 120.482 80.2236 120.265 80.3236 119.979H81.4036C81.3436 120.259 81.2403 120.509 81.0936 120.729C80.9469 120.949 80.7703 121.135 80.5636 121.289C80.3569 121.435 80.1236 121.545 79.8636 121.619C79.6103 121.699 79.3436 121.739 79.0636 121.739C78.6569 121.739 78.2969 121.672 77.9836 121.539C77.6703 121.405 77.4036 121.219 77.1836 120.979C76.9703 120.739 76.8069 120.452 76.6936 120.119C76.5869 119.785 76.5336 119.419 76.5336 119.019C76.5336 118.652 76.5903 118.305 76.7036 117.979C76.8236 117.645 76.9903 117.355 77.2036 117.109C77.4236 116.855 77.6869 116.655 77.9936 116.509C78.3003 116.362 78.6469 116.289 79.0336 116.289C79.4403 116.289 79.8036 116.375 80.1236 116.549C80.4503 116.715 80.7203 116.939 80.9336 117.219C81.1469 117.499 81.3003 117.822 81.3936 118.189C81.4936 118.549 81.5203 118.922 81.4736 119.309H77.6736ZM89.4534 120.449C89.4534 120.589 89.4701 120.689 89.5034 120.749C89.5434 120.809 89.6168 120.839 89.7234 120.839C89.7568 120.839 89.7968 120.839 89.8434 120.839C89.8901 120.839 89.9434 120.832 90.0034 120.819V121.609C89.9634 121.622 89.9101 121.635 89.8434 121.649C89.7834 121.669 89.7201 121.685 89.6534 121.699C89.5868 121.712 89.5201 121.722 89.4534 121.729C89.3868 121.735 89.3301 121.739 89.2834 121.739C89.0501 121.739 88.8568 121.692 88.7034 121.599C88.5501 121.505 88.4501 121.342 88.4034 121.109C88.1768 121.329 87.8968 121.489 87.5634 121.589C87.2368 121.689 86.9201 121.739 86.6134 121.739C86.3801 121.739 86.1568 121.705 85.9434 121.639C85.7301 121.579 85.5401 121.489 85.3734 121.369C85.2134 121.242 85.0834 121.085 84.9834 120.899C84.8901 120.705 84.8434 120.482 84.8434 120.229C84.8434 119.909 84.9001 119.649 85.0134 119.449C85.1334 119.249 85.2868 119.092 85.4734 118.979C85.6668 118.865 85.8801 118.785 86.1134 118.739C86.3534 118.685 86.5934 118.645 86.8334 118.619C87.0401 118.579 87.2368 118.552 87.4234 118.539C87.6101 118.519 87.7734 118.489 87.9134 118.449C88.0601 118.409 88.1734 118.349 88.2534 118.269C88.3401 118.182 88.3834 118.055 88.3834 117.889C88.3834 117.742 88.3468 117.622 88.2734 117.529C88.2068 117.435 88.1201 117.365 88.0134 117.319C87.9134 117.265 87.8001 117.232 87.6734 117.219C87.5468 117.199 87.4268 117.189 87.3134 117.189C86.9934 117.189 86.7301 117.255 86.5234 117.389C86.3168 117.522 86.2001 117.729 86.1734 118.009H85.0334C85.0534 117.675 85.1334 117.399 85.2734 117.179C85.4134 116.959 85.5901 116.782 85.8034 116.649C86.0234 116.515 86.2701 116.422 86.5434 116.369C86.8168 116.315 87.0968 116.289 87.3834 116.289C87.6368 116.289 87.8868 116.315 88.1334 116.369C88.3801 116.422 88.6001 116.509 88.7934 116.629C88.9934 116.749 89.1534 116.905 89.2734 117.099C89.3934 117.285 89.4534 117.515 89.4534 117.789V120.449ZM88.3134 119.009C88.1401 119.122 87.9268 119.192 87.6734 119.219C87.4201 119.239 87.1668 119.272 86.9134 119.319C86.7934 119.339 86.6768 119.369 86.5634 119.409C86.4501 119.442 86.3501 119.492 86.2634 119.559C86.1768 119.619 86.1068 119.702 86.0534 119.809C86.0068 119.909 85.9834 120.032 85.9834 120.179C85.9834 120.305 86.0201 120.412 86.0934 120.499C86.1668 120.585 86.2534 120.655 86.3534 120.709C86.4601 120.755 86.5734 120.789 86.6934 120.809C86.8201 120.829 86.9334 120.839 87.0334 120.839C87.1601 120.839 87.2968 120.822 87.4434 120.789C87.5901 120.755 87.7268 120.699 87.8534 120.619C87.9868 120.539 88.0968 120.439 88.1834 120.319C88.2701 120.192 88.3134 120.039 88.3134 119.859V119.009ZM90.6801 116.429H91.7601V117.149H91.7901C91.8767 117.022 91.9701 116.905 92.0701 116.799C92.1701 116.692 92.2801 116.602 92.4001 116.529C92.5267 116.455 92.6701 116.399 92.8301 116.359C92.9901 116.312 93.1734 116.289 93.3801 116.289C93.6934 116.289 93.9834 116.359 94.2501 116.499C94.5234 116.639 94.7167 116.855 94.8301 117.149C95.0234 116.882 95.2467 116.672 95.5001 116.519C95.7534 116.365 96.0701 116.289 96.4501 116.289C96.9967 116.289 97.4201 116.422 97.7201 116.689C98.0267 116.955 98.1801 117.402 98.1801 118.029V121.599H97.0401V118.579C97.0401 118.372 97.0334 118.185 97.0201 118.019C97.0067 117.845 96.9667 117.699 96.9001 117.579C96.8401 117.452 96.7467 117.355 96.6201 117.289C96.4934 117.222 96.3201 117.189 96.1001 117.189C95.7134 117.189 95.4334 117.309 95.2601 117.549C95.0867 117.789 95.0001 118.129 95.0001 118.569V121.599H93.8601V118.279C93.8601 117.919 93.7934 117.649 93.6601 117.469C93.5334 117.282 93.2967 117.189 92.9501 117.189C92.8034 117.189 92.6601 117.219 92.5201 117.279C92.3867 117.339 92.2667 117.425 92.1601 117.539C92.0601 117.652 91.9767 117.792 91.9101 117.959C91.8501 118.125 91.8201 118.315 91.8201 118.529V121.599H90.6801V116.429ZM101.751 121.739C101.338 121.739 100.968 121.672 100.641 121.539C100.321 121.399 100.048 121.209 99.8213 120.969C99.6013 120.729 99.4313 120.442 99.3113 120.109C99.1979 119.775 99.1413 119.409 99.1413 119.009C99.1413 118.615 99.1979 118.252 99.3113 117.919C99.4313 117.585 99.6013 117.299 99.8213 117.059C100.048 116.819 100.321 116.632 100.641 116.499C100.968 116.359 101.338 116.289 101.751 116.289C102.165 116.289 102.531 116.359 102.851 116.499C103.178 116.632 103.451 116.819 103.671 117.059C103.898 117.299 104.068 117.585 104.181 117.919C104.301 118.252 104.361 118.615 104.361 119.009C104.361 119.409 104.301 119.775 104.181 120.109C104.068 120.442 103.898 120.729 103.671 120.969C103.451 121.209 103.178 121.399 102.851 121.539C102.531 121.672 102.165 121.739 101.751 121.739ZM101.751 120.839C102.005 120.839 102.225 120.785 102.411 120.679C102.598 120.572 102.751 120.432 102.871 120.259C102.991 120.085 103.078 119.892 103.131 119.679C103.191 119.459 103.221 119.235 103.221 119.009C103.221 118.789 103.191 118.569 103.131 118.349C103.078 118.129 102.991 117.935 102.871 117.769C102.751 117.595 102.598 117.455 102.411 117.349C102.225 117.242 102.005 117.189 101.751 117.189C101.498 117.189 101.278 117.242 101.091 117.349C100.905 117.455 100.751 117.595 100.631 117.769C100.511 117.935 100.421 118.129 100.361 118.349C100.308 118.569 100.281 118.789 100.281 119.009C100.281 119.235 100.308 119.459 100.361 119.679C100.421 119.892 100.511 120.085 100.631 120.259C100.751 120.432 100.905 120.572 101.091 120.679C101.278 120.785 101.498 120.839 101.751 120.839ZM109.849 121.599H108.729V120.879H108.709C108.569 121.139 108.359 121.349 108.079 121.509C107.806 121.662 107.526 121.739 107.239 121.739C106.559 121.739 106.066 121.572 105.759 121.239C105.459 120.899 105.309 120.389 105.309 119.709V116.429H106.449V119.599C106.449 120.052 106.536 120.372 106.709 120.559C106.882 120.745 107.126 120.839 107.439 120.839C107.679 120.839 107.879 120.802 108.039 120.729C108.199 120.655 108.329 120.559 108.429 120.439C108.529 120.312 108.599 120.162 108.639 119.989C108.686 119.815 108.709 119.629 108.709 119.429V116.429H109.849V121.599ZM111.051 116.429H112.131V117.189L112.151 117.209C112.325 116.922 112.551 116.699 112.831 116.539C113.111 116.372 113.421 116.289 113.761 116.289C114.328 116.289 114.775 116.435 115.101 116.729C115.428 117.022 115.591 117.462 115.591 118.049V121.599H114.451V118.349C114.438 117.942 114.351 117.649 114.191 117.469C114.031 117.282 113.781 117.189 113.441 117.189C113.248 117.189 113.075 117.225 112.921 117.299C112.768 117.365 112.638 117.462 112.531 117.589C112.425 117.709 112.341 117.852 112.281 118.019C112.221 118.185 112.191 118.362 112.191 118.549V121.599H111.051V116.429ZM116.273 116.429H117.133V114.879H118.273V116.429H119.303V117.279H118.273V120.039C118.273 120.159 118.277 120.262 118.283 120.349C118.297 120.435 118.32 120.509 118.353 120.569C118.393 120.629 118.45 120.675 118.523 120.709C118.597 120.735 118.697 120.749 118.823 120.749C118.903 120.749 118.983 120.749 119.063 120.749C119.143 120.742 119.223 120.729 119.303 120.709V121.589C119.177 121.602 119.053 121.615 118.933 121.629C118.813 121.642 118.69 121.649 118.563 121.649C118.263 121.649 118.02 121.622 117.833 121.569C117.653 121.509 117.51 121.425 117.403 121.319C117.303 121.205 117.233 121.065 117.193 120.899C117.16 120.732 117.14 120.542 117.133 120.329V117.279H116.273V116.429ZM122.337 116.429H123.587L124.937 120.289H124.957L126.267 116.429H127.457L125.447 121.879C125.353 122.112 125.26 122.335 125.167 122.549C125.08 122.762 124.97 122.949 124.837 123.109C124.71 123.275 124.55 123.405 124.357 123.499C124.163 123.599 123.917 123.649 123.617 123.649C123.35 123.649 123.087 123.629 122.827 123.589V122.629C122.92 122.642 123.01 122.655 123.097 122.669C123.183 122.689 123.273 122.699 123.367 122.699C123.5 122.699 123.61 122.682 123.697 122.649C123.783 122.615 123.853 122.565 123.907 122.499C123.967 122.439 124.017 122.365 124.057 122.279C124.097 122.192 124.133 122.092 124.167 121.979L124.297 121.579L122.337 116.429ZM130.462 121.739C130.049 121.739 129.679 121.672 129.352 121.539C129.032 121.399 128.759 121.209 128.532 120.969C128.312 120.729 128.142 120.442 128.022 120.109C127.909 119.775 127.852 119.409 127.852 119.009C127.852 118.615 127.909 118.252 128.022 117.919C128.142 117.585 128.312 117.299 128.532 117.059C128.759 116.819 129.032 116.632 129.352 116.499C129.679 116.359 130.049 116.289 130.462 116.289C130.876 116.289 131.242 116.359 131.562 116.499C131.889 116.632 132.162 116.819 132.382 117.059C132.609 117.299 132.779 117.585 132.892 117.919C133.012 118.252 133.072 118.615 133.072 119.009C133.072 119.409 133.012 119.775 132.892 120.109C132.779 120.442 132.609 120.729 132.382 120.969C132.162 121.209 131.889 121.399 131.562 121.539C131.242 121.672 130.876 121.739 130.462 121.739ZM130.462 120.839C130.716 120.839 130.936 120.785 131.122 120.679C131.309 120.572 131.462 120.432 131.582 120.259C131.702 120.085 131.789 119.892 131.842 119.679C131.902 119.459 131.932 119.235 131.932 119.009C131.932 118.789 131.902 118.569 131.842 118.349C131.789 118.129 131.702 117.935 131.582 117.769C131.462 117.595 131.309 117.455 131.122 117.349C130.936 117.242 130.716 117.189 130.462 117.189C130.209 117.189 129.989 117.242 129.802 117.349C129.616 117.455 129.462 117.595 129.342 117.769C129.222 117.935 129.132 118.129 129.072 118.349C129.019 118.569 128.992 118.789 128.992 119.009C128.992 119.235 129.019 119.459 129.072 119.679C129.132 119.892 129.222 120.085 129.342 120.259C129.462 120.432 129.616 120.572 129.802 120.679C129.989 120.785 130.209 120.839 130.462 120.839ZM138.56 121.599H137.44V120.879H137.42C137.28 121.139 137.07 121.349 136.79 121.509C136.517 121.662 136.237 121.739 135.95 121.739C135.27 121.739 134.777 121.572 134.47 121.239C134.17 120.899 134.02 120.389 134.02 119.709V116.429H135.16V119.599C135.16 120.052 135.247 120.372 135.42 120.559C135.593 120.745 135.837 120.839 136.15 120.839C136.39 120.839 136.59 120.802 136.75 120.729C136.91 120.655 137.04 120.559 137.14 120.439C137.24 120.312 137.31 120.162 137.35 119.989C137.397 119.815 137.42 119.629 137.42 119.429V116.429H138.56V121.599ZM142.075 116.429H143.285L144.295 120.289H144.315L145.285 116.429H146.435L147.365 120.289H147.385L148.435 116.429H149.595L147.975 121.599H146.805L145.845 117.759H145.825L144.875 121.599H143.675L142.075 116.429ZM154.659 120.449C154.659 120.589 154.675 120.689 154.709 120.749C154.749 120.809 154.822 120.839 154.929 120.839C154.962 120.839 155.002 120.839 155.049 120.839C155.095 120.839 155.149 120.832 155.209 120.819V121.609C155.169 121.622 155.115 121.635 155.049 121.649C154.989 121.669 154.925 121.685 154.859 121.699C154.792 121.712 154.725 121.722 154.659 121.729C154.592 121.735 154.535 121.739 154.489 121.739C154.255 121.739 154.062 121.692 153.909 121.599C153.755 121.505 153.655 121.342 153.609 121.109C153.382 121.329 153.102 121.489 152.769 121.589C152.442 121.689 152.125 121.739 151.819 121.739C151.585 121.739 151.362 121.705 151.149 121.639C150.935 121.579 150.745 121.489 150.579 121.369C150.419 121.242 150.289 121.085 150.189 120.899C150.095 120.705 150.049 120.482 150.049 120.229C150.049 119.909 150.105 119.649 150.219 119.449C150.339 119.249 150.492 119.092 150.679 118.979C150.872 118.865 151.085 118.785 151.319 118.739C151.559 118.685 151.799 118.645 152.039 118.619C152.245 118.579 152.442 118.552 152.629 118.539C152.815 118.519 152.979 118.489 153.119 118.449C153.265 118.409 153.379 118.349 153.459 118.269C153.545 118.182 153.589 118.055 153.589 117.889C153.589 117.742 153.552 117.622 153.479 117.529C153.412 117.435 153.325 117.365 153.219 117.319C153.119 117.265 153.005 117.232 152.879 117.219C152.752 117.199 152.632 117.189 152.519 117.189C152.199 117.189 151.935 117.255 151.729 117.389C151.522 117.522 151.405 117.729 151.379 118.009H150.239C150.259 117.675 150.339 117.399 150.479 117.179C150.619 116.959 150.795 116.782 151.009 116.649C151.229 116.515 151.475 116.422 151.749 116.369C152.022 116.315 152.302 116.289 152.589 116.289C152.842 116.289 153.092 116.315 153.339 116.369C153.585 116.422 153.805 116.509 153.999 116.629C154.199 116.749 154.359 116.905 154.479 117.099C154.599 117.285 154.659 117.515 154.659 117.789V120.449ZM153.519 119.009C153.345 119.122 153.132 119.192 152.879 119.219C152.625 119.239 152.372 119.272 152.119 119.319C151.999 119.339 151.882 119.369 151.769 119.409C151.655 119.442 151.555 119.492 151.469 119.559C151.382 119.619 151.312 119.702 151.259 119.809C151.212 119.909 151.189 120.032 151.189 120.179C151.189 120.305 151.225 120.412 151.299 120.499C151.372 120.585 151.459 120.655 151.559 120.709C151.665 120.755 151.779 120.789 151.899 120.809C152.025 120.829 152.139 120.839 152.239 120.839C152.365 120.839 152.502 120.822 152.649 120.789C152.795 120.755 152.932 120.699 153.059 120.619C153.192 120.539 153.302 120.439 153.389 120.319C153.475 120.192 153.519 120.039 153.519 119.859V119.009ZM155.885 116.429H156.965V117.189L156.985 117.209C157.158 116.922 157.385 116.699 157.665 116.539C157.945 116.372 158.255 116.289 158.595 116.289C159.162 116.289 159.608 116.435 159.935 116.729C160.262 117.022 160.425 117.462 160.425 118.049V121.599H159.285V118.349C159.272 117.942 159.185 117.649 159.025 117.469C158.865 117.282 158.615 117.189 158.275 117.189C158.082 117.189 157.908 117.225 157.755 117.299C157.602 117.365 157.472 117.462 157.365 117.589C157.258 117.709 157.175 117.852 157.115 118.019C157.055 118.185 157.025 118.362 157.025 118.549V121.599H155.885V116.429ZM161.107 116.429H161.967V114.879H163.107V116.429H164.137V117.279H163.107V120.039C163.107 120.159 163.111 120.262 163.117 120.349C163.131 120.435 163.154 120.509 163.187 120.569C163.227 120.629 163.284 120.675 163.357 120.709C163.431 120.735 163.531 120.749 163.657 120.749C163.737 120.749 163.817 120.749 163.897 120.749C163.977 120.742 164.057 120.729 164.137 120.709V121.589C164.011 121.602 163.887 121.615 163.767 121.629C163.647 121.642 163.524 121.649 163.397 121.649C163.097 121.649 162.854 121.622 162.667 121.569C162.487 121.509 162.344 121.425 162.237 121.319C162.137 121.205 162.067 121.065 162.027 120.899C161.994 120.732 161.974 120.542 161.967 120.329V117.279H161.107V116.429ZM168.507 118.559C168.494 118.379 168.454 118.205 168.387 118.039C168.327 117.872 168.241 117.729 168.127 117.609C168.021 117.482 167.887 117.382 167.727 117.309C167.574 117.229 167.401 117.189 167.207 117.189C167.007 117.189 166.824 117.225 166.657 117.299C166.497 117.365 166.357 117.462 166.237 117.589C166.124 117.709 166.031 117.852 165.957 118.019C165.891 118.185 165.854 118.365 165.847 118.559H168.507ZM165.847 119.309C165.847 119.509 165.874 119.702 165.927 119.889C165.987 120.075 166.074 120.239 166.187 120.379C166.301 120.519 166.444 120.632 166.617 120.719C166.791 120.799 166.997 120.839 167.237 120.839C167.571 120.839 167.837 120.769 168.037 120.629C168.244 120.482 168.397 120.265 168.497 119.979H169.577C169.517 120.259 169.414 120.509 169.267 120.729C169.121 120.949 168.944 121.135 168.737 121.289C168.531 121.435 168.297 121.545 168.037 121.619C167.784 121.699 167.517 121.739 167.237 121.739C166.831 121.739 166.471 121.672 166.157 121.539C165.844 121.405 165.577 121.219 165.357 120.979C165.144 120.739 164.981 120.452 164.867 120.119C164.761 119.785 164.707 119.419 164.707 119.019C164.707 118.652 164.764 118.305 164.877 117.979C164.997 117.645 165.164 117.355 165.377 117.109C165.597 116.855 165.861 116.655 166.167 116.509C166.474 116.362 166.821 116.289 167.207 116.289C167.614 116.289 167.977 116.375 168.297 116.549C168.624 116.715 168.894 116.939 169.107 117.219C169.321 117.499 169.474 117.822 169.567 118.189C169.667 118.549 169.694 118.922 169.647 119.309H165.847ZM175.384 121.599H174.304V120.899H174.284C174.131 121.199 173.907 121.415 173.614 121.549C173.321 121.675 173.011 121.739 172.684 121.739C172.277 121.739 171.921 121.669 171.614 121.529C171.314 121.382 171.064 121.185 170.864 120.939C170.664 120.692 170.514 120.402 170.414 120.069C170.314 119.729 170.264 119.365 170.264 118.979C170.264 118.512 170.327 118.109 170.454 117.769C170.581 117.429 170.747 117.149 170.954 116.929C171.167 116.709 171.407 116.549 171.674 116.449C171.947 116.342 172.224 116.289 172.504 116.289C172.664 116.289 172.827 116.305 172.994 116.339C173.161 116.365 173.321 116.412 173.474 116.479C173.627 116.545 173.767 116.632 173.894 116.739C174.027 116.839 174.137 116.959 174.224 117.099H174.244V114.459H175.384V121.599ZM171.404 119.069C171.404 119.289 171.431 119.505 171.484 119.719C171.544 119.932 171.631 120.122 171.744 120.289C171.864 120.455 172.014 120.589 172.194 120.689C172.374 120.789 172.587 120.839 172.834 120.839C173.087 120.839 173.304 120.785 173.484 120.679C173.671 120.572 173.821 120.432 173.934 120.259C174.054 120.085 174.141 119.892 174.194 119.679C174.254 119.459 174.284 119.235 174.284 119.009C174.284 118.435 174.154 117.989 173.894 117.669C173.641 117.349 173.294 117.189 172.854 117.189C172.587 117.189 172.361 117.245 172.174 117.359C171.994 117.465 171.844 117.609 171.724 117.789C171.611 117.962 171.527 118.162 171.474 118.389C171.427 118.609 171.404 118.835 171.404 119.069ZM178.891 116.429H179.751V114.879H180.891V116.429H181.921V117.279H180.891V120.039C180.891 120.159 180.894 120.262 180.901 120.349C180.914 120.435 180.937 120.509 180.971 120.569C181.011 120.629 181.067 120.675 181.141 120.709C181.214 120.735 181.314 120.749 181.441 120.749C181.521 120.749 181.601 120.749 181.681 120.749C181.761 120.742 181.841 120.729 181.921 120.709V121.589C181.794 121.602 181.671 121.615 181.551 121.629C181.431 121.642 181.307 121.649 181.181 121.649C180.881 121.649 180.637 121.622 180.451 121.569C180.271 121.509 180.127 121.425 180.021 121.319C179.921 121.205 179.851 121.065 179.811 120.899C179.777 120.732 179.757 120.542 179.751 120.329V117.279H178.891V116.429ZM185.111 121.739C184.697 121.739 184.327 121.672 184.001 121.539C183.681 121.399 183.407 121.209 183.181 120.969C182.961 120.729 182.791 120.442 182.671 120.109C182.557 119.775 182.501 119.409 182.501 119.009C182.501 118.615 182.557 118.252 182.671 117.919C182.791 117.585 182.961 117.299 183.181 117.059C183.407 116.819 183.681 116.632 184.001 116.499C184.327 116.359 184.697 116.289 185.111 116.289C185.524 116.289 185.891 116.359 186.211 116.499C186.537 116.632 186.811 116.819 187.031 117.059C187.257 117.299 187.427 117.585 187.541 117.919C187.661 118.252 187.721 118.615 187.721 119.009C187.721 119.409 187.661 119.775 187.541 120.109C187.427 120.442 187.257 120.729 187.031 120.969C186.811 121.209 186.537 121.399 186.211 121.539C185.891 121.672 185.524 121.739 185.111 121.739ZM185.111 120.839C185.364 120.839 185.584 120.785 185.771 120.679C185.957 120.572 186.111 120.432 186.231 120.259C186.351 120.085 186.437 119.892 186.491 119.679C186.551 119.459 186.581 119.235 186.581 119.009C186.581 118.789 186.551 118.569 186.491 118.349C186.437 118.129 186.351 117.935 186.231 117.769C186.111 117.595 185.957 117.455 185.771 117.349C185.584 117.242 185.364 117.189 185.111 117.189C184.857 117.189 184.637 117.242 184.451 117.349C184.264 117.455 184.111 117.595 183.991 117.769C183.871 117.935 183.781 118.129 183.721 118.349C183.667 118.569 183.641 118.789 183.641 119.009C183.641 119.235 183.667 119.459 183.721 119.679C183.781 119.892 183.871 120.085 183.991 120.259C184.111 120.432 184.264 120.572 184.451 120.679C184.637 120.785 184.857 120.839 185.111 120.839ZM191.482 114.459H192.622V115.539H191.482V114.459ZM191.482 116.429H192.622V121.599H191.482V116.429ZM193.864 116.429H194.944V117.189L194.964 117.209C195.137 116.922 195.364 116.699 195.644 116.539C195.924 116.372 196.234 116.289 196.574 116.289C197.14 116.289 197.587 116.435 197.914 116.729C198.24 117.022 198.404 117.462 198.404 118.049V121.599H197.264V118.349C197.25 117.942 197.164 117.649 197.004 117.469C196.844 117.282 196.594 117.189 196.254 117.189C196.06 117.189 195.887 117.225 195.734 117.299C195.58 117.365 195.45 117.462 195.344 117.589C195.237 117.709 195.154 117.852 195.094 118.019C195.034 118.185 195.004 118.362 195.004 118.549V121.599H193.864V116.429ZM199.096 116.429H200.336L201.646 120.399H201.666L202.926 116.429H204.106L202.256 121.599H200.976L199.096 116.429ZM208.341 118.559C208.328 118.379 208.288 118.205 208.221 118.039C208.161 117.872 208.075 117.729 207.961 117.609C207.855 117.482 207.721 117.382 207.561 117.309C207.408 117.229 207.235 117.189 207.041 117.189C206.841 117.189 206.658 117.225 206.491 117.299C206.331 117.365 206.191 117.462 206.071 117.589C205.958 117.709 205.865 117.852 205.791 118.019C205.725 118.185 205.688 118.365 205.681 118.559H208.341ZM205.681 119.309C205.681 119.509 205.708 119.702 205.761 119.889C205.821 120.075 205.908 120.239 206.021 120.379C206.135 120.519 206.278 120.632 206.451 120.719C206.625 120.799 206.831 120.839 207.071 120.839C207.405 120.839 207.671 120.769 207.871 120.629C208.078 120.482 208.231 120.265 208.331 119.979H209.411C209.351 120.259 209.248 120.509 209.101 120.729C208.955 120.949 208.778 121.135 208.571 121.289C208.365 121.435 208.131 121.545 207.871 121.619C207.618 121.699 207.351 121.739 207.071 121.739C206.665 121.739 206.305 121.672 205.991 121.539C205.678 121.405 205.411 121.219 205.191 120.979C204.978 120.739 204.815 120.452 204.701 120.119C204.595 119.785 204.541 119.419 204.541 119.019C204.541 118.652 204.598 118.305 204.711 117.979C204.831 117.645 204.998 117.355 205.211 117.109C205.431 116.855 205.695 116.655 206.001 116.509C206.308 116.362 206.655 116.289 207.041 116.289C207.448 116.289 207.811 116.375 208.131 116.549C208.458 116.715 208.728 116.939 208.941 117.219C209.155 117.499 209.308 117.822 209.401 118.189C209.501 118.549 209.528 118.922 209.481 119.309H205.681ZM211.208 119.939C211.241 120.272 211.368 120.505 211.588 120.639C211.808 120.772 212.071 120.839 212.378 120.839C212.485 120.839 212.605 120.832 212.738 120.819C212.878 120.799 213.008 120.765 213.128 120.719C213.248 120.672 213.345 120.605 213.418 120.519C213.498 120.425 213.535 120.305 213.528 120.159C213.521 120.012 213.468 119.892 213.368 119.799C213.268 119.705 213.138 119.632 212.978 119.579C212.825 119.519 212.648 119.469 212.448 119.429C212.248 119.389 212.045 119.345 211.838 119.299C211.625 119.252 211.418 119.195 211.218 119.129C211.025 119.062 210.848 118.972 210.688 118.859C210.535 118.745 210.411 118.602 210.318 118.429C210.225 118.249 210.178 118.029 210.178 117.769C210.178 117.489 210.245 117.255 210.378 117.069C210.518 116.875 210.691 116.722 210.898 116.609C211.111 116.489 211.345 116.405 211.598 116.359C211.858 116.312 212.105 116.289 212.338 116.289C212.605 116.289 212.858 116.319 213.098 116.379C213.345 116.432 213.565 116.522 213.758 116.649C213.958 116.775 214.121 116.942 214.248 117.149C214.381 117.349 214.465 117.592 214.498 117.879H213.308C213.255 117.605 213.128 117.422 212.928 117.329C212.735 117.235 212.511 117.189 212.258 117.189C212.178 117.189 212.081 117.195 211.968 117.209C211.861 117.222 211.758 117.249 211.658 117.289C211.565 117.322 211.485 117.375 211.418 117.449C211.351 117.515 211.318 117.605 211.318 117.719C211.318 117.859 211.365 117.972 211.458 118.059C211.558 118.145 211.685 118.219 211.838 118.279C211.998 118.332 212.178 118.379 212.378 118.419C212.578 118.459 212.785 118.502 212.998 118.549C213.205 118.595 213.408 118.652 213.608 118.719C213.808 118.785 213.985 118.875 214.138 118.989C214.298 119.102 214.425 119.245 214.518 119.419C214.618 119.592 214.668 119.805 214.668 120.059C214.668 120.365 214.598 120.625 214.458 120.839C214.318 121.052 214.135 121.225 213.908 121.359C213.688 121.492 213.441 121.589 213.168 121.649C212.895 121.709 212.625 121.739 212.358 121.739C212.031 121.739 211.728 121.702 211.448 121.629C211.175 121.555 210.935 121.445 210.728 121.299C210.528 121.145 210.368 120.959 210.248 120.739C210.135 120.512 210.075 120.245 210.068 119.939H211.208ZM215.014 116.429H215.874V114.879H217.014V116.429H218.044V117.279H217.014V120.039C217.014 120.159 217.017 120.262 217.024 120.349C217.037 120.435 217.06 120.509 217.094 120.569C217.134 120.629 217.19 120.675 217.264 120.709C217.337 120.735 217.437 120.749 217.564 120.749C217.644 120.749 217.724 120.749 217.804 120.749C217.884 120.742 217.964 120.729 218.044 120.709V121.589C217.917 121.602 217.794 121.615 217.674 121.629C217.554 121.642 217.43 121.649 217.304 121.649C217.004 121.649 216.76 121.622 216.574 121.569C216.394 121.509 216.25 121.425 216.144 121.319C216.044 121.205 215.974 121.065 215.934 120.899C215.9 120.732 215.88 120.542 215.874 120.329V117.279H215.014V116.429Z" fill="white"/>
<path d="M149.395 213.565L146.616 211.951C145.388 211.238 143.928 211.044 142.558 211.414C141.188 211.783 140.02 212.685 139.311 213.92C138.602 215.156 138.41 216.625 138.777 218.003C139.144 219.381 140.04 220.556 141.269 221.27L126.449 212.662C125.221 211.948 123.761 211.755 122.391 212.124C121.021 212.493 119.853 213.395 119.144 214.631C118.435 215.867 118.242 217.335 118.61 218.713C118.977 220.092 119.873 221.267 121.101 221.98L149.182 238.291L137.456 238.291C136.753 238.29 136.057 238.429 135.408 238.699C134.758 238.969 134.168 239.365 133.671 239.865C133.174 240.365 132.78 240.958 132.511 241.611C132.242 242.264 132.103 242.964 132.103 243.671C132.103 244.378 132.242 245.078 132.511 245.731C132.78 246.384 133.174 246.977 133.671 247.477C134.168 247.976 134.758 248.372 135.408 248.643C136.057 248.913 136.753 249.051 137.456 249.051C157.721 250.706 165.928 249.317 171.835 239.024C173.239 236.576 174.151 233.875 174.518 231.073C174.884 228.271 174.699 225.424 173.972 222.694C173.245 219.964 171.99 217.405 170.28 215.163C168.57 212.921 166.438 211.04 164.005 209.627L154.743 204.247C153.514 203.533 152.055 203.34 150.685 203.709C149.315 204.078 148.147 204.98 147.438 206.216C146.729 207.452 146.536 208.92 146.903 210.298C147.271 211.677 148.167 212.852 149.395 213.565V213.565Z" fill="#F1D8CD"/>
<path d="M142.195 221.808L126.449 212.662C125.221 211.948 123.761 211.755 122.391 212.124C121.021 212.493 119.853 213.395 119.144 214.631C118.435 215.867 118.242 217.335 118.61 218.713C118.977 220.092 119.873 221.267 121.101 221.98L149.182 238.291L137.456 238.291C136.753 238.29 136.057 238.429 135.408 238.699C134.758 238.969 134.168 239.365 133.671 239.865C133.174 240.365 132.78 240.958 132.511 241.611C132.242 242.264 132.103 242.964 132.103 243.671C132.103 244.378 132.242 245.078 132.511 245.731C132.78 246.384 133.174 246.977 133.671 247.477C134.168 247.976 134.758 248.372 135.408 248.643C136.057 248.913 136.753 249.051 137.456 249.051C157.721 250.706 165.928 249.317 171.835 239.024C173.239 236.576 174.151 233.875 174.518 231.073C174.884 228.271 174.699 225.424 173.972 222.694C173.245 219.964 171.99 217.405 170.28 215.163C168.57 212.921 166.438 211.04 164.005 209.627L154.743 204.247C153.514 203.533 152.055 203.34 150.685 203.709C149.315 204.078 148.147 204.98 147.438 206.216C146.729 207.452 146.536 208.92 146.903 210.298C147.271 211.677 148.167 212.852 149.395 213.565" stroke="#556174" stroke-width="3" stroke-linecap="round" stroke-linejoin="round"/>
<path d="M149.395 213.565L146.616 211.951C145.388 211.237 143.928 211.044 142.558 211.413C141.188 211.782 140.02 212.684 139.311 213.92C138.602 215.156 138.41 216.624 138.777 218.002C139.144 219.381 140.04 220.556 141.268 221.269L142.195 221.807" stroke="#556174" stroke-width="3" stroke-linecap="round" stroke-linejoin="round"/>
<defs>
<linearGradient id="paint0_linear_6342_33563" x1="292.925" y1="151.755" x2="281.953" y2="162.996" gradientUnits="userSpaceOnUse">
<stop stop-color="#0BF3A8"/>
<stop offset="1" stop-color="#D724FD"/>
</linearGradient>
<linearGradient id="paint1_linear_6342_33563" x1="84.6405" y1="73.9854" x2="84.6405" y2="113.478" gradientUnits="userSpaceOnUse">
<stop stop-color="#7171FF"/>
<stop offset="1" stop-color="#7171FF" stop-opacity="0.29"/>
</linearGradient>
</defs>
</svg>
